<svg id="Calque_1" xmlns="http://www.w3.org/2000/svg" width="50" height="50" viewBox="0 0 50 50"><g fill="#222"><path d="M10.124 28.698L.71 1.062h7.262l5.514 19.029h.135l5.514-19.029h7.261l-9.413 27.635-6.754 20.24H2.922l7.202-20.239zM25.815 12.359c0-7.8 5.917-11.7 11.498-11.7s11.498 4.212 11.498 10.937h-6.859c0-2.274-2.151-4.078-4.639-4.078-2.488 0-4.64 1.628-4.64 4.841 0 1.097 9.325 30.281 9.325 30.281V28.632h-1.792v-6.053h8.605v26.762H37.313S25.815 14.195 25.815 12.359zM27.792 28.631l2.141 6.812H17.906l2.133-6.812z"/><path d="M45.398 13.127a3.89 3.89 0 1 0 0 7.782 3.89 3.89 0 0 0 0-7.782zm0 5.538a1.646 1.646 0 1 1 0-3.292 1.646 1.646 0 0 1 0 3.292z"/></g></svg>