<?xml version="1.0" encoding="utf-8"?>
<!-- Generator: Adobe Illustrator 17.0.2, SVG Export Plug-In . SVG Version: 6.00 Build 0)  -->
<!DOCTYPE svg PUBLIC "-//W3C//DTD SVG 1.1//EN" "http://www.w3.org/Graphics/SVG/1.1/DTD/svg11.dtd">
<svg version="1.1" id="Calque_1" xmlns="http://www.w3.org/2000/svg" xmlns:xlink="http://www.w3.org/1999/xlink" x="0px" y="0px"
	 width="50px" height="50px" viewBox="0 0 50 50" enable-background="new 0 0 50 50" xml:space="preserve">
<g>
	<path fill="#222222" d="M10.124,28.698L0.71,1.062h7.262l5.514,19.029h0.135l5.514-19.029h7.261l-9.413,27.635l-6.754,20.24H2.922
		L10.124,28.698z"/>
	<path fill="#222222" d="M25.815,12.359c0-7.8,5.917-11.7,11.498-11.7s11.498,4.212,11.498,10.937h-6.859
		c0-2.274-2.151-4.078-4.639-4.078c-2.488,0-4.64,1.628-4.64,4.841c0,1.097,9.325,30.281,9.325,30.281V28.632h-1.792v-6.053h8.605
		v26.762H37.313C37.313,49.341,25.815,14.195,25.815,12.359z"/>
	<polygon fill="#222222" points="27.792,28.631 29.933,35.443 17.906,35.443 20.039,28.631 	"/>
	<path fill="#222222" d="M45.398,13.127c-2.149,0-3.891,1.742-3.891,3.891s1.742,3.891,3.891,3.891s3.891-1.742,3.891-3.891
		S47.547,13.127,45.398,13.127z M45.398,18.665c-0.909,0-1.646-0.737-1.646-1.646c0-0.909,0.737-1.646,1.646-1.646
		c0.909,0,1.646,0.737,1.646,1.646C47.045,17.928,46.307,18.665,45.398,18.665z"/>
</g>
</svg>
