<svg viewBox="0 0 918 805" fill="none" xmlns="http://www.w3.org/2000/svg"><path d="M819.643 235.584a136.738 136.738 0 0 0-5.8-5.8c-1.972-1.856-3.828-3.944-5.8-5.8-1.972-1.856-3.828-3.944-5.8-5.8-1.972-1.856-3.828-3.944-5.8-5.8-1.972-1.856-3.828-3.944-5.8-5.8-1.972-1.856-3.828-3.944-5.8-5.8-1.972-1.856-3.828-3.944-5.8-5.8a306.937 306.937 0 0 1 91.756 214.136c0 192.212-195.112 348.58-435 348.58-134.328 0-254.504-49.068-334.428-125.976l5.8 5.8 5.8 5.8 5.8 5.8 5.8 5.8 5.8 5.8 5.8 5.8 5.8 5.8C221.779 752.48 344.623 804.1 482.199 804.1c239.888 0 435-156.368 435-348 0-81.896-35.264-159.5-97.556-220.516" fill="#000"/><path d="M841.801 409.12c0 176.436-181.772 319.464-406 319.464s-406-143.028-406-319.464c0-109.388 69.6-206.016 176.552-263.32s173.536-116 229.448-116c55.912 0 103.704 47.908 229.448 116 106.952 57.304 176.552 153.932 176.552 263.32" fill="currentColor"/><path d="M841.8 409.12a251.358 251.358 0 0 0-9.28-67.048c-31.668 386.28-502.86 404.84-688.112 289.304A464 464 0 0 0 435.8 728.584c223.88 0 406-143.26 406-319.464M279.549 124.572c51.852-31.088 120.756-89.436 188.5-89.552a107.77 107.77 0 0 0-32.248-5.22c-28.072 0-58 14.5-95.7 36.308-13.108 7.656-26.68 16.124-41.064 24.94-27.028 16.704-58 35.612-92.8 54.52C95.805 205.308 29.801 303.792 29.801 409.12v13.804c70.296-248.356 198.012-267.264 249.748-298.352" fill="currentColor"/><path fill-rule="evenodd" clip-rule="evenodd" d="M402.392 59.148A190.342 190.342 0 0 1 337.084 203.8c-3.248 2.9-.696 8.468 3.48 6.844 39.092-15.196 91.872-60.668 69.6-152.424-.928-5.22-7.772-3.828-7.772.928m26.332 0A188.385 188.385 0 0 1 447.4 215.4c-1.392 4.06 3.596 7.54 6.38 4.176C479.184 187.096 501.34 122.6 434.988 53c-3.364-3.016-8.584 1.624-6.264 5.684zm32.016-1.972a190.472 190.472 0 0 1 79.46 136.416 3.834 3.834 0 0 0 .734 2.749 3.83 3.83 0 0 0 6.806-1.473c10.672-40.484 4.64-109.504-83.172-145.348-4.64-1.856-7.656 4.408-3.828 7.192zm-214.136 120.64a196.501 196.501 0 0 0 121.452-104.4c2.088-4.176 8.7-2.552 7.656 2.088-20.068 92.8-87.232 112.172-128.992 109.62-4.408.116-4.292-6.032-.116-7.308" fill="currentColor"/><path d="M435.801 757.7c-239.888 0-435-156.368-435-348.58 0-116 71.688-224.228 191.748-289.072 34.8-18.56 64.612-37.236 91.176-53.592 14.616-9.048 28.42-17.516 41.76-25.404C366.201 16.924 401.001.8 435.801.8s65.192 13.92 103.24 36.424c11.6 6.612 23.2 13.804 35.612 21.692 28.884 17.864 61.48 38.048 104.4 61.132 120.06 64.844 191.748 172.956 191.748 289.072 0 192.212-195.112 348.58-435 348.58m0-727.9c-28.072 0-58 14.5-95.7 36.308-13.108 7.656-26.68 16.124-41.064 24.94-27.028 16.704-58 35.612-92.8 54.52C95.805 205.308 29.801 303.792 29.801 409.12c0 176.204 182.12 319.58 406 319.58s406-143.376 406-319.58c0-105.328-66.004-203.812-176.552-263.32-43.848-23.2-78.068-45.008-105.792-62.176-12.644-7.772-24.244-14.964-34.8-21.344-35.148-20.88-60.784-32.48-88.856-32.48" fill="#000"/><path d="M517.581 493.8a103.587 103.587 0 0 1-33.872 54.636 78.998 78.998 0 0 1-46.4 21.808 79.347 79.347 0 0 1-47.908-21.808 103.59 103.59 0 0 1-33.408-54.636 8.361 8.361 0 0 1 2.337-6.973 8.348 8.348 0 0 1 6.943-2.423h143.144a8.355 8.355 0 0 1 8.809 5.67 8.348 8.348 0 0 1 .355 3.726" fill="currentColor"/><path d="M389.401 549.364a80.156 80.156 0 0 0 47.792 22.04 80.159 80.159 0 0 0 47.676-22.04 123.428 123.428 0 0 0 11.6-12.412 79.223 79.223 0 0 0-56.84-26.796 71.34 71.34 0 0 0-58 32.248c2.668 2.436 4.988 4.756 7.772 6.96" fill="currentColor"/><path d="M391.257 540.2a62.167 62.167 0 0 1 48.604-24.128 69.599 69.599 0 0 1 46.4 19.604c2.668-2.9 5.22-5.916 7.656-8.932a81.202 81.202 0 0 0-54.636-22.388 73.78 73.78 0 0 0-56.724 27.376 110.366 110.366 0 0 0 8.7 8.468" fill="#000"/><path d="M436.845 577.204a86.073 86.073 0 0 1-51.62-23.2 110.432 110.432 0 0 1-36.076-58.58 13.926 13.926 0 0 1 3.016-11.6 16.35 16.35 0 0 1 13.108-5.916h143.144a16.716 16.716 0 0 1 13.108 5.916 13.803 13.803 0 0 1 2.9 11.6 110.432 110.432 0 0 1-36.076 58.58 86.071 86.071 0 0 1-51.504 23.2m-71.572-85.84c-1.856 0-2.32.812-2.436 1.044a96.161 96.161 0 0 0 31.668 50.692 72.263 72.263 0 0 0 42.34 20.3 72.85 72.85 0 0 0 42.34-20.068 96.287 96.287 0 0 0 31.552-50.692 2.437 2.437 0 0 0-2.32-1.044z" fill="#000"/><path d="M612.352 500.992c37.478 0 67.86-17.866 67.86-39.904 0-22.038-30.382-39.904-67.86-39.904-37.478 0-67.86 17.866-67.86 39.904 0 22.038 30.382 39.904 67.86 39.904M261.219 500.992c37.478 0 67.86-17.866 67.86-39.904 0-22.038-30.382-39.904-67.86-39.904-37.478 0-67.86 17.866-67.86 39.904 0 22.038 30.382 39.904 67.86 39.904" fill="currentColor"/><path fill-rule="evenodd" clip-rule="evenodd" d="M293.12 445.08a63.917 63.917 0 1 0 .234-127.834 63.917 63.917 0 0 0-.234 127.834m287.332 0a63.923 63.923 0 0 0 59.381-39.133 63.914 63.914 0 0 0-13.557-69.812 63.918 63.918 0 0 0-98.471 9.471A63.923 63.923 0 0 0 517 381.164a63.8 63.8 0 0 0 63.452 63.916" fill="#000"/><path fill-rule="evenodd" clip-rule="evenodd" d="M273.4 385.224a24.016 24.016 0 0 0 22.267-14.742 24.019 24.019 0 0 0-5.131-26.208 24.016 24.016 0 0 0-26.182-5.257 24.006 24.006 0 0 0-14.85 22.195 24.013 24.013 0 0 0 23.896 24.012m287.332 0a24.016 24.016 0 0 0 22.267-14.742 24.019 24.019 0 0 0-5.131-26.208 24.016 24.016 0 0 0-26.182-5.257 24.006 24.006 0 0 0-14.85 22.195 24.01 24.01 0 0 0 23.664 24.012z" fill="currentColor"/></svg>