<svg xmlns="http://www.w3.org/2000/svg" viewBox="0 0 512 512"><g fill="currentColor"><path d="M351.999 415.895c5.891 0 10.656-4.766 10.656-10.656s-4.766-10.672-10.656-10.672-10.672 4.781-10.672 10.672 4.781 10.656 10.672 10.656zM245.343 415.895c5.891 0 10.656-4.766 10.656-10.656s-4.766-10.672-10.656-10.672-10.664 4.781-10.664 10.672 4.773 10.656 10.664 10.656zM138.687 416.051c5.891 0 10.664-4.766 10.664-10.656s-4.773-10.672-10.664-10.672-10.664 4.781-10.664 10.672 4.773 10.656 10.664 10.656z"/><path d="M485.03 248.566c-5.75-8.391-15.422-13.906-26.375-13.906-17.672 0-32 14.328-32 32s14.328 32 32 32c4.062 0 7.938-.766 11.516-2.156 8.875 31.844-10.141 59.953-91.375 75.703a42.469 42.469 0 0 0-26.797-9.469c-14.312 0-26.953 7.031-34.688 17.844-11.094 1.016-22.906 1.875-35.438 2.594-5.719-9.406-14.938-16.453-25.875-19.266v-36.484c70.156 2.062 125.188 13.531 125.781 13.656l12 2.547.812-11.578c.234-.906.844-2.938 1.375-4.766 5-16.75 18.25-61.297 18.312-111.836.031-28.93-4.312-55.32-12.938-78.445-10.562-28.414-27.688-52.188-50.844-70.664l-2.906-2.32h-91.594v-32c0-5.891-4.766-10.664-10.656-10.664s-10.664 4.773-10.664 10.664v32H63.772l13.11 17.14c19.055 24.914 32 53.156 38.484 83.945 5.227 24.805 6.305 51.352 3.203 78.898-5.32 47.406-21.359 81.734-21.516 82.078l-9.734 20.484 21.992-5.578c36.375-9.219 78.555-13.891 125.367-13.891v36.812c-11.625 3-21.336 10.766-26.906 21.094-11.367-.141-22.086-.484-32.195-1.016-7.383-12.703-21.133-21.25-36.891-21.25-12.398 0-23.562 5.281-31.352 13.734-51.703-9.312-76.547-23.922-89.258-32.188 0 0-.016 0-.023-.016a10.608 10.608 0 0 0-7.352-2.953c-5.891 0-10.672 4.781-10.672 10.672-.75 29.5 13 110.844 42.43 138.656h384.43s74.641-44.719 84.125-136.656c5.923-57.372-16.421-93.044-25.984-105.419zm-26.375 28.75c-5.875 0-10.672-4.781-10.672-10.656s4.797-10.656 10.672-10.656 10.656 4.781 10.656 10.656-4.781 10.656-10.656 10.656zm-106.656 106.75c11.75 0 21.328 9.562 21.328 21.328s-9.578 21.328-21.328 21.328c-11.766 0-21.344-9.562-21.344-21.328s9.578-21.328 21.344-21.328zM136.335 161.152c-5.68-27.211-15.938-52.633-30.57-75.805h234.281c35.172 29.547 52.969 73.281 52.891 130.078-.047 44.828-11.312 85.141-16.562 102.906-21.703-3.938-76.719-12.562-141.672-12.562-40.32 0-77.445 3.359-110.68 10.031 5.445-15.641 12.344-39.734 15.664-68.672 3.437-29.921 2.304-58.843-3.352-85.976zM245.343 383.91c11.75 0 21.328 9.562 21.328 21.328 0 11.75-9.578 21.328-21.328 21.328-11.766 0-21.336-9.578-21.336-21.328 0-11.765 9.57-21.328 21.336-21.328zm-106.656.156c11.758 0 21.328 9.562 21.328 21.328s-9.57 21.328-21.328 21.328c-11.766 0-21.328-9.562-21.328-21.328s9.562-21.328 21.328-21.328zm351.109-32.281a158.074 158.074 0 0 1-14.703 52.188c-6.406 13.312-14.734 25.984-24.781 37.656-12.031 13.969-23.75 23.234-29.938 27.672H52.085c-7.953-10.922-15.578-29.484-21.492-52.625-4.062-15.938-6.789-32.125-8.18-45.094 11.625 6.109 26.945 12.625 48.109 18.453 8.359 2.312 17.203 4.375 26.5 6.188-.648 2.953-1 6.016-1 9.172 0 23.562 19.102 42.656 42.664 42.656 23.484 0 42.539-18.984 42.656-42.438 6.969.297 14.094.516 21.359.656.547 23.078 19.422 41.625 42.641 41.625 23.562 0 42.656-19.094 42.656-42.656 0-.359-.016-.703-.031-1.047 7.375-.453 14.531-.953 21.469-1.516a39.477 39.477 0 0 0-.094 2.719c0 23.562 19.094 42.656 42.656 42.656s42.656-19.094 42.656-42.656c0-4.969-.844-9.734-2.406-14.172 8.688-1.891 16.812-3.969 24.344-6.234 36.219-10.875 59.125-26.172 70.031-46.781 1.594-3 2.906-6.094 3.938-9.25.297 7.406.047 15.016-.765 22.828z"/></g></svg>
