<svg viewBox="-10 -10 120 120" xmlns="http://www.w3.org/2000/svg"><path d="M10.102 15.5l24.102 24.102c1.5 1.5 3.898 1.5 5.398 0s1.5-3.898 0-5.398L15.5 10.102h13.102c2.102 0 3.801-1.7 3.801-3.801 0-2.102-1.699-3.801-3.8-3.801H6.3c-2.101 0-3.8 1.7-3.8 3.8v22.2c0 1.8 1.199 3.5 3.101 3.898 2.399.5 4.602-1.398 4.602-3.699zM28.602 89.898H15.5l24.102-24.102c1.5-1.5 1.5-3.898 0-5.398s-3.898-1.5-5.398 0L10.102 84.5V71.398c0-2.399-2.102-4.2-4.602-3.7-1.8.301-3.102 2-3.102 3.899v22.199c0 2.101 1.7 3.8 3.801 3.8h22.2c1.8 0 3.5-1.199 3.898-3.101.504-2.496-1.297-4.598-3.696-4.598zM71.398 10.102H84.5L60.398 34.204c-1.5 1.5-1.5 3.898 0 5.398s3.898 1.5 5.398 0L89.898 15.5v13.102c0 2.102 1.7 3.801 3.801 3.801 2.102 0 3.801-1.699 3.801-3.8V6.3c0-2.101-1.7-3.8-3.8-3.8H71.5c-1.8 0-3.5 1.199-3.898 3.101a3.825 3.825 0 0 0 3.797 4.5zM97.5 93.699V71.398c0-2.102-1.7-3.8-3.8-3.8-2.102 0-3.802 1.698-3.802 3.8V84.5L65.796 60.398c-1.5-1.5-3.898-1.5-5.398 0s-1.5 3.898 0 5.398L84.5 89.898H71.398c-2.102 0-3.8 1.7-3.8 3.801 0 2.102 1.698 3.801 3.8 3.801h22.301c2.102 0 3.8-1.7 3.8-3.8z"/></svg>

