<svg xmlns="http://www.w3.org/2000/svg" viewBox="0 0 512 512"><g fill="currentColor"><path d="M213.34 373.348c5.891 0 10.664-4.781 10.664-10.688 0-5.875-4.773-10.656-10.664-10.656s-10.672 4.781-10.672 10.656c0 5.906 4.781 10.688 10.672 10.688z"/><path d="M255.996 53.34C114.621 53.34.004 167.949.004 309.348V458.66h511.992V309.348c0-141.399-114.609-256.008-256-256.008zm216.25 164.664a232.577 232.577 0 0 1 9.594 27.344h-65.844v-42.68h49.094a240.748 240.748 0 0 1 7.156 15.336zm-216.25 48.656c22.812 0 44.219 8.875 60.344 25s25 37.547 25 60.344v85.344H170.668v-85.344c0-22.797 8.883-44.219 24.992-60.344 16.125-16.125 37.547-25 60.336-25zm-11.469-21.312H117.34v-42.68h127.188v42.68zm-52.531 21.312a106.994 106.994 0 0 0-33.773 42.688H64.004V266.66h127.992zm-75.469 64h34.945a107.397 107.397 0 0 0-2.133 21.344v21.344h-32.812V330.66zm244 0h33.344v42.688h-31.203v-21.344c0-7.313-.734-14.438-2.141-21.344zm-6.75-21.312c-7.406-17-19.125-31.688-33.766-42.688h127.984v42.688h-94.218zm-87.906-64v-42.68h128.797v42.68H265.871zm156.063-101.946a234.516 234.516 0 0 1 30.797 37.938H341.34v-42.672h75.719a217.459 217.459 0 0 1 4.875 4.734zM265.871 74.887c28.188 1.156 55.562 7.258 81.469 18.219a233.662 233.662 0 0 1 43.656 24.234H265.871V74.887zm54.125 63.781v42.672H192.004v-42.672h127.992zM164.668 93.105c25.414-10.75 52.227-16.836 79.859-18.156v42.391H121.02a233.657 233.657 0 0 1 43.648-24.235zm-74.602 50.297a249.646 249.646 0 0 1 4.883-4.734h75.719v42.672H59.277a235.847 235.847 0 0 1 30.789-37.938zM39.77 218.004a235.74 235.74 0 0 1 7.141-15.336h49.094v42.68H30.16a232.422 232.422 0 0 1 9.61-27.344zM25.207 266.66h17.461v42.688H21.34c0-14.469 1.305-28.719 3.867-42.688zm-3.867 64h73.852v42.688H21.34V330.66zm21.328 106.688H21.34V394.66h21.328v42.688zm21.336 0V394.66h85.336v42.688H64.004zm383.992 0h-85.328V394.66h85.328v42.688zm42.672 0H469.34V394.66h21.328v42.688zm0-64h-75.484V330.66h75.484v42.688zm-21.328-64V266.66h17.469a236.322 236.322 0 0 1 3.859 42.688H469.34z"/></g></svg>
