<svg xmlns="http://www.w3.org/2000/svg" viewBox="0 -47.813 25.714 24.576"><path fill="currentColor" d="M5.843-39.827v16.59H.318v-16.59zm.351-5.123c.011.815-.27 1.496-.845 2.043-.575.547-1.331.82-2.269.82h-.033c-.915 0-1.652-.273-2.21-.82C.28-43.454 0-44.135 0-44.95c0-.826.287-1.51.862-2.05.575-.542 1.325-.813 2.252-.813.926 0 1.668.271 2.226.812.558.542.843 1.225.854 2.051zm19.52 12.204v9.51h-5.508v-8.873c0-1.172-.226-2.09-.678-2.754-.452-.664-1.157-.996-2.117-.996-.703 0-1.292.192-1.766.577a3.56 3.56 0 0 0-1.064 1.432c-.122.334-.184.786-.184 1.356v9.257H8.89c.022-4.453.033-8.063.033-10.831 0-2.768-.006-4.42-.017-4.955l-.016-.804h5.507v2.41h-.033c.223-.356.452-.669.686-.937.235-.268.55-.558.946-.87.396-.313.882-.556 1.457-.729a6.636 6.636 0 0 1 1.916-.26c1.909 0 3.444.634 4.604 1.901 1.16 1.267 1.741 3.122 1.741 5.566zm0 0"/></svg>
