<svg viewBox="0 0 25 25" xmlns="http://www.w3.org/2000/svg"><path d="M15.482 4.995c.734 0 .734 1.14 0 1.14-.733 0-.735-1.14 0-1.14m9.382 5.813c-.199.41-.384.83-.598 1.23-.02.038-.595.955-.587.963.056.056-.993 1.315-1.227 1.341.004-.02 0-.038-.013-.05.19-.24.347-.52.479-.795.159-.332.33-.663.443-1.022.25-.794.417-1.59.401-2.428-.022-1.235-.434-2.772-1.468-3.557.622 1.007.574 2.45.401 3.568a9.893 9.893 0 0 1-.388 1.648 9.043 9.043 0 0 1-.299.782c-.063.144-.126.287-.194.429-.033.068-.148.222-.148.296 0 .125-.203.374-.265.48-.107.184-.217.37-.334.548-.245.375-.52.735-.81 1.075-.286.334-.596.658-.92.954-.333.304-.77.537-1.072.866.631.155 1.376.044 1.985-.127.332-.094.65-.182.964-.329.291-.136.545-.328.829-.476-.028.224-.406.476-.567.616-.3.258-.613.496-.932.729-.47.342-.973.635-1.493.896-1.225.613-2.505.93-3.864 1.02.51.478 1.091.932 1.75 1.187.356.137.704.235 1.08.298.134.023.271.055.407.067.158.013.378-.026.517.065-.422.02-.858.127-1.288.164-.382.034-.772.067-1.156.038-1.011-.075-1.99-.284-2.909-.729a13.863 13.863 0 0 1-2.494-1.57c-.392-.306-.75-.64-1.117-.973-.153-.14-.313-.27-.456-.42-.052-.054-.257-.386-.335-.384-.085.002.081.801.105.883.09.32.225.627.39.916.164.29.358.562.568.82.21.257.507.47.667.763a6.973 6.973 0 0 1-2.713-2.037c-.755-.917-1.194-2.016-1.415-3.178-.194-1.02-.091-2.092.133-3.098.242-1.091.845-2.025 1.666-2.77.402-.364.852-.652 1.32-.911.274-.151.544-.273.834-.389.166-.066.325-.127.497-.18.053-.016.438-.173.478-.146.36.12.7.29 1.045.447.397.18.812.312 1.216.471a18.08 18.08 0 0 0 2.329.737c.713.174 1.45.283 2.177.353.839.08 1.845.044 2.608-.355.703-.37.989-.978.92-1.746-.072-.796-.518-1.413-.94-2.056-.456-.692-1.145-1.285-1.784-1.807-.665-.543-1.399-1.042-2.17-1.408-.472-.224-.924-.467-1.404-.675-.43-.187-.895-.293-1.344-.424-.904-.263-1.902-.328-2.842-.328.037-.036-.71-.577-.807-.633A3.377 3.377 0 0 0 9.58.05C8.904-.062 8.176 0 7.594.385c-.646.427-1.02 1.17-1.618 1.66-.254.207-.54.376-.853.477-.405.131-.827.098-1.238.187-.647.14-1.28.444-1.53 1.097-.285.744-.013 1.57-.259 2.322-.236.722-.984 1.09-1.465 1.637C.028 8.449.082 9.119.336 9.95c.233.766.602 1.613.119 2.365-.207.321-.449.567-.455.976-.006.407.207.776.425 1.105.23.347.5.665.785.968.214.229.312.465.441.751.289.639.539 1.28.888 1.893 1.381 2.427 3.517 4.282 6.05 5.437 1.774.809 3.58 1.152 5.521 1.186 1.004.018 2.01-.139 2.974-.402.422-.115.833-.256 1.236-.421.157-.065.309-.117.46-.194.123-.061.32-.112.418-.212.236-.053.52-.253.717-.388.061-.042.517-.292.517-.36 0-.054.53-.37.577-.408.228-.19.454-.382.676-.58.415-.369.776-.78 1.129-1.198.78-.925 1.547-2.032 1.821-3.23-1.265.96-2.668 2.002-4.296 2.175.079-.096.207-.116.31-.173.158-.088.317-.18.473-.272.355-.21.698-.483 1.019-.749.656-.544 1.191-1.24 1.637-1.958.998-1.605 1.477-3.579 1.086-5.453" fill="currentColor" fill-rule="evenodd"/></svg>
