<svg viewBox="0 0 66 82" fill="none" xmlns="http://www.w3.org/2000/svg"><path fill-rule="evenodd" clip-rule="evenodd" d="M48.6 10.08l.387-9.294-45.121 2.82a4.123 4.123 0 0 0-3.863 4.27l2.54 67.684a4.123 4.123 0 0 0 3.935 3.964l55.03 2.472a4.123 4.123 0 0 0 4.308-4.118V4.122a4.123 4.123 0 0 0-4.38-4.115L56.91.291l.33 9.463a.615.615 0 0 1-.995.504l-3.049-2.402-3.61 2.739a.615.615 0 0 1-.986-.516zm2.144 20.535c-1.45 1.127-12.255 1.896-12.255.292.228-6.12-2.512-6.389-4.034-6.389-1.446 0-3.882.437-3.882 3.716 0 3.341 3.56 5.228 7.737 7.442 5.935 3.145 13.119 6.951 13.119 16.53 0 9.18-7.46 14.252-16.974 14.252-9.82 0-18.4-3.972-17.43-17.745.38-1.617 12.863-1.233 12.863 0-.152 5.683 1.142 7.355 4.415 7.355 2.511 0 3.653-1.385 3.653-3.716 0-3.529-3.709-5.611-7.975-8.006-5.777-3.244-12.576-7.061-12.576-15.82 0-8.744 6.013-14.573 16.745-14.573 10.733 0 16.594 5.74 16.594 16.662z" fill="currentColor"/></svg>
