<svg xmlns="http://www.w3.org/2000/svg" viewBox="0 0 512 512"><g fill="currentColor"><path d="M274.035 78.75l30.078-52.086a10.63 10.63 0 0 0 1.422-5.328c0-5.891-4.766-10.672-10.656-10.672-3.938 0-7.375 2.156-9.234 5.344V16l-18.977 32.859V10.664C266.668 4.773 261.895 0 256.004 0S245.34 4.773 245.34 10.664v38.195L226.363 16v.008c-1.844-3.188-5.289-5.344-9.234-5.344-5.891 0-10.664 4.781-10.664 10.672 0 1.938.523 3.758 1.438 5.328h-.008l30.07 52.086L21.34 512h469.32L274.035 78.75zm13.969 91.914c0-5.891-4.781-10.664-10.656-10.664-5.898 0-10.68 4.773-10.68 10.664H245.34c0-5.891-4.781-10.664-10.672-10.664s-10.664 4.773-10.664 10.664h-8.148l40.148-80.297 40.156 80.297h-8.156zm-69.18 319.992l37.18-161.125 37.188 161.125h-74.368zm96.258 0l-59.078-255.992-59.078 255.992H55.855L205.191 192h8.148c0 5.891 4.773 10.664 10.664 10.664s10.664-4.773 10.664-10.664h10.672c0 5.891 4.773 10.664 10.664 10.664s10.664-4.773 10.664-10.664h10.68c0 5.891 4.766 10.664 10.656 10.664S298.66 197.891 298.66 192h8.156L456.16 490.656H315.082z"/><path d="M188.879 451.125l-21.336-21.344c-1.93-1.922-4.594-3.125-7.539-3.125s-5.609 1.203-7.539 3.125l-13.797 13.797-13.789-13.797c-1.93-1.922-4.594-3.125-7.539-3.125s-5.617 1.203-7.547 3.125l-21.328 21.344a10.637 10.637 0 0 0-3.125 7.531c0 5.906 4.773 10.688 10.664 10.688 2.945 0 5.609-1.203 7.547-3.125l13.789-13.797 13.789 13.797c1.93 1.922 4.594 3.125 7.539 3.125s5.617-1.203 7.547-3.125l13.789-13.797 13.789 13.797a10.68 10.68 0 0 0 7.547 3.125c5.891 0 10.664-4.781 10.664-10.688 0-2.937-1.195-5.594-3.125-7.531zM423.535 451.125l-21.312-21.344a10.715 10.715 0 0 0-7.562-3.125c-2.938 0-5.594 1.203-7.531 3.125l-13.781 13.797-13.812-13.797c-1.922-1.922-4.594-3.125-7.531-3.125s-5.609 1.203-7.531 3.125l-21.344 21.344a10.603 10.603 0 0 0-3.125 7.531c0 5.906 4.781 10.688 10.656 10.688 2.953 0 5.625-1.203 7.562-3.125l13.781-13.797 13.781 13.797a10.715 10.715 0 0 0 7.562 3.125c2.938 0 5.594-1.203 7.531-3.125l13.781-13.797 13.812 13.797a10.642 10.642 0 0 0 7.531 3.125c5.891 0 10.656-4.781 10.656-10.688a10.597 10.597 0 0 0-3.124-7.531zM160.004 341.344c5.891 0 10.664-4.781 10.664-10.688 0-5.875-4.773-10.656-10.664-10.656s-10.664 4.781-10.664 10.656c0 5.906 4.773 10.688 10.664 10.688zM202.668 320c-5.891 0-10.664 4.781-10.664 10.656 0 5.906 4.773 10.688 10.664 10.688s10.672-4.781 10.672-10.688c0-5.875-4.781-10.656-10.672-10.656zM309.348 320c-5.906 0-10.688 4.781-10.688 10.656a10.683 10.683 0 0 0 10.688 10.688c5.875 0 10.656-4.781 10.656-10.688 0-5.875-4.781-10.656-10.656-10.656zM352.004 341.344c5.891 0 10.656-4.781 10.656-10.688 0-5.875-4.766-10.656-10.656-10.656s-10.656 4.781-10.656 10.656c0 5.906 4.765 10.688 10.656 10.688z"/></g></svg>
