<svg width="0" height="0" style="position:absolute"><symbol viewBox="0 0 256 330" preserveAspectRatio="xMidYMid" id="500px" xmlns="http://www.w3.org/2000/svg"><path d="M251.547 273.499c-2.322-2.315-4.293-3.682-6.028-4.18-1.759-.505-3.33-.129-4.543 1.088l-1.142 1.14c-11.959 11.959-25.883 21.348-41.388 27.906-16.045 6.786-33.094 10.227-50.674 10.227s-34.63-3.44-50.674-10.227c-15.503-6.557-29.427-15.946-41.386-27.905-12.459-12.459-21.847-26.382-27.904-41.384-5.905-14.628-7.834-25.63-8.468-29.245-.06-.339-.106-.607-.143-.8-.812-4.257-4.73-4.555-10.362-3.693-2.342.358-9.468 1.448-8.79 6.575l.017.118a148.876 148.876 0 0 0 9.907 34.589c7.534 17.812 18.316 33.805 32.048 47.535 13.732 13.733 29.725 24.515 47.537 32.048 18.44 7.802 38.027 11.758 58.218 11.758 20.18 0 39.768-3.958 58.218-11.764 17.806-7.53 33.8-18.315 47.538-32.054.032-.031.782-.776 1.193-1.223 1.511-1.646 2.827-4.526-3.174-10.51zM147.586 35.255c-19.293 0-39.816 3.895-54.894 10.417-1.612.631-2.575 1.926-2.787 3.745-.198 1.715.265 3.98 1.418 6.925.935 2.39 3.419 8.737 8.227 6.903 15.432-5.887 32.491-9.129 48.036-9.129 17.614 0 34.696 3.448 50.773 10.247 12.774 5.405 24.828 13.21 37.933 24.566.955.829 1.97 1.249 3.014 1.249 2.555 0 5.005-2.51 7.101-4.862 3.5-3.926 5.903-7.189 2.455-10.454-12.514-11.855-26.228-20.711-43.157-27.87-18.41-7.788-37.965-11.737-58.12-11.737zm-26.302 163.126c.023 2.18 2.018 4.092 3.21 5.234l.375.362c2.044 2.01 3.991 3.03 5.786 3.03 1.487 0 2.403-.703 2.728-1.005.9-.837 11.085-11.157 12.057-12.142l11.359 11.322c1.052 1.185 2.195 1.779 3.527 1.815 1.813 0 3.79-1.078 5.875-3.205 4.901-5.005 2.448-7.704 1.262-9.008l-11.508-11.513 12.002-12.087c2.632-2.849.308-5.875-2.01-8.194-3.367-3.366-6.614-4.235-8.697-2.317l-11.934 11.955-12.068-12.072a3.313 3.313 0 0 0-2.333-.936c-1.609 0-3.511 1.087-5.657 3.232-3.711 3.711-4.507 6.276-2.576 8.323l12.073 12.035-12.001 12.023c-.988.985-1.482 2.044-1.47 3.148zm-76.531 17.824c.072.2 1.776 4.913 2.764 7.25 5.422 12.82 13.187 24.336 23.079 34.228 9.885 9.884 21.403 17.649 34.234 23.075 13.282 5.62 27.388 8.468 41.927 8.468 14.536 0 28.642-2.85 41.927-8.469 12.826-5.425 24.344-13.19 34.233-23.079 9.889-9.887 17.653-21.405 23.08-34.232 5.618-13.284 8.467-27.391 8.467-41.928 0-14.538-2.849-28.645-8.468-41.928-5.425-12.826-13.19-24.344-23.079-34.233-9.886-9.887-21.404-17.652-34.233-23.079-13.283-5.619-27.39-8.468-41.927-8.468-14.71 0-29.408 2.928-42.506 8.468-10.47 4.429-28.19 15.831-38.564 26.53l-.06.062V20.228l148.9-.001c5.419-.06 5.419-7.626 5.419-10.113 0-2.486 0-10.05-5.435-10.113L53.509 0c-4.383 0-7.096 3.646-7.096 7.024v124.768c0 4.025 5.014 6.932 9.673 7.928 9.098 1.943 11.2-.965 13.428-4.042l.296-.408c3.401-5.054 14.032-15.752 14.138-15.859 16.59-16.59 38.771-25.725 62.458-25.725 23.574 0 45.693 9.136 62.282 25.725 16.645 16.647 25.813 38.703 25.813 62.107 0 23.489-9.12 45.544-25.681 62.105-16.35 16.35-39.19 25.726-62.663 25.726-15.898 0-31.245-4.236-44.391-12.253l.055-75.864c0-10.116 4.39-21.112 11.743-29.416 8.406-9.493 19.992-14.721 32.622-14.721 12.233 0 23.656 4.643 32.169 13.076 8.451 8.372 13.105 19.526 13.105 31.408 0 25.352-19.935 45.21-45.383 45.21-4.907 0-13.825-2.167-14.192-2.257-5.138-1.53-7.324 5.604-8.044 7.955-2.766 9.043 1.391 10.836 2.252 11.104 8.19 2.541 13.56 3.023 20.604 3.023 35.926 0 65.154-29.242 65.154-65.185 0-35.654-29.21-64.662-65.114-64.662-17.582 0-34.1 6.721-46.509 18.925-11.817 11.623-18.596 27.12-18.596 42.514l-.006.382c-.058 1.92-.095 47.399-.106 62.324l-.067-.075C74.7 233.36 68.026 221.914 63.6 210.221c-1.734-4.583-5.653-3.772-11-2.125-2.335.72-9.44 2.908-7.87 8.045l.023.064z" fill="currentColor"/></symbol><symbol viewBox="0 0 85 107" fill="none" id="astro" xmlns="http://www.w3.org/2000/svg"><path d="M27.59 91.137c-4.834-4.42-6.246-13.704-4.232-20.43 3.492 4.241 8.33 5.584 13.342 6.343 7.737 1.17 15.336.732 22.523-2.804.822-.405 1.582-.943 2.48-1.489.675 1.957.85 3.932.615 5.943-.573 4.896-3.01 8.678-6.885 11.545-1.55 1.147-3.19 2.172-4.79 3.253-4.917 3.323-6.247 7.22-4.4 12.888.044.139.084.277.183.614-2.51-1.124-4.344-2.76-5.742-4.911-1.475-2.27-2.177-4.78-2.214-7.498-.019-1.322-.019-2.656-.197-3.96-.434-3.178-1.926-4.601-4.737-4.683-2.884-.084-5.166 1.699-5.771 4.507-.046.216-.113.429-.18.68zM0 69.587s14.314-6.973 28.668-6.973L39.49 29.12c.405-1.62 1.588-2.72 2.924-2.72 1.335 0 2.518 1.1 2.924 2.72L56.16 62.614c17 0 28.668 6.973 28.668 6.973S60.514 3.352 60.467 3.219C59.769 1.261 58.591 0 57.003 0H27.827c-1.588 0-2.718 1.261-3.464 3.22C24.311 3.35 0 69.586 0 69.586" fill="currentColor"/></symbol><symbol viewBox="0 0 256 256" id="bootstrap" xmlns="http://www.w3.org/2000/svg"><path d="M0 222.991V33.009C0 14.779 14.777 0 33.01 0h189.981C241.221 0 256 14.777 256 33.01v189.981c0 18.23-14.777 33.009-33.01 33.009H33.009C14.779 256 0 241.223 0 222.991zm106.158-109.753V76.985h31.911c3.04 0 5.97.253 8.792.76 2.822.506 5.319 1.41 7.49 2.713 2.17 1.303 3.907 3.112 5.21 5.427 1.302 2.316 1.954 5.283 1.954 8.9 0 6.513-1.954 11.217-5.862 14.111-3.907 2.895-8.9 4.342-14.979 4.342h-34.516zM72.075 50.5v155h75.112c6.947 0 13.713-.868 20.298-2.605 6.585-1.737 12.446-4.414 17.584-8.032 5.137-3.618 9.226-8.286 12.265-14.002 3.04-5.717 4.559-12.483 4.559-20.298 0-9.697-2.352-17.982-7.055-24.856-4.704-6.875-11.832-11.687-21.384-14.437 6.947-3.328 12.194-7.598 15.74-12.808 3.545-5.21 5.318-11.722 5.318-19.538 0-7.236-1.194-13.314-3.582-18.235-2.388-4.92-5.753-8.864-10.095-11.831-4.341-2.967-9.551-5.102-15.63-6.404-6.078-1.303-12.808-1.954-20.189-1.954H72.075zm34.083 128.515v-42.549h37.121c7.381 0 13.315 1.7 17.802 5.102 4.486 3.401 6.73 9.081 6.73 17.041 0 4.053-.688 7.381-2.063 9.986-1.375 2.605-3.22 4.668-5.536 6.187-2.315 1.52-4.993 2.605-8.032 3.257-3.04.65-6.223.976-9.552.976h-36.47z" fill="currentColor" fill-rule="evenodd"/></symbol><symbol viewBox="0 0 918 805" fill="none" id="bun" xmlns="http://www.w3.org/2000/svg"><path d="M819.643 235.584a136.738 136.738 0 0 0-5.8-5.8c-1.972-1.856-3.828-3.944-5.8-5.8-1.972-1.856-3.828-3.944-5.8-5.8-1.972-1.856-3.828-3.944-5.8-5.8-1.972-1.856-3.828-3.944-5.8-5.8-1.972-1.856-3.828-3.944-5.8-5.8-1.972-1.856-3.828-3.944-5.8-5.8a306.937 306.937 0 0 1 91.756 214.136c0 192.212-195.112 348.58-435 348.58-134.328 0-254.504-49.068-334.428-125.976l5.8 5.8 5.8 5.8 5.8 5.8 5.8 5.8 5.8 5.8 5.8 5.8 5.8 5.8C221.779 752.48 344.623 804.1 482.199 804.1c239.888 0 435-156.368 435-348 0-81.896-35.264-159.5-97.556-220.516" fill="#000"/><path d="M841.801 409.12c0 176.436-181.772 319.464-406 319.464s-406-143.028-406-319.464c0-109.388 69.6-206.016 176.552-263.32s173.536-116 229.448-116c55.912 0 103.704 47.908 229.448 116 106.952 57.304 176.552 153.932 176.552 263.32" fill="currentColor"/><path d="M841.8 409.12a251.358 251.358 0 0 0-9.28-67.048c-31.668 386.28-502.86 404.84-688.112 289.304A464 464 0 0 0 435.8 728.584c223.88 0 406-143.26 406-319.464M279.549 124.572c51.852-31.088 120.756-89.436 188.5-89.552a107.77 107.77 0 0 0-32.248-5.22c-28.072 0-58 14.5-95.7 36.308-13.108 7.656-26.68 16.124-41.064 24.94-27.028 16.704-58 35.612-92.8 54.52C95.805 205.308 29.801 303.792 29.801 409.12v13.804c70.296-248.356 198.012-267.264 249.748-298.352" fill="currentColor"/><path fill-rule="evenodd" clip-rule="evenodd" d="M402.392 59.148A190.342 190.342 0 0 1 337.084 203.8c-3.248 2.9-.696 8.468 3.48 6.844 39.092-15.196 91.872-60.668 69.6-152.424-.928-5.22-7.772-3.828-7.772.928m26.332 0A188.385 188.385 0 0 1 447.4 215.4c-1.392 4.06 3.596 7.54 6.38 4.176C479.184 187.096 501.34 122.6 434.988 53c-3.364-3.016-8.584 1.624-6.264 5.684zm32.016-1.972a190.472 190.472 0 0 1 79.46 136.416 3.834 3.834 0 0 0 .734 2.749 3.83 3.83 0 0 0 6.806-1.473c10.672-40.484 4.64-109.504-83.172-145.348-4.64-1.856-7.656 4.408-3.828 7.192zm-214.136 120.64a196.501 196.501 0 0 0 121.452-104.4c2.088-4.176 8.7-2.552 7.656 2.088-20.068 92.8-87.232 112.172-128.992 109.62-4.408.116-4.292-6.032-.116-7.308" fill="currentColor"/><path d="M435.801 757.7c-239.888 0-435-156.368-435-348.58 0-116 71.688-224.228 191.748-289.072 34.8-18.56 64.612-37.236 91.176-53.592 14.616-9.048 28.42-17.516 41.76-25.404C366.201 16.924 401.001.8 435.801.8s65.192 13.92 103.24 36.424c11.6 6.612 23.2 13.804 35.612 21.692 28.884 17.864 61.48 38.048 104.4 61.132 120.06 64.844 191.748 172.956 191.748 289.072 0 192.212-195.112 348.58-435 348.58m0-727.9c-28.072 0-58 14.5-95.7 36.308-13.108 7.656-26.68 16.124-41.064 24.94-27.028 16.704-58 35.612-92.8 54.52C95.805 205.308 29.801 303.792 29.801 409.12c0 176.204 182.12 319.58 406 319.58s406-143.376 406-319.58c0-105.328-66.004-203.812-176.552-263.32-43.848-23.2-78.068-45.008-105.792-62.176-12.644-7.772-24.244-14.964-34.8-21.344-35.148-20.88-60.784-32.48-88.856-32.48" fill="#000"/><path d="M517.581 493.8a103.587 103.587 0 0 1-33.872 54.636 78.998 78.998 0 0 1-46.4 21.808 79.347 79.347 0 0 1-47.908-21.808 103.59 103.59 0 0 1-33.408-54.636 8.361 8.361 0 0 1 2.337-6.973 8.348 8.348 0 0 1 6.943-2.423h143.144a8.355 8.355 0 0 1 8.809 5.67 8.348 8.348 0 0 1 .355 3.726" fill="currentColor"/><path d="M389.401 549.364a80.156 80.156 0 0 0 47.792 22.04 80.159 80.159 0 0 0 47.676-22.04 123.428 123.428 0 0 0 11.6-12.412 79.223 79.223 0 0 0-56.84-26.796 71.34 71.34 0 0 0-58 32.248c2.668 2.436 4.988 4.756 7.772 6.96" fill="currentColor"/><path d="M391.257 540.2a62.167 62.167 0 0 1 48.604-24.128 69.599 69.599 0 0 1 46.4 19.604c2.668-2.9 5.22-5.916 7.656-8.932a81.202 81.202 0 0 0-54.636-22.388 73.78 73.78 0 0 0-56.724 27.376 110.366 110.366 0 0 0 8.7 8.468" fill="#000"/><path d="M436.845 577.204a86.073 86.073 0 0 1-51.62-23.2 110.432 110.432 0 0 1-36.076-58.58 13.926 13.926 0 0 1 3.016-11.6 16.35 16.35 0 0 1 13.108-5.916h143.144a16.716 16.716 0 0 1 13.108 5.916 13.803 13.803 0 0 1 2.9 11.6 110.432 110.432 0 0 1-36.076 58.58 86.071 86.071 0 0 1-51.504 23.2m-71.572-85.84c-1.856 0-2.32.812-2.436 1.044a96.161 96.161 0 0 0 31.668 50.692 72.263 72.263 0 0 0 42.34 20.3 72.85 72.85 0 0 0 42.34-20.068 96.287 96.287 0 0 0 31.552-50.692 2.437 2.437 0 0 0-2.32-1.044z" fill="#000"/><path d="M612.352 500.992c37.478 0 67.86-17.866 67.86-39.904 0-22.038-30.382-39.904-67.86-39.904-37.478 0-67.86 17.866-67.86 39.904 0 22.038 30.382 39.904 67.86 39.904m-351.133 0c37.478 0 67.86-17.866 67.86-39.904 0-22.038-30.382-39.904-67.86-39.904-37.478 0-67.86 17.866-67.86 39.904 0 22.038 30.382 39.904 67.86 39.904" fill="currentColor"/><path fill-rule="evenodd" clip-rule="evenodd" d="M293.12 445.08a63.917 63.917 0 1 0 .234-127.834 63.917 63.917 0 0 0-.234 127.834m287.332 0a63.923 63.923 0 0 0 59.381-39.133 63.914 63.914 0 0 0-13.557-69.812 63.918 63.918 0 0 0-98.471 9.471A63.923 63.923 0 0 0 517 381.164a63.8 63.8 0 0 0 63.452 63.916" fill="#000"/><path fill-rule="evenodd" clip-rule="evenodd" d="M273.4 385.224a24.016 24.016 0 0 0 22.267-14.742 24.019 24.019 0 0 0-5.131-26.208 24.016 24.016 0 0 0-26.182-5.257 24.006 24.006 0 0 0-14.85 22.195 24.013 24.013 0 0 0 23.896 24.012m287.332 0a24.016 24.016 0 0 0 22.267-14.742 24.019 24.019 0 0 0-5.131-26.208 24.016 24.016 0 0 0-26.182-5.257 24.006 24.006 0 0 0-14.85 22.195 24.01 24.01 0 0 0 23.664 24.012z" fill="currentColor"/></symbol><symbol viewBox="0 0 24 24" fill="none" stroke="currentColor" stroke-width="2" stroke-linecap="round" stroke-linejoin="round" class="aefeather aefeather-x" id="close" xmlns="http://www.w3.org/2000/svg"><path d="M18 6 6 18M6 6l12 12"/></symbol><symbol viewBox="0 0 813.184 813.15" id="deno" xmlns="http://www.w3.org/2000/svg"><g fill="currentColor"><path d="M374.575.209c-1.9.2-8 .9-13.5 1.4-78.2 8.2-155.2 41.3-218 93.9-11.6 9.6-38 36-47.6 47.6-52 62.1-82.4 131.8-93.6 214.3-2.5 18.3-2.5 80.1 0 98.4 11.2 82.5 41.6 152.2 93.6 214.3 9.6 11.6 36 38 47.6 47.6 62.1 52 131.8 82.4 214.3 93.6 18.3 2.5 80.1 2.5 98.4 0 82.5-11.2 152.2-41.6 214.3-93.6 11.6-9.6 38-36 47.6-47.6 52-62.1 82.4-131.8 93.6-214.3 2.5-18.3 2.5-80.1 0-98.4-11.2-82.5-41.6-152.2-93.6-214.3-9.6-11.6-36-38-47.6-47.6-61.9-51.8-132.3-82.6-213.7-93.5-8.8-1.2-21.6-1.7-45.3-1.9-18.1-.2-34.6-.1-36.5.1zm5 43.2c0 11.7.8 37.1 1.9 61.2.6 11.8 1.3 28.7 1.6 37.5 1.1 31.2 4.4 113.1 4.9 120.4l.5 7.3-4.5-.5c-2.5-.2-4.8-.8-5.2-1.1-.3-.4-1-7.3-1.4-15.4-1.8-35.6-7.7-173.7-8.3-193.9l-.6-22.2 2.8-.4c1.5-.2 4-.5 5.6-.6l2.7-.1zm95.7-2.4c.1.1.4 30.3.7 67.1.4 36.9.9 70 1.2 73.6.3 3.7.2 6.9-.3 7.1-.4.3-2.9.3-5.4 0l-4.6-.4-.7-29.1c-.4-16.1-.9-33.9-1.1-39.7-.8-17.7-1.5-77.8-.9-79.3.4-1.1 1.5-1.2 5.7-.5 2.9.6 5.3 1.1 5.4 1.2zm-231.3 33.5c.6.9 5.3 56 11.1 128.1 1.9 24.5 3.8 46.9 4.1 49.7.5 5.1.4 5.3-2.8 7.3-1.8 1.1-3.6 2-4 2-.3 0-.9-2.6-1.2-5.8-1.4-13-6.8-75.8-10.6-121.2-2.2-26.7-4.2-50.6-4.5-53.2-.5-4.4-.4-4.8 2.2-6.2 3.2-1.7 5-2 5.7-.7zm275.3 20.1c2.8 1 3.1 1.5 3.7 7.2 1 10 .7 57.8-.4 57.8-2.9 0-8.9-3.4-9.4-5.3-.3-1.2-.6-15.4-.6-31.5 0-32.5-.4-30.6 6.7-28.2zm-184.7 4.7c0 2.7.7 17.6 1.5 33.3s1.7 35.6 2.1 44.2c.7 17.4.9 16.8-5.8 17.2-3.3.1-3.3.1-3.5-4.9-.2-2.8-.7-11.5-1.3-19.5-.5-8-1.7-25.3-2.5-38.5s-1.8-26.3-2.1-29.1c-.6-5-.5-5.2 2.2-6.2 1.6-.6 4.4-1.1 6.2-1.1 3.2-.1 3.2-.1 3.2 4.6zm277.4 13.7 3.4 1.4.7 13.4c.3 7.3.5 23.1.3 35l-.3 21.8-4.2-2.1-4.2-2-.3-33.2c-.2-18.3-.1-33.8.1-34.5.4-1.5.4-1.5 4.5.2zm-182.6 13.1c.6.6 2 49.1 2.1 73.7l.1 14.8-4.7-.7c-2.7-.3-4.9-.6-5-.7-.3-.2-3.3-74.3-3.3-81.5v-7.4l5.1.6c2.9.4 5.4.9 5.7 1.2zm230.3 7.1c1.2 1.4 1.4 23.3 1.7 144.1.3 138.7.3 142.3-1.5 142.3-1.1 0-2.6-.6-3.5-1.3-1.5-1.1-1.7-13.2-2.2-131.7-.4-71.8-.9-137-1.2-144.9l-.6-14.4 2.9 2.1c1.7 1.2 3.6 2.9 4.4 3.8zm-89.7 20.5c.5.4 1 6.1 1.1 12.6.5 22.1.6 157.6.1 158-.2.2-2-.3-4-1.1l-3.6-1.5v-170.1l2.8.6c1.5.4 3.1 1 3.6 1.5zm-276 5.6c.3 2.7.8 8.8 1.1 13.8.3 4.9 1 16.1 1.6 24.8 1.2 17.6 1 18.7-4.7 18.7-3 0-3.4-.3-3.8-3.3-1-5.9-4.5-55.1-4-55.9.5-.7 5.7-2.5 8.1-2.7.6-.1 1.4 2 1.7 4.6zm-165.4 25.5c1.1 10.6 3.3 32.8 4.9 49.3 1.7 16.5 3.1 30.5 3.1 31.1 0 1.2-7.7 5-8.5 4.2-.5-.5-10.5-89-10.5-93 0-2.4 7.7-12.5 8.7-11.4.3.2 1.3 9.1 2.3 19.8zm392.1 10.5 2.9 1.7.1 21.6c.1 11.8.3 25 .3 29.3.2 9-.9 10.5-6.3 8.6l-3.1-1.1v-8.6c0-4.8-.3-18.7-.7-31l-.6-22.2h2.3c1.2 0 3.5.8 5.1 1.7zm-348.2 38.8c1.8 19.2 4.7 51.6 6.6 72l3.4 37-3.9 3.9-3.8 3.9-.7-7.9c-.4-4.4-2.4-24.8-4.5-45.4s-5.1-50.5-6.6-66.4l-2.8-28.8 3.9-3.6c3.5-3.3 3.9-3.4 4.6-1.6.4 1 2.1 17.6 3.8 36.9zm-74.9 12.1c2.2 19.7 8 72.1 13 116.4s9.7 87 10.6 95c.8 8 2.2 20.1 3 27 1.4 11.7 1.4 12.5-.2 13.7-2.4 1.8-3.4 1.6-3.4-.5 0-.9-.9-8.5-2-16.7-1.8-13.7-4.8-36.9-11.5-89-1.4-10.5-4.1-31.4-6-46.5-2-15.1-4.9-37.6-6.5-50s-4.3-33.6-6-47.3c-1.8-13.6-2.9-25.7-2.6-27 .7-2.7 6.6-12.1 7.2-11.5.2.3 2.2 16.6 4.4 36.4zm-30.6 43.1c1.5 12 4.3 33.9 6.2 48.8 1.9 14.8 4.3 33.3 5.4 41l1.9 14-2.1 1.8c-1.2 1-2.4 1.4-2.8 1s-1.2-4.4-1.8-8.8-4.3-30.1-8.3-57l-7.1-49 2.3-6.8c1.2-3.7 2.5-6.7 2.8-6.7.4 0 1.9 9.8 3.5 21.7zm549-13.1c1.4 1.4 1.6 7.6 1.6 53.5v51.9h-2.8c-6.1 0-6 1.5-6.4-55.3l-.3-51.7h3.2c1.7 0 3.9.7 4.7 1.6zm-218.9 17.9c22.6 3.4 42.3 9.7 61.8 19.7 12.6 6.5 18.6 11 32.6 24.4 20.8 19.9 33.6 37.3 45.6 61.9 17.5 35.8 24.3 67.5 32.9 152.5 3.9 38.1 9 107.2 10.1 135.5.3 8.2 1 21.7 1.6 30 1.1 17.6 2.4 15.2-13.1 22.7-21.5 10.4-42.2 17.6-69.5 24.3-33.4 8.2-55 10.8-88 10.9l-24 .1.2-11.5c0-6.3.6-21 1.2-32.5 3-55.7 2.4-126-1.5-165-2.2-22.4-6.5-49.6-8.9-55.6-.5-1.3 1.8-2.4 11.7-5.8 18.1-6.3 33.8-14.2 36.2-18.1 4.3-7.4-3.4-18-13.2-18-1.7 0-6.8 1.8-11.5 3.9-22.4 10.3-67.3 22.4-93.2 25.1-17.9 1.9-45.7.8-65-2.7-10.5-1.9-29.3-9-45-17.1-18.1-9.4-29.2-21.9-32.5-36.7-1.8-8-1.3-24 1-33 2.5-9.9 9.5-24.3 15.9-32.7 28.5-37.5 87.3-70 147.6-81.4 19.2-3.6 46.4-4 67-.9zm308.5 3.1c3.6 1.5 4 1.9 4 5.3.2 27.3-.4 89.7-.9 92.3-.1.9-5.3 1-7.5.2-1.4-.5-1.6-5.9-1.6-50 0-31.6.4-49.4 1-49.4.5 0 2.8.7 5 1.6zm43.7 54.9 3.6 1.5-.7 82.8c-.8 105.5-.9 108.6-4.7 117.7-6.2 14.9-5.9 17.9-5.3-47.5.2-32.7.7-65.8.9-73.5s.4-29.4.5-48.3c0-22.8.3-34.2 1-34.2.6 0 2.7.7 4.7 1.5zm-601.4 24.9c.6 8.1.4 8.9-2.5 15.3l-3.2 6.8-1.2-10c-1.9-16-1.9-16.7 1.9-19.1 1.7-1.2 3.5-2 3.8-1.8s.9 4.2 1.2 8.8zm-61.8 60.3c.9 8.2 7.9 62.6 11.5 89.3 5.4 41.3 5.8 47.2 3.4 44.7-.3-.3-2.6-14.2-5-30.9-15.6-107.8-15.5-107.1-14.2-107.9 2.7-1.8 3.6-.8 4.3 4.8zm72 45.8c.6 2.5 3.5 29.6 3.5 32.9 0 2.8-3.6 5.4-5.2 3.8-.5-.5-1.8-9-2.8-18.8-1.1-9.9-2.2-20.2-2.5-22.9l-.6-5 3.5 4c2 2.2 3.8 4.9 4.1 6zm80.7 37.7c1.1 1 1.8 5 2.7 15.8 1.5 19.5 1.7 18-2.4 18-4.2 0-4.1.3-5.5-17.3-1.4-17.9-1.4-17.7 1.3-17.7 1.3 0 3 .6 3.9 1.2zm79.2 1.5c.2 1 .7 7 1.1 13.3.3 6.3 1.2 20.5 2 31.5 2.8 40.4 2.9 45.5 1.2 45.5-1.9 0-2.1-1.5-4.3-30-.8-11.8-2.3-30.4-3.3-41.3-.9-10.9-1.5-20-1.2-20.2 1.1-1.2 4-.3 4.5 1.2zm-188 19.2c.6.9 4.4 32.9 9.1 76.6 1.4 13.2 2.8 25.9 3.1 28.3l.5 4.3-2.5-1.6c-1.9-1.3-2.6-2.6-2.6-4.9 0-6.3-4.3-47.8-7.6-73.2-1.9-14.4-3.4-27.1-3.4-28.3 0-2.1 2.4-2.9 3.4-1.2zm577.1 41.8-.7 41.8-2.5 3.7c-5.7 8.4-5.4 10-5.1-36.8l.2-42.9 3.7-3.8c2-2 4-3.7 4.4-3.7.3 0 .3 18.8 0 41.7zm-92.5 66.3c.5 58.1.4 62.6-1.2 64.4-1 1.1-1.9 1.8-2.2 1.5-.7-.8-1.7-127.5-.9-128.2.4-.4 1.4-.6 2.3-.5 1.3.3 1.6 7.4 2 62.8zm-326.6-39.8c.7 6.2 3.2 35.9 4.2 49.9.6 9.4.6 9.7-1.6 10.4-1.2.4-2.6.3-3-.2-.7-.7-2.9-22.9-5.6-57.1l-.7-8.2h3.1c2.9 0 3.1.2 3.6 5.2zm-78.6 35c.7.7 1.2 3.2 1.2 5.7 0 2.6 1.2 16.1 2.5 30.1 3.8 38.3 4.1 43.5 2.4 42.5-2.6-1.5-4.9-3.8-4.4-4.4.2-.4-.2-5.4-1-11.1-.7-5.8-1.6-15.2-2-21s-1.3-16.4-2.1-23.5c-1.9-17.5-1.8-19.5.4-19.5 1 0 2.3.5 3 1.2zm47.3 67.3c.3 2.2.9 10.4 1.3 18.2.7 15 .4 16.1-3.7 13-1.2-.9-2-4.7-3.2-16.1-2.1-20.6-2.2-19.8 1.7-19.4 2.9.3 3.3.7 3.9 4.3z"/><path d="M220.975 342.009c-10.4 4.5-11.2 18.6-1.4 23.6 7.1 3.6 14.3 1.9 18-4.3 7-11.4-4.4-24.6-16.6-19.3zm67.8 9.6c-9.6 5.9-9.6 20.1 0 26 9.5 5.7 21.8-1.8 21.8-13.2 0-11-12.6-18.4-21.8-12.8z"/></g></symbol><symbol viewBox="0 0 512 512" id="drakar" xmlns="http://www.w3.org/2000/svg"><g fill="currentColor"><path d="M351.999 415.895c5.891 0 10.656-4.766 10.656-10.656s-4.766-10.672-10.656-10.672-10.672 4.781-10.672 10.672 4.781 10.656 10.672 10.656zm-106.656 0c5.891 0 10.656-4.766 10.656-10.656s-4.766-10.672-10.656-10.672-10.664 4.781-10.664 10.672 4.773 10.656 10.664 10.656zm-106.656.156c5.891 0 10.664-4.766 10.664-10.656s-4.773-10.672-10.664-10.672-10.664 4.781-10.664 10.672 4.773 10.656 10.664 10.656z"/><path d="M485.03 248.566c-5.75-8.391-15.422-13.906-26.375-13.906-17.672 0-32 14.328-32 32s14.328 32 32 32c4.062 0 7.938-.766 11.516-2.156 8.875 31.844-10.141 59.953-91.375 75.703a42.469 42.469 0 0 0-26.797-9.469c-14.312 0-26.953 7.031-34.688 17.844-11.094 1.016-22.906 1.875-35.438 2.594-5.719-9.406-14.938-16.453-25.875-19.266v-36.484c70.156 2.062 125.188 13.531 125.781 13.656l12 2.547.812-11.578c.234-.906.844-2.938 1.375-4.766 5-16.75 18.25-61.297 18.312-111.836.031-28.93-4.312-55.32-12.938-78.445-10.562-28.414-27.688-52.188-50.844-70.664l-2.906-2.32h-91.594v-32c0-5.891-4.766-10.664-10.656-10.664s-10.664 4.773-10.664 10.664v32H63.772l13.11 17.14c19.055 24.914 32 53.156 38.484 83.945 5.227 24.805 6.305 51.352 3.203 78.898-5.32 47.406-21.359 81.734-21.516 82.078l-9.734 20.484 21.992-5.578c36.375-9.219 78.555-13.891 125.367-13.891v36.812c-11.625 3-21.336 10.766-26.906 21.094-11.367-.141-22.086-.484-32.195-1.016-7.383-12.703-21.133-21.25-36.891-21.25-12.398 0-23.562 5.281-31.352 13.734-51.703-9.312-76.547-23.922-89.258-32.188 0 0-.016 0-.023-.016a10.608 10.608 0 0 0-7.352-2.953c-5.891 0-10.672 4.781-10.672 10.672-.75 29.5 13 110.844 42.43 138.656h384.43s74.641-44.719 84.125-136.656c5.923-57.372-16.421-93.044-25.984-105.419zm-26.375 28.75c-5.875 0-10.672-4.781-10.672-10.656s4.797-10.656 10.672-10.656 10.656 4.781 10.656 10.656-4.781 10.656-10.656 10.656zm-106.656 106.75c11.75 0 21.328 9.562 21.328 21.328s-9.578 21.328-21.328 21.328c-11.766 0-21.344-9.562-21.344-21.328s9.578-21.328 21.344-21.328zM136.335 161.152c-5.68-27.211-15.938-52.633-30.57-75.805h234.281c35.172 29.547 52.969 73.281 52.891 130.078-.047 44.828-11.312 85.141-16.562 102.906-21.703-3.938-76.719-12.562-141.672-12.562-40.32 0-77.445 3.359-110.68 10.031 5.445-15.641 12.344-39.734 15.664-68.672 3.437-29.921 2.304-58.843-3.352-85.976zM245.343 383.91c11.75 0 21.328 9.562 21.328 21.328 0 11.75-9.578 21.328-21.328 21.328-11.766 0-21.336-9.578-21.336-21.328 0-11.765 9.57-21.328 21.336-21.328zm-106.656.156c11.758 0 21.328 9.562 21.328 21.328s-9.57 21.328-21.328 21.328c-11.766 0-21.328-9.562-21.328-21.328s9.562-21.328 21.328-21.328zm351.109-32.281a158.074 158.074 0 0 1-14.703 52.188c-6.406 13.312-14.734 25.984-24.781 37.656-12.031 13.969-23.75 23.234-29.938 27.672H52.085c-7.953-10.922-15.578-29.484-21.492-52.625-4.062-15.938-6.789-32.125-8.18-45.094 11.625 6.109 26.945 12.625 48.109 18.453 8.359 2.312 17.203 4.375 26.5 6.188-.648 2.953-1 6.016-1 9.172 0 23.562 19.102 42.656 42.664 42.656 23.484 0 42.539-18.984 42.656-42.438 6.969.297 14.094.516 21.359.656.547 23.078 19.422 41.625 42.641 41.625 23.562 0 42.656-19.094 42.656-42.656 0-.359-.016-.703-.031-1.047 7.375-.453 14.531-.953 21.469-1.516a39.477 39.477 0 0 0-.094 2.719c0 23.562 19.094 42.656 42.656 42.656s42.656-19.094 42.656-42.656c0-4.969-.844-9.734-2.406-14.172 8.688-1.891 16.812-3.969 24.344-6.234 36.219-10.875 59.125-26.172 70.031-46.781 1.594-3 2.906-6.094 3.938-9.25.297 7.406.047 15.016-.765 22.828z"/></g></symbol><symbol viewBox="-0.022 -55.714 30.073 30" id="email" xmlns="http://www.w3.org/2000/svg"><path d="M29.531-55.53c.369.268.52.625.452 1.071l-4.285 25.715c-.056.323-.235.574-.536.753-.156.09-.33.134-.52.134-.122 0-.256-.028-.4-.084l-7.585-3.097-4.051 4.939c-.2.256-.474.385-.82.385a.905.905 0 0 1-.369-.067 1.05 1.05 0 0 1-.51-.394 1.045 1.045 0 0 1-.193-.61v-5.843l14.465-17.73L7.282-34.871.67-37.584c-.413-.156-.637-.463-.67-.92-.022-.447.156-.776.536-.988l27.857-16.072c.167-.1.346-.15.536-.15.223 0 .424.061.602.184Zm0 0" fill="currentColor"/></symbol><symbol viewBox="0 0 24 24" id="film" xmlns="http://www.w3.org/2000/svg"><path d="M1.75 24C.785 24 0 23.215 0 22.25V4.75C0 3.785.785 3 1.75 3h2V1.75C3.75.785 4.535 0 5.5 0H8c.965 0 1.75.785 1.75 1.75V3h2c.88 0 1.611.653 1.732 1.5h8.268A2.252 2.252 0 0 1 24 6.75v3.75a2.252 2.252 0 0 1-2.25 2.25A3.754 3.754 0 0 0 18 16.5v3.75a2.252 2.252 0 0 1-2.25 2.25h-2.268A1.752 1.752 0 0 1 11.75 24h-10zm10-1.5a.25.25 0 0 0 .25-.25v-14H5.25V22.5h6.5zM1.5 22.25c0 .138.112.25.25.25h2V8.25H1.5v14zM15.75 21a.75.75 0 0 0 .75-.75V16.5a5.256 5.256 0 0 1 5.25-5.25.75.75 0 0 0 .75-.75V6.75a.75.75 0 0 0-.75-.75H13.5v15h2.25zM12 6.75v-2a.25.25 0 0 0-.25-.25h-10a.25.25 0 0 0-.25.25v2H12zM8.25 3V1.75A.25.25 0 0 0 8 1.5H5.5a.25.25 0 0 0-.25.25V3h3z" fill="currentColor"/><circle cx="16.125" cy="8.625" r="1.125" fill="currentColor"/><circle cx="19.875" cy="8.625" r="1.125" fill="currentColor"/></symbol><symbol viewBox="-10 -10 120 120" id="fullscreen" xmlns="http://www.w3.org/2000/svg"><path d="m10.102 15.5 24.102 24.102c1.5 1.5 3.898 1.5 5.398 0s1.5-3.898 0-5.398L15.5 10.102h13.102c2.102 0 3.801-1.7 3.801-3.801a3.797 3.797 0 0 0-3.8-3.801H6.3c-2.101 0-3.8 1.7-3.8 3.8v22.2c0 1.8 1.199 3.5 3.101 3.898 2.399.5 4.602-1.398 4.602-3.699zm18.5 74.398H15.5l24.102-24.102c1.5-1.5 1.5-3.898 0-5.398s-3.898-1.5-5.398 0L10.102 84.5V71.398c0-2.399-2.102-4.2-4.602-3.7-1.8.301-3.102 2-3.102 3.899v22.199c0 2.101 1.7 3.8 3.801 3.8h22.2c1.8 0 3.5-1.199 3.898-3.101.504-2.496-1.297-4.598-3.696-4.598zm42.796-79.796H84.5L60.398 34.204c-1.5 1.5-1.5 3.898 0 5.398s3.898 1.5 5.398 0L89.898 15.5v13.102c0 2.102 1.7 3.801 3.801 3.801a3.797 3.797 0 0 0 3.801-3.8V6.3c0-2.101-1.7-3.8-3.8-3.8H71.5c-1.8 0-3.5 1.199-3.898 3.101a3.825 3.825 0 0 0 3.797 4.5zM97.5 93.699V71.398c0-2.102-1.7-3.8-3.8-3.8a3.797 3.797 0 0 0-3.802 3.8V84.5L65.796 60.398c-1.5-1.5-3.898-1.5-5.398 0s-1.5 3.898 0 5.398L84.5 89.898H71.398c-2.102 0-3.8 1.7-3.8 3.801a3.797 3.797 0 0 0 3.8 3.801h22.301c2.102 0 3.8-1.7 3.8-3.8z"/></symbol><symbol viewBox="0 0 256 256" preserveAspectRatio="xMidYMid" id="gatsby" xmlns="http://www.w3.org/2000/svg"><path d="M128 0C57.308 0 0 57.307 0 128s57.308 128 128 128c70.693 0 128-57.307 128-128S198.693 0 128 0zM27.504 129.334l99.161 99.162c-54.45-.71-98.452-44.71-99.161-99.162zm122.992 96.65-120.48-120.48C40.234 60.824 80.223 27.487 128 27.487c33.397 0 62.985 16.293 81.263 41.36l-13.917 12.279C180.52 59.864 155.886 45.949 128 45.949c-35.505 0-65.74 22.552-77.169 54.113L155.94 205.169c25.525-9.243 45.156-30.79 51.73-57.477h-43.566V128h64.41c0 47.778-33.336 87.767-78.017 97.983z" fill="currentColor"/></symbol><symbol viewBox="0 0 256 256" preserveAspectRatio="xMidYMid" id="git" xmlns="http://www.w3.org/2000/svg"><path d="M251.172 116.594 139.4 4.828c-6.433-6.437-16.873-6.437-23.314 0l-23.21 23.21 29.443 29.443c6.842-2.312 14.688-.761 20.142 4.693 5.48 5.489 7.02 13.402 4.652 20.266l28.375 28.376c6.865-2.365 14.786-.835 20.269 4.657 7.663 7.66 7.663 20.075 0 27.74-7.665 7.666-20.08 7.666-27.749 0-5.764-5.77-7.188-14.235-4.27-21.336l-26.462-26.462-.003 69.637a19.82 19.82 0 0 1 5.188 3.71c7.663 7.66 7.663 20.076 0 27.747-7.665 7.662-20.086 7.662-27.74 0-7.663-7.671-7.663-20.086 0-27.746a19.654 19.654 0 0 1 6.421-4.281V94.196a19.378 19.378 0 0 1-6.421-4.281c-5.806-5.798-7.202-14.317-4.227-21.446L81.47 39.442 4.83 116.077c-6.44 6.443-6.44 16.884 0 23.322l111.774 111.768c6.435 6.438 16.873 6.438 23.316 0l111.251-111.249c6.438-6.44 6.438-16.887 0-23.324" fill="currentColor"/></symbol><symbol viewBox="0 0 256 250" preserveAspectRatio="xMidYMid" id="github" xmlns="http://www.w3.org/2000/svg"><path d="M128.001 0C57.317 0 0 57.307 0 128.001c0 56.554 36.676 104.535 87.535 121.46 6.397 1.185 8.746-2.777 8.746-6.158 0-3.052-.12-13.135-.174-23.83-35.61 7.742-43.124-15.103-43.124-15.103-5.823-14.795-14.213-18.73-14.213-18.73-11.613-7.944.876-7.78.876-7.78 12.853.902 19.621 13.19 19.621 13.19 11.417 19.568 29.945 13.911 37.249 10.64 1.149-8.272 4.466-13.92 8.127-17.116-28.431-3.236-58.318-14.212-58.318-63.258 0-13.975 5-25.394 13.188-34.358-1.329-3.224-5.71-16.242 1.24-33.874 0 0 10.749-3.44 35.21 13.121 10.21-2.836 21.16-4.258 32.038-4.307 10.878.049 21.837 1.47 32.066 4.307 24.431-16.56 35.165-13.12 35.165-13.12 6.967 17.63 2.584 30.65 1.255 33.873 8.207 8.964 13.173 20.383 13.173 34.358 0 49.163-29.944 59.988-58.447 63.157 4.591 3.972 8.682 11.762 8.682 23.704 0 17.126-.148 30.91-.148 35.126 0 3.407 2.304 7.398 8.792 6.14C219.37 232.5 256 184.537 256 128.002 256 57.307 198.691 0 128.001 0zm-80.06 182.34c-.282.636-1.283.827-2.194.39-.929-.417-1.45-1.284-1.15-1.922.276-.655 1.279-.838 2.205-.399.93.418 1.46 1.293 1.139 1.931zm6.296 5.618c-.61.566-1.804.303-2.614-.591-.837-.892-.994-2.086-.375-2.66.63-.566 1.787-.301 2.626.591.838.903 1 2.088.363 2.66zm4.32 7.188c-.785.545-2.067.034-2.86-1.104-.784-1.138-.784-2.503.017-3.05.795-.547 2.058-.055 2.861 1.075.782 1.157.782 2.522-.019 3.08zm7.304 8.325c-.701.774-2.196.566-3.29-.49-1.119-1.032-1.43-2.496-.726-3.27.71-.776 2.213-.558 3.315.49 1.11 1.03 1.45 2.505.701 3.27zm9.442 2.81c-.31 1.003-1.75 1.459-3.199 1.033-1.448-.439-2.395-1.613-2.103-2.626.301-1.01 1.747-1.484 3.207-1.028 1.446.436 2.396 1.602 2.095 2.622zm10.744 1.193c.036 1.055-1.193 1.93-2.715 1.95-1.53.034-2.769-.82-2.786-1.86 0-1.065 1.202-1.932 2.733-1.958 1.522-.03 2.768.818 2.768 1.868zm10.555-.405c.182 1.03-.875 2.088-2.387 2.37-1.485.271-2.861-.365-3.05-1.386-.184-1.056.893-2.114 2.376-2.387 1.514-.263 2.868.356 3.061 1.403z" fill="currentColor"/></symbol><symbol viewBox="0 0 256 288" preserveAspectRatio="xMidYMid" id="graphql" xmlns="http://www.w3.org/2000/svg"><path d="m152.576 32.963 59.146 34.15a25.819 25.819 0 0 1 5.818-4.604c12.266-7.052 27.912-2.865 35.037 9.402 7.052 12.267 2.865 27.912-9.402 35.037a25.698 25.698 0 0 1-6.831 2.72v68.325a25.7 25.7 0 0 1 6.758 2.702c12.34 7.125 16.527 22.771 9.402 35.038-7.052 12.266-22.771 16.453-35.038 9.402a25.464 25.464 0 0 1-6.34-5.147l-58.786 33.94a25.671 25.671 0 0 1 1.295 8.08c0 14.103-11.458 25.636-25.635 25.636-14.177 0-25.635-11.46-25.635-25.636 0-2.52.362-4.954 1.037-7.253l-59.13-34.14a25.824 25.824 0 0 1-5.738 4.52c-12.34 7.051-27.986 2.864-35.038-9.402-7.051-12.267-2.864-27.913 9.402-35.038a25.71 25.71 0 0 1 6.758-2.703v-68.324a25.698 25.698 0 0 1-6.831-2.72C.558 99.897-3.629 84.178 3.423 71.911c7.052-12.267 22.77-16.454 35.037-9.402a25.82 25.82 0 0 1 5.79 4.575l59.163-34.159a25.707 25.707 0 0 1-1.048-7.29C102.365 11.46 113.823 0 128 0c14.177 0 25.635 11.459 25.635 25.635 0 2.548-.37 5.007-1.059 7.328zm-6.162 10.522 59.287 34.23a25.599 25.599 0 0 0 2.437 19.831c3.609 6.278 9.488 10.44 16.013 12.062v68.41c-.333.081-.664.17-.993.264L145.725 44.17c.234-.224.464-.452.689-.684zm-36.123.7-77.432 134.11a25.824 25.824 0 0 0-1.01-.27v-68.417c6.525-1.622 12.404-5.784 16.013-12.062a25.6 25.6 0 0 0 2.427-19.869l59.27-34.22c.239.247.483.49.732.727zm24.872 6.075 77.414 134.08a25.492 25.492 0 0 0-4.513 5.757 25.7 25.7 0 0 0-2.702 6.758H50.64a25.71 25.71 0 0 0-2.704-6.758 25.825 25.825 0 0 0-4.506-5.724l77.429-134.107A25.715 25.715 0 0 0 128 51.27c2.487 0 4.89-.352 7.163-1.01zm11.795 194.478 58.902-34.008a25.865 25.865 0 0 1-.473-1.682H50.607a25.87 25.87 0 0 1-.266.992l59.19 34.175A25.558 25.558 0 0 1 128 236.373a25.564 25.564 0 0 1 18.958 8.365z" fill="currentColor" fill-rule="evenodd"/></symbol><symbol viewBox="0 0 256 566" preserveAspectRatio="xMidYMid" id="gulp" xmlns="http://www.w3.org/2000/svg"><path d="m197.28 548.749 5.427-90.43 14.985-25.58s-34.106 13.952-91.205 13.952c-57.1 0-90.689-13.694-90.689-13.694l16.794 27.904 5.941 87.848c0 9.418 31.059 17.052 69.374 17.052 38.313 0 69.373-7.634 69.373-17.052m-17.119-422.295 11.391-45.025 63.081-66.376L238.007.892l-66.784 70.707-13.226 53.793a886.14 886.14 0 0 0-29.873-.497c-70.336 0-127.355 8.016-127.355 17.902 0 9.887 57.019 17.902 127.355 17.902 70.335 0 127.353-8.015 127.353-17.902 0-7.28-30.924-13.546-75.316-16.343" fill="currentColor"/><path d="M173.535 151.669s-2.467.553-9.724.584c-7.259.03-12.413-.047-14.466-1.917-.552-.502-.854-1.499-.851-2.174.006-1.285.918-2.042 2.08-2.516l1.099 1.724c-.478.165-.751.36-.752.568-.004.976 7.422 1.644 13.102 1.572 5.681-.07 12.545-.538 12.551-1.5 0-.291-.519-.565-1.422-.781l1.094-1.712c1.472.457 2.757 1.34 2.754 2.868-.014 2.598-3.32 2.993-5.465 3.284" fill="#FFF"/><path d="M254.509 15.184c1.586-1.832-.821-6.518-5.376-10.465C244.576.774 239.596-.94 238.007.892c-1.587 1.832.821 6.518 5.378 10.463 4.555 3.946 9.537 5.662 11.124 3.829m-60.263 312.681c-1.495-14.384 31.462-35.216 23.004-35.883-18.208 1.041-27.27 21.338-36.431 42.596-3.357 7.791-14.844 41.013-22.378 36.923-7.532-4.088 9.765-31.407 14.613-47.631-5.594 4.102-26.109 20.041-31.396 5.114-8.5 7.219-26.663 11.13-24.614-7.833-4.522 8.01-14.671 19.193-26.853 14.546-15.998-6.101 9.27-57.062 15.553-54.491 6.284 2.57-1.268 14.179-3.246 18.687-4.35 9.921-9.375 22.393-6.018 24.946 5.751 4.374 21.401-16.547 21.749-17.007 2.927-3.867 11.266-29.166 17.987-26.261 6.721 2.905-16.764 36.308-7.983 42.937 1.771 1.338 9.017-.825 13.425-5.594 2.852-3.085 1.871-9.918 11.378-32.59 9.507-22.671 17.98-50.905 24.5-48.754 6.52 2.15 1.146 16.641-1.193 22.043-10.976 25.354-29.956 67.241-21.005 64.07 8.951-3.17 13.612-3.356 22.377-13.613 8.765-10.257 8.361-27.152 14.203-26.793 5.844.36 4.863 5.777 3.446 9.902 5.75-6.58 27.256-20.438 32.448-6.713 6.15 16.249-30.769 39.72-21.564 38.523 8.975-1.167 23.515-10.376 29.723-18.749l17.088-153.626s-17.195 14.23-126.589 14.23c-109.395 0-124.811-13.934-124.811-13.934l14.548 140.224c7.722-21.947 26.059-66.339 54.963-64.849 13.148.678 30.7 25.995 15.665 26.853-6.364.362-7.01-12.637-14.546-14.546-5.438-1.378-13.009 3.043-17.902 7.833-9.758 9.55-30.745 47.229-27.972 66.014 3.533 23.949 33.048-8.322 38.042-17.903 3.517-6.749 5.893-26.745 13.585-24.647 7.693 2.098-.671 22.734-6.247 40.979-6.264 20.487-9.557 42.098-17.408 39.612-7.852-2.484 4.938-28.932 4.475-33.566-7.38 6.809-20.976 24.047-38.37 15.515l9.035 87.078s24.013 18.973 96.35 18.973c72.337 0 97.239-18.677 97.239-18.677l11.219-100.857c-9.179 8.938-38.229 24.81-40.089 6.919" fill="currentColor"/></symbol><symbol viewBox="0 0 512 512" id="igloo" xmlns="http://www.w3.org/2000/svg"><g fill="currentColor"><path d="M213.34 373.348c5.891 0 10.664-4.781 10.664-10.688 0-5.875-4.773-10.656-10.664-10.656s-10.672 4.781-10.672 10.656c0 5.906 4.781 10.688 10.672 10.688z"/><path d="M255.996 53.34C114.621 53.34.004 167.949.004 309.348V458.66h511.992V309.348c0-141.399-114.609-256.008-256-256.008zm216.25 164.664a232.577 232.577 0 0 1 9.594 27.344h-65.844v-42.68h49.094a240.748 240.748 0 0 1 7.156 15.336zm-216.25 48.656c22.812 0 44.219 8.875 60.344 25s25 37.547 25 60.344v85.344H170.668v-85.344c0-22.797 8.883-44.219 24.992-60.344 16.125-16.125 37.547-25 60.336-25zm-11.469-21.312H117.34v-42.68h127.188v42.68zm-52.531 21.312a106.994 106.994 0 0 0-33.773 42.688H64.004V266.66h127.992zm-75.469 64h34.945a107.397 107.397 0 0 0-2.133 21.344v21.344h-32.812V330.66zm244 0h33.344v42.688h-31.203v-21.344c0-7.313-.734-14.438-2.141-21.344zm-6.75-21.312c-7.406-17-19.125-31.688-33.766-42.688h127.984v42.688h-94.218zm-87.906-64v-42.68h128.797v42.68H265.871zm156.063-101.946a234.516 234.516 0 0 1 30.797 37.938H341.34v-42.672h75.719a217.459 217.459 0 0 1 4.875 4.734zM265.871 74.887c28.188 1.156 55.562 7.258 81.469 18.219a233.662 233.662 0 0 1 43.656 24.234H265.871V74.887zm54.125 63.781v42.672H192.004v-42.672h127.992zM164.668 93.105c25.414-10.75 52.227-16.836 79.859-18.156v42.391H121.02a233.657 233.657 0 0 1 43.648-24.235zm-74.602 50.297a249.646 249.646 0 0 1 4.883-4.734h75.719v42.672H59.277a235.847 235.847 0 0 1 30.789-37.938zM39.77 218.004a235.74 235.74 0 0 1 7.141-15.336h49.094v42.68H30.16a232.422 232.422 0 0 1 9.61-27.344zM25.207 266.66h17.461v42.688H21.34c0-14.469 1.305-28.719 3.867-42.688zm-3.867 64h73.852v42.688H21.34V330.66zm21.328 106.688H21.34V394.66h21.328v42.688zm21.336 0V394.66h85.336v42.688H64.004zm383.992 0h-85.328V394.66h85.328v42.688zm42.672 0H469.34V394.66h21.328v42.688zm0-64h-75.484V330.66h75.484v42.688zm-21.328-64V266.66h17.469a236.322 236.322 0 0 1 3.859 42.688H469.34z"/></g></symbol><symbol viewBox="0 -49.286 25.714 25.714" id="instagram" xmlns="http://www.w3.org/2000/svg"><path fill="currentColor" d="M17.143-36.429c0-1.183-.419-2.193-1.256-3.03-.837-.837-1.847-1.255-3.03-1.255-1.183 0-2.193.418-3.03 1.255-.837.837-1.256 1.847-1.256 3.03 0 1.183.419 2.194 1.256 3.03.837.838 1.847 1.256 3.03 1.256 1.183 0 2.193-.418 3.03-1.255.837-.837 1.256-1.848 1.256-3.03zm2.31 0c0 1.83-.642 3.388-1.925 4.671-1.284 1.284-2.84 1.925-4.67 1.925-1.831 0-3.388-.641-4.672-1.925-1.283-1.283-1.925-2.84-1.925-4.67s.642-3.388 1.925-4.671c1.284-1.284 2.84-1.926 4.671-1.926 1.83 0 3.387.642 4.67 1.926 1.284 1.283 1.926 2.84 1.926 4.67zm1.808-6.863c0 .424-.15.786-.452 1.088a1.483 1.483 0 0 1-1.088.452 1.48 1.48 0 0 1-1.088-.452 1.483 1.483 0 0 1-.452-1.088c0-.425.15-.787.452-1.089a1.483 1.483 0 0 1 1.088-.452c.424 0 .787.151 1.088.452.301.302.452.664.452 1.089zm-8.404-3.683-1.28-.009a90.826 90.826 0 0 0-1.767 0c-.402.006-.94.023-1.615.05a13.25 13.25 0 0 0-1.725.168 6.712 6.712 0 0 0-1.197.31 4.343 4.343 0 0 0-1.473.97 4.343 4.343 0 0 0-.97 1.474 6.712 6.712 0 0 0-.31 1.197c-.084.474-.14 1.049-.168 1.724a62.023 62.023 0 0 0-.05 1.616c-.006.401-.006.99 0 1.766l.008 1.28-.008 1.281a90.826 90.826 0 0 0 0 1.766c.005.402.022.94.05 1.616.028.675.084 1.25.168 1.724.083.474.186.873.31 1.197.222.558.546 1.05.97 1.473a4.34 4.34 0 0 0 1.473.971c.324.123.723.226 1.197.31.475.084 1.05.14 1.725.167.675.028 1.213.045 1.615.05.402.006.99.006 1.766 0l1.281-.008 1.28.009c.777.005 1.365.005 1.767 0 .402-.006.94-.023 1.616-.05.675-.028 1.25-.084 1.724-.168a6.712 6.712 0 0 0 1.197-.31 4.343 4.343 0 0 0 1.473-.97c.424-.425.748-.916.971-1.474.123-.324.226-.723.31-1.197.083-.474.14-1.049.167-1.724.028-.675.045-1.214.05-1.616.006-.401.006-.99 0-1.766l-.008-1.28.008-1.281a90.81 90.81 0 0 0 0-1.766c-.005-.402-.022-.94-.05-1.616a13.267 13.267 0 0 0-.167-1.724 6.712 6.712 0 0 0-.31-1.197 4.343 4.343 0 0 0-.97-1.473 4.343 4.343 0 0 0-1.474-.971 6.712 6.712 0 0 0-1.197-.31c-.474-.084-1.05-.14-1.724-.168a62.018 62.018 0 0 0-1.616-.05c-.402-.005-.99-.005-1.766 0l-1.28.009zM25.714-36.43c0 2.556-.028 4.325-.083 5.307-.112 2.322-.804 4.119-2.076 5.391-1.273 1.272-3.07 1.964-5.39 2.076-.983.056-2.752.084-5.308.084s-4.325-.028-5.307-.084c-2.321-.112-4.118-.804-5.39-2.076-1.273-1.272-1.965-3.07-2.076-5.39C.028-32.105 0-33.874 0-36.43c0-2.555.028-4.324.084-5.306.111-2.322.803-4.119 2.076-5.391 1.272-1.272 3.069-1.964 5.39-2.076.982-.056 2.751-.084 5.307-.084 2.556 0 4.325.028 5.307.084 2.321.112 4.118.804 5.39 2.076 1.273 1.272 1.965 3.07 2.077 5.39.055.983.083 2.752.083 5.307zm0 0"/></symbol><symbol viewBox="0 0 256 256" preserveAspectRatio="xMidYMid" id="ionic" xmlns="http://www.w3.org/2000/svg"><path d="M234.651 39.322a17.87 17.87 0 0 1-4.406 11.76C246.406 72.512 256 99.155 256 128.001c0 70.578-57.42 128-128 128-70.579 0-128-57.422-128-128C0 57.42 57.42 0 128 0c28.845 0 55.487 9.594 76.917 25.756 3.155-2.738 7.257-4.405 11.761-4.405 9.924 0 17.973 8.044 17.973 17.97zM128 251.695c68.206 0 123.694-55.491 123.691-123.697 0-27.736-9.175-53.362-24.648-74.016a17.872 17.872 0 0 1-10.366 3.307c-9.924 0-17.97-8.044-17.97-17.969 0-3.865 1.23-7.437 3.306-10.368C181.359 13.479 155.733 4.304 128 4.304 59.796 4.304 4.305 59.795 4.305 127.999c0 68.205 55.491 123.696 123.695 123.696zm.002-71.435c-28.863 0-52.261-23.398-52.261-52.26 0-28.864 23.398-52.262 52.26-52.262 28.864 0 52.262 23.398 52.262 52.261 0 28.863-23.398 52.261-52.261 52.261z" fill="currentColor"/></symbol><symbol viewBox="0 0 24 24" fill="none" stroke="currentColor" stroke-width="2" stroke-linecap="round" stroke-linejoin="round" class="asfeather asfeather-chevron-left" id="left" xmlns="http://www.w3.org/2000/svg"><path d="m15 18-6-6 6-6"/></symbol><symbol viewBox="0 -47.813 25.714 24.576" id="linkedin" xmlns="http://www.w3.org/2000/svg"><path fill="currentColor" d="M5.843-39.827v16.59H.318v-16.59zm.351-5.123c.011.815-.27 1.496-.845 2.043-.575.547-1.331.82-2.269.82h-.033c-.915 0-1.652-.273-2.21-.82C.28-43.454 0-44.135 0-44.95c0-.826.287-1.51.862-2.05.575-.542 1.325-.813 2.252-.813.926 0 1.668.271 2.226.812.558.542.843 1.225.854 2.051zm19.52 12.204v9.51h-5.508v-8.873c0-1.172-.226-2.09-.678-2.754-.452-.664-1.157-.996-2.117-.996-.703 0-1.292.192-1.766.577a3.56 3.56 0 0 0-1.064 1.432c-.122.334-.184.786-.184 1.356v9.257H8.89c.022-4.453.033-8.063.033-10.831 0-2.768-.006-4.42-.017-4.955l-.016-.804h5.507v2.41h-.033c.223-.356.452-.669.686-.937.235-.268.55-.558.946-.87.396-.313.882-.556 1.457-.729a6.636 6.636 0 0 1 1.916-.26c1.909 0 3.444.634 4.604 1.901 1.16 1.267 1.741 3.122 1.741 5.566zm0 0"/></symbol><symbol viewBox="0 0 256 256" preserveAspectRatio="xMidYMid" id="medium" xmlns="http://www.w3.org/2000/svg"><path fill="currentColor" d="M0 0h256v256H0z"/><path d="M61.09 85.617a6.661 6.661 0 0 0-2.167-5.62L42.865 60.655v-2.89h49.86l38.539 84.52 33.882-84.52h47.53v2.89l-13.729 13.163a4.013 4.013 0 0 0-1.525 3.853v96.721a4.013 4.013 0 0 0 1.525 3.853l13.409 13.164v2.89h-67.443v-2.89l13.89-13.485c1.365-1.364 1.365-1.766 1.365-3.853V95.89l-38.62 98.086h-5.218L71.368 95.891v65.738a9.069 9.069 0 0 0 2.489 7.545l18.065 21.913v2.89H40.697v-2.89l18.066-21.913a8.747 8.747 0 0 0 2.328-7.545V85.617z" fill="#FFF"/></symbol><symbol viewBox="0 0 32 32" id="mongodb" xmlns="http://www.w3.org/2000/svg"><path fill="currentColor" d="M22.797 14.562a13.663 13.663 0 0 0-.407-2.297c-.625-2.369-1.666-4.637-3.134-6.603a16.58 16.58 0 0 0-1.294-1.532c-.476-.499-1.004-.957-1.336-1.578-.21-.393-.41-.791-.614-1.187-.003.124-.011.248-.011.371 0-.124.009-.248.011-.372l-.13-.327c-.022.075-.036.101-.036.129-.017.645-.383 1.083-.838 1.492-.512.46-.989.959-1.481 1.441.017.022.036.044.055.066-.019-.022-.038-.043-.055-.066-1.463 1.924-2.752 3.981-3.511 6.29a14.691 14.691 0 0 0-.517 2.056c-.259 1.481-.379 2.92-.296 4.42.046.829.191 1.645.407 2.448.785 2.917 2.379 5.336 4.558 7.392.405.382.842.729 1.265 1.093l.003-.011-.003.011.187.642.174.996.083 1.039c-.001.211-.01.423.003.633.003.054.074.104.113.156l.004-.006-.004.006.353.124.367.143a322.63 322.63 0 0 0-.063-.924l-.003-.91-.021.021.021-.021.127-1.386.092-.302.263-.467c.325-.262.674-.499.971-.79.536-.527 1.071-1.06 1.55-1.637a12.294 12.294 0 0 0 1.588-2.441c1.223-2.491 1.789-5.269 1.564-8.039l-.006-.074z"/></symbol><symbol viewBox="0 0 512 512" id="next" xmlns="http://www.w3.org/2000/svg"><path d="M386.399 35.508C217.06-64.061 1.885 57.55.012 253.882c-1.828 191.716 201.063 315.545 370.02 231.163L185.56 213.636v167.997c0 18.614-35.619 18.614-35.619 0V156.421c0-14.776 27.448-15.989 35.226-3.145L395.43 470.572c157.95-101.737 155.817-338.136-9.031-435.064zm-23.756 317.939L326.91 298.87V149.458c0-13.932 35.732-13.932 35.732 0v203.989z" fill="currentColor"/></symbol><symbol viewBox="0 0 256 289" preserveAspectRatio="xMidYMid" id="nodejs" xmlns="http://www.w3.org/2000/svg"><path d="M128 288.464c-3.975 0-7.685-1.06-11.13-2.915l-35.247-20.936c-5.3-2.915-2.65-3.975-1.06-4.505 7.155-2.385 8.48-2.915 15.9-7.156.796-.53 1.856-.265 2.65.265l27.032 16.166c1.06.53 2.385.53 3.18 0l105.74-61.217c1.06-.53 1.59-1.59 1.59-2.915V83.08c0-1.325-.53-2.385-1.59-2.915l-105.74-60.953c-1.06-.53-2.385-.53-3.18 0L20.405 80.166c-1.06.53-1.59 1.855-1.59 2.915v122.17c0 1.06.53 2.385 1.59 2.915l28.887 16.695c15.636 7.95 25.44-1.325 25.44-10.6V93.68c0-1.59 1.326-3.18 3.181-3.18h13.516c1.59 0 3.18 1.325 3.18 3.18v120.58c0 20.936-11.396 33.126-31.272 33.126-6.095 0-10.865 0-24.38-6.625l-27.827-15.9C4.24 220.885 0 213.465 0 205.515V83.346C0 75.396 4.24 67.976 11.13 64L116.87 2.783c6.625-3.71 15.635-3.71 22.26 0L244.87 64C251.76 67.975 256 75.395 256 83.346v122.17c0 7.95-4.24 15.37-11.13 19.345L139.13 286.08c-3.445 1.59-7.42 2.385-11.13 2.385zm32.596-84.009c-46.377 0-55.917-21.2-55.917-39.221 0-1.59 1.325-3.18 3.18-3.18h13.78c1.59 0 2.916 1.06 2.916 2.65 2.12 14.045 8.215 20.936 36.306 20.936 22.261 0 31.802-5.035 31.802-16.96 0-6.891-2.65-11.926-37.367-15.372-28.886-2.915-46.907-9.275-46.907-32.33 0-21.467 18.02-34.187 48.232-34.187 33.921 0 50.617 11.66 52.737 37.101 0 .795-.265 1.59-.795 2.385-.53.53-1.325 1.06-2.12 1.06h-13.78c-1.326 0-2.65-1.06-2.916-2.385-3.18-14.575-11.395-19.345-33.126-19.345-24.38 0-27.296 8.48-27.296 14.84 0 7.686 3.445 10.07 36.306 14.31 32.597 4.24 47.967 10.336 47.967 33.127-.265 23.321-19.345 36.571-53.002 36.571z" fill="currentColor"/></symbol><symbol viewBox="0 0 256 100" id="npm" xmlns="http://www.w3.org/2000/svg"><path d="M0 0h256v85.498H128V99.83H71.166V85.498H0V0zm42.502 14.332h-28.17v56.834h28.17V28.664h14.332v42.502h14.332V14.332H42.502zm42.996 0v71.166h28.664V71.166h28.17V14.332H85.498zM128 56.834h-13.838v-28.17H128v28.17zm56.834-42.502h-28.17v56.834h28.17V28.664h14.332v42.502h14.332V28.664h14.332v42.502h14.332V14.332h-57.328z" fill="currentColor" fill-rule="evenodd"/></symbol><symbol viewBox="0 0 24 24" id="pswpclose" xmlns="http://www.w3.org/2000/svg"><path d="m21.9.686 1.414 1.415-9.9 9.9 9.9 9.898-1.415 1.415-9.899-9.9-9.9 9.9-1.414-1.415 9.9-9.899-9.9-9.9L2.101.687l9.9 9.9 9.898-9.9z" fill="currentColor" fill-rule="evenodd"/></symbol><symbol viewBox="0 0 20 22" id="pswpfullscreen" xmlns="http://www.w3.org/2000/svg"><path d="M20 15v7h-7v-2h5v-5h2zM2 15v5h5v2H0v-7h2zM20 0v7h-2V2h-5V0h7zM7 0v2H2v5H0V0h7z" fill="currentColor" fill-rule="evenodd"/></symbol><symbol viewBox="0 0 22 22" id="pswpzoom" xmlns="http://www.w3.org/2000/svg"><path d="M12 0v10h10v2H12v10h-2V12H0v-2h10V0h2z" fill="currentColor" fill-rule="evenodd"/></symbol><symbol viewBox="0 0 256 228" preserveAspectRatio="xMidYMid" id="react" xmlns="http://www.w3.org/2000/svg"><path d="M210.483 73.824a171.49 171.49 0 0 0-8.24-2.597c.465-1.9.893-3.777 1.273-5.621 6.238-30.281 2.16-54.676-11.769-62.708-13.355-7.7-35.196.329-57.254 19.526a171.23 171.23 0 0 0-6.375 5.848 155.866 155.866 0 0 0-4.241-3.917C100.759 3.829 77.587-4.822 63.673 3.233 50.33 10.957 46.379 33.89 51.995 62.588a170.974 170.974 0 0 0 1.892 8.48c-3.28.932-6.445 1.924-9.474 2.98C17.309 83.498 0 98.307 0 113.668c0 15.865 18.582 31.778 46.812 41.427a145.52 145.52 0 0 0 6.921 2.165 167.467 167.467 0 0 0-2.01 9.138c-5.354 28.2-1.173 50.591 12.134 58.266 13.744 7.926 36.812-.22 59.273-19.855a145.567 145.567 0 0 0 5.342-4.923 168.064 168.064 0 0 0 6.92 6.314c21.758 18.722 43.246 26.282 56.54 18.586 13.731-7.949 18.194-32.003 12.4-61.268a145.016 145.016 0 0 0-1.535-6.842c1.62-.48 3.21-.974 4.76-1.488 29.348-9.723 48.443-25.443 48.443-41.52 0-15.417-17.868-30.326-45.517-39.844zm-6.365 70.984c-1.4.463-2.836.91-4.3 1.345-3.24-10.257-7.612-21.163-12.963-32.432 5.106-11 9.31-21.767 12.459-31.957 2.619.758 5.16 1.557 7.61 2.4 23.69 8.156 38.14 20.213 38.14 29.504 0 9.896-15.606 22.743-40.946 31.14zm-10.514 20.834c2.562 12.94 2.927 24.64 1.23 33.787-1.524 8.219-4.59 13.698-8.382 15.893-8.067 4.67-25.32-1.4-43.927-17.412a156.726 156.726 0 0 1-6.437-5.87c7.214-7.889 14.423-17.06 21.459-27.246 12.376-1.098 24.068-2.894 34.671-5.345a134.17 134.17 0 0 1 1.386 6.193zM87.276 214.515c-7.882 2.783-14.16 2.863-17.955.675-8.075-4.657-11.432-22.636-6.853-46.752a156.923 156.923 0 0 1 1.869-8.499c10.486 2.32 22.093 3.988 34.498 4.994 7.084 9.967 14.501 19.128 21.976 27.15a134.668 134.668 0 0 1-4.877 4.492c-9.933 8.682-19.886 14.842-28.658 17.94zM50.35 144.747c-12.483-4.267-22.792-9.812-29.858-15.863-6.35-5.437-9.555-10.836-9.555-15.216 0-9.322 13.897-21.212 37.076-29.293 2.813-.98 5.757-1.905 8.812-2.773 3.204 10.42 7.406 21.315 12.477 32.332-5.137 11.18-9.399 22.249-12.634 32.792a134.718 134.718 0 0 1-6.318-1.979zm12.378-84.26c-4.811-24.587-1.616-43.134 6.425-47.789 8.564-4.958 27.502 2.111 47.463 19.835a144.318 144.318 0 0 1 3.841 3.545c-7.438 7.987-14.787 17.08-21.808 26.988-12.04 1.116-23.565 2.908-34.161 5.309a160.342 160.342 0 0 1-1.76-7.887zm110.427 27.268a347.8 347.8 0 0 0-7.785-12.803c8.168 1.033 15.994 2.404 23.343 4.08-2.206 7.072-4.956 14.465-8.193 22.045a381.151 381.151 0 0 0-7.365-13.322zm-45.032-43.861c5.044 5.465 10.096 11.566 15.065 18.186a322.04 322.04 0 0 0-30.257-.006c4.974-6.559 10.069-12.652 15.192-18.18zM82.802 87.83a323.167 323.167 0 0 0-7.227 13.238c-3.184-7.553-5.909-14.98-8.134-22.152 7.304-1.634 15.093-2.97 23.209-3.984a321.524 321.524 0 0 0-7.848 12.897zm8.081 65.352c-8.385-.936-16.291-2.203-23.593-3.793 2.26-7.3 5.045-14.885 8.298-22.6a321.187 321.187 0 0 0 7.257 13.246c2.594 4.48 5.28 8.868 8.038 13.147zm37.542 31.03c-5.184-5.592-10.354-11.779-15.403-18.433 4.902.192 9.899.29 14.978.29 5.218 0 10.376-.117 15.453-.343-4.985 6.774-10.018 12.97-15.028 18.486zm52.198-57.817c3.422 7.8 6.306 15.345 8.596 22.52-7.422 1.694-15.436 3.058-23.88 4.071a382.417 382.417 0 0 0 7.859-13.026 347.403 347.403 0 0 0 7.425-13.565zm-16.898 8.101a358.557 358.557 0 0 1-12.281 19.815 329.4 329.4 0 0 1-23.444.823c-7.967 0-15.716-.248-23.178-.732a310.202 310.202 0 0 1-12.513-19.846h.001a307.41 307.41 0 0 1-10.923-20.627 310.278 310.278 0 0 1 10.89-20.637l-.001.001a307.318 307.318 0 0 1 12.413-19.761c7.613-.576 15.42-.876 23.31-.876H128c7.926 0 15.743.303 23.354.883a329.357 329.357 0 0 1 12.335 19.695 358.489 358.489 0 0 1 11.036 20.54 329.472 329.472 0 0 1-11 20.722zm22.56-122.124c8.572 4.944 11.906 24.881 6.52 51.026-.344 1.668-.73 3.367-1.15 5.09-10.622-2.452-22.155-4.275-34.23-5.408-7.034-10.017-14.323-19.124-21.64-27.008a160.789 160.789 0 0 1 5.888-5.4c18.9-16.447 36.564-22.941 44.612-18.3zM128 90.808c12.625 0 22.86 10.235 22.86 22.86s-10.235 22.86-22.86 22.86-22.86-10.235-22.86-22.86 10.235-22.86 22.86-22.86z" fill="currentColor"/></symbol><symbol viewBox="0 0 25 25" id="reactivex" xmlns="http://www.w3.org/2000/svg"><path d="M15.482 4.995c.734 0 .734 1.14 0 1.14-.733 0-.735-1.14 0-1.14m9.382 5.813c-.199.41-.384.83-.598 1.23-.02.038-.595.955-.587.963.056.056-.993 1.315-1.227 1.341.004-.02 0-.038-.013-.05.19-.24.347-.52.479-.795.159-.332.33-.663.443-1.022.25-.794.417-1.59.401-2.428-.022-1.235-.434-2.772-1.468-3.557.622 1.007.574 2.45.401 3.568a9.893 9.893 0 0 1-.388 1.648 9.043 9.043 0 0 1-.299.782c-.063.144-.126.287-.194.429-.033.068-.148.222-.148.296 0 .125-.203.374-.265.48-.107.184-.217.37-.334.548a10.907 10.907 0 0 1-1.73 2.029c-.333.304-.77.537-1.072.866.631.155 1.376.044 1.985-.127.332-.094.65-.182.964-.329.291-.136.545-.328.829-.476-.028.224-.406.476-.567.616-.3.258-.613.496-.932.729-.47.342-.973.635-1.493.896-1.225.613-2.505.93-3.864 1.02.51.478 1.091.932 1.75 1.187.356.137.704.235 1.08.298.134.023.271.055.407.067.158.013.378-.026.517.065-.422.02-.858.127-1.288.164-.382.034-.772.067-1.156.038-1.011-.075-1.99-.284-2.909-.729a13.863 13.863 0 0 1-2.494-1.57c-.392-.306-.75-.64-1.117-.973-.153-.14-.313-.27-.456-.42-.052-.054-.257-.386-.335-.384-.085.002.081.801.105.883.09.32.225.627.39.916.164.29.358.562.568.82.21.257.507.47.667.763a6.973 6.973 0 0 1-2.713-2.037c-.755-.917-1.194-2.016-1.415-3.178-.194-1.02-.091-2.092.133-3.098.242-1.091.845-2.025 1.666-2.77.402-.364.852-.652 1.32-.911.274-.151.544-.273.834-.389.166-.066.325-.127.497-.18.053-.016.438-.173.478-.146.36.12.7.29 1.045.447.397.18.812.312 1.216.471a18.08 18.08 0 0 0 2.329.737c.713.174 1.45.283 2.177.353.839.08 1.845.044 2.608-.355.703-.37.989-.978.92-1.746-.072-.796-.518-1.413-.94-2.056-.456-.692-1.145-1.285-1.784-1.807-.665-.543-1.399-1.042-2.17-1.408-.472-.224-.924-.467-1.404-.675-.43-.187-.895-.293-1.344-.424-.904-.263-1.902-.328-2.842-.328.037-.036-.71-.577-.807-.633A3.377 3.377 0 0 0 9.58.05C8.904-.062 8.176 0 7.594.385c-.646.427-1.02 1.17-1.618 1.66-.254.207-.54.376-.853.477-.405.131-.827.098-1.238.187-.647.14-1.28.444-1.53 1.097-.285.744-.013 1.57-.259 2.322-.236.722-.984 1.09-1.465 1.637C.028 8.449.082 9.119.336 9.95c.233.766.602 1.613.119 2.365-.207.321-.449.567-.455.976-.006.407.207.776.425 1.105.23.347.5.665.785.968.214.229.312.465.441.751.289.639.539 1.28.888 1.893 1.381 2.427 3.517 4.282 6.05 5.437 1.774.809 3.58 1.152 5.521 1.186 1.004.018 2.01-.139 2.974-.402.422-.115.833-.256 1.236-.421.157-.065.309-.117.46-.194.123-.061.32-.112.418-.212.236-.053.52-.253.717-.388.061-.042.517-.292.517-.36 0-.054.53-.37.577-.408.228-.19.454-.382.676-.58.415-.369.776-.78 1.129-1.198.78-.925 1.547-2.032 1.821-3.23-1.265.96-2.668 2.002-4.296 2.175.079-.096.207-.116.31-.173.158-.088.317-.18.473-.272.355-.21.698-.483 1.019-.749.656-.544 1.191-1.24 1.637-1.958.998-1.605 1.477-3.579 1.086-5.453" fill="currentColor" fill-rule="evenodd"/></symbol><symbol viewBox="0 0 256 244" preserveAspectRatio="xMidYMid" id="redux" xmlns="http://www.w3.org/2000/svg"><path d="M177.381 169.733c9.447-.978 16.614-9.122 16.288-18.896-.325-9.773-8.47-17.592-18.243-17.592h-.651c-10.1.326-17.918 8.796-17.592 18.895.326 4.887 2.28 9.122 5.212 12.054-11.076 21.828-28.016 37.791-53.426 51.148-17.266 9.122-35.183 12.38-53.1 10.1-14.66-1.955-26.062-8.47-33.23-19.222-10.424-15.963-11.401-33.23-2.605-50.496 6.19-12.38 15.962-21.502 22.152-26.063-1.303-4.235-3.258-11.402-4.235-16.614-47.237 34.207-42.35 80.468-28.016 102.295 10.75 16.29 32.577 26.389 56.684 26.389 6.515 0 13.03-.652 19.546-2.28 41.699-8.145 73.299-32.905 91.216-69.718zm57.336-40.397c-24.759-28.995-61.245-44.958-102.944-44.958h-5.212c-2.932-5.864-9.122-9.774-15.963-9.774h-.652C99.848 74.93 92.03 83.4 92.355 93.5c.326 9.773 8.47 17.592 18.243 17.592h.651c7.167-.326 13.357-4.887 15.963-11.077h5.864c24.759 0 48.214 7.167 69.39 21.176 16.288 10.751 28.016 24.76 34.531 41.7 5.538 13.683 5.212 27.04-.652 38.443-9.121 17.266-24.432 26.714-44.63 26.714-13.031 0-25.41-3.91-31.926-6.842-3.583 3.258-10.099 8.47-14.66 11.729 14.009 6.515 28.343 10.099 42.025 10.099 31.274 0 54.404-17.267 63.2-34.533 9.447-18.896 8.795-51.474-15.637-79.165zM69.225 175.27c.326 9.774 8.47 17.592 18.243 17.592h.652c10.099-.325 17.917-8.796 17.591-18.895-.325-9.774-8.47-17.592-18.243-17.592h-.651c-.652 0-1.63 0-2.28.325-13.357-22.153-18.895-46.26-16.94-72.323 1.302-19.547 7.818-36.488 19.22-50.497 9.447-12.054 27.69-17.918 40.07-18.243 34.531-.652 49.19 42.351 50.168 59.618 4.235.977 11.402 3.258 16.289 4.887C189.434 27.366 156.857 0 125.584 0c-29.32 0-56.359 21.176-67.11 52.451-14.985 41.7-5.212 81.771 13.031 113.372-1.628 2.28-2.606 5.864-2.28 9.448z" fill="currentColor"/></symbol><symbol viewBox="0 0 411 473" fill="none" id="remix" xmlns="http://www.w3.org/2000/svg"><path fill-rule="evenodd" clip-rule="evenodd" d="M392.947 364.768c4.254 54.65 4.254 80.268 4.254 108.232H270.756c0-6.091.109-11.663.219-17.313.342-17.564.699-35.88-2.147-72.868-3.761-54.152-27.08-66.185-69.957-66.185H0v-98.525h204.889c54.16 0 81.241-16.476 81.241-60.098 0-38.357-27.081-61.601-81.241-61.601H0V0h227.456C350.069 0 411 57.912 411 150.42c0 69.193-42.877 114.319-100.799 121.84 48.895 9.777 77.48 37.605 82.746 92.508" fill="currentColor"/><path d="M0 473v-73.447h133.697c22.332 0 27.181 16.563 27.181 26.441V473z" fill="currentColor"/></symbol><symbol viewBox="0 0 24 24" fill="none" stroke="currentColor" stroke-width="2" stroke-linecap="round" stroke-linejoin="round" class="bgfeather bgfeather-chevron-right" id="right" xmlns="http://www.w3.org/2000/svg"><path d="m9 18 6-6-6-6"/></symbol><symbol viewBox="0 0 66 82" fill="none" id="storybook" xmlns="http://www.w3.org/2000/svg"><path fill-rule="evenodd" clip-rule="evenodd" d="m48.6 10.08.387-9.294-45.121 2.82a4.123 4.123 0 0 0-3.863 4.27l2.54 67.684a4.123 4.123 0 0 0 3.935 3.964l55.03 2.472a4.123 4.123 0 0 0 4.308-4.118V4.122a4.123 4.123 0 0 0-4.38-4.115L56.91.291l.33 9.463a.615.615 0 0 1-.995.504l-3.049-2.402-3.61 2.739a.615.615 0 0 1-.986-.516zm2.144 20.535c-1.45 1.127-12.255 1.896-12.255.292.228-6.12-2.512-6.389-4.034-6.389-1.446 0-3.882.437-3.882 3.716 0 3.341 3.56 5.228 7.737 7.442 5.935 3.145 13.119 6.951 13.119 16.53 0 9.18-7.46 14.252-16.974 14.252-9.82 0-18.4-3.972-17.43-17.745.38-1.617 12.863-1.233 12.863 0-.152 5.683 1.142 7.355 4.415 7.355 2.511 0 3.653-1.385 3.653-3.716 0-3.529-3.709-5.611-7.975-8.006-5.777-3.244-12.576-7.061-12.576-15.82 0-8.744 6.013-14.573 16.745-14.573 10.733 0 16.594 5.74 16.594 16.662z" fill="currentColor"/></symbol><symbol viewBox="0 0 32 32" id="tailwind" xmlns="http://www.w3.org/2000/svg"><path d="M9 13.7q1.4-5.6 7-5.6c5.6 0 6.3 4.2 9.1 4.9q2.8.7 4.9-2.1-1.4 5.6-7 5.6c-5.6 0-6.3-4.2-9.1-4.9q-2.8-.7-4.9 2.1zm-7 8.4q1.4-5.6 7-5.6c5.6 0 6.3 4.2 9.1 4.9q2.8.7 4.9-2.1-1.4 5.6-7 5.6c-5.6 0-6.3-4.2-9.1-4.9q-2.8-.7-4.9 2.1z" fill="currentColor"/></symbol><symbol viewBox="0 0 512 512" id="tipi" xmlns="http://www.w3.org/2000/svg"><g fill="currentColor"><path d="m274.035 78.75 30.078-52.086a10.63 10.63 0 0 0 1.422-5.328c0-5.891-4.766-10.672-10.656-10.672-3.938 0-7.375 2.156-9.234 5.344V16l-18.977 32.859V10.664C266.668 4.773 261.895 0 256.004 0S245.34 4.773 245.34 10.664v38.195L226.363 16v.008c-1.844-3.188-5.289-5.344-9.234-5.344-5.891 0-10.664 4.781-10.664 10.672 0 1.938.523 3.758 1.438 5.328h-.008l30.07 52.086L21.34 512h469.32L274.035 78.75zm13.969 91.914c0-5.891-4.781-10.664-10.656-10.664-5.898 0-10.68 4.773-10.68 10.664H245.34c0-5.891-4.781-10.664-10.672-10.664s-10.664 4.773-10.664 10.664h-8.148l40.148-80.297 40.156 80.297h-8.156zm-69.18 319.992 37.18-161.125 37.188 161.125h-74.368zm96.258 0-59.078-255.992-59.078 255.992H55.855L205.191 192h8.148c0 5.891 4.773 10.664 10.664 10.664s10.664-4.773 10.664-10.664h10.672c0 5.891 4.773 10.664 10.664 10.664s10.664-4.773 10.664-10.664h10.68c0 5.891 4.766 10.664 10.656 10.664S298.66 197.891 298.66 192h8.156L456.16 490.656H315.082z"/><path d="m188.879 451.125-21.336-21.344c-1.93-1.922-4.594-3.125-7.539-3.125s-5.609 1.203-7.539 3.125l-13.797 13.797-13.789-13.797c-1.93-1.922-4.594-3.125-7.539-3.125s-5.617 1.203-7.547 3.125l-21.328 21.344a10.637 10.637 0 0 0-3.125 7.531c0 5.906 4.773 10.688 10.664 10.688 2.945 0 5.609-1.203 7.547-3.125l13.789-13.797 13.789 13.797c1.93 1.922 4.594 3.125 7.539 3.125s5.617-1.203 7.547-3.125l13.789-13.797 13.789 13.797a10.68 10.68 0 0 0 7.547 3.125c5.891 0 10.664-4.781 10.664-10.688 0-2.937-1.195-5.594-3.125-7.531zm234.656 0-21.312-21.344a10.715 10.715 0 0 0-7.562-3.125c-2.938 0-5.594 1.203-7.531 3.125l-13.781 13.797-13.812-13.797c-1.922-1.922-4.594-3.125-7.531-3.125s-5.609 1.203-7.531 3.125l-21.344 21.344a10.603 10.603 0 0 0-3.125 7.531c0 5.906 4.781 10.688 10.656 10.688 2.953 0 5.625-1.203 7.562-3.125l13.781-13.797 13.781 13.797a10.715 10.715 0 0 0 7.562 3.125c2.938 0 5.594-1.203 7.531-3.125l13.781-13.797 13.812 13.797a10.642 10.642 0 0 0 7.531 3.125c5.891 0 10.656-4.781 10.656-10.688a10.597 10.597 0 0 0-3.124-7.531zM160.004 341.344c5.891 0 10.664-4.781 10.664-10.688 0-5.875-4.773-10.656-10.664-10.656s-10.664 4.781-10.664 10.656c0 5.906 4.773 10.688 10.664 10.688zM202.668 320c-5.891 0-10.664 4.781-10.664 10.656 0 5.906 4.773 10.688 10.664 10.688s10.672-4.781 10.672-10.688c0-5.875-4.781-10.656-10.672-10.656zm106.68 0c-5.906 0-10.688 4.781-10.688 10.656a10.683 10.683 0 0 0 10.688 10.688c5.875 0 10.656-4.781 10.656-10.688 0-5.875-4.781-10.656-10.656-10.656zm42.656 21.344c5.891 0 10.656-4.781 10.656-10.688 0-5.875-4.766-10.656-10.656-10.656s-10.656 4.781-10.656 10.656c0 5.906 4.765 10.688 10.656 10.688z"/></g></symbol><symbol viewBox="0 0 256 209" preserveAspectRatio="xMidYMid" id="twitter" xmlns="http://www.w3.org/2000/svg"><path d="M256 25.45a105.04 105.04 0 0 1-30.166 8.27c10.845-6.5 19.172-16.793 23.093-29.057a105.183 105.183 0 0 1-33.351 12.745C205.995 7.201 192.346.822 177.239.822c-29.006 0-52.523 23.516-52.523 52.52 0 4.117.465 8.125 1.36 11.97-43.65-2.191-82.35-23.1-108.255-54.876-4.52 7.757-7.11 16.78-7.11 26.404 0 18.222 9.273 34.297 23.365 43.716a52.312 52.312 0 0 1-23.79-6.57c-.003.22-.003.44-.003.661 0 25.447 18.104 46.675 42.13 51.5a52.592 52.592 0 0 1-23.718.9c6.683 20.866 26.08 36.05 49.062 36.475-17.975 14.086-40.622 22.483-65.228 22.483-4.24 0-8.42-.249-12.529-.734 23.243 14.902 50.85 23.597 80.51 23.597 96.607 0 149.434-80.031 149.434-149.435 0-2.278-.05-4.543-.152-6.795A106.748 106.748 0 0 0 256 25.45" fill="currentColor"/></symbol><symbol viewBox="0 0 512 512" id="typescript" xmlns="http://www.w3.org/2000/svg"><path d="M462 0c27.614 0 50 22.386 50 50v412c0 27.614-22.386 50-50 50H50c-27.614 0-50-22.386-50-50V50C0 22.386 22.386 0 50 0h412zm-57.888 238c-11.895 0-23.163 1.278-33.805 3.833s-20.006 6.544-28.093 11.967c-8.086 5.424-14.476 12.333-19.171 20.729-4.695 8.395-7.043 18.433-7.043 30.114 0 14.914 4.304 27.638 12.912 38.172 8.607 10.533 21.675 19.45 39.204 26.751 6.886 2.816 13.303 5.579 19.25 8.291 5.947 2.712 11.086 5.528 15.415 8.448 4.33 2.92 7.747 6.101 10.252 9.543 2.504 3.441 3.756 7.352 3.756 11.733 0 3.233-.783 6.231-2.348 8.995-1.565 2.764-3.939 5.162-7.121 7.196-3.182 2.034-7.147 3.624-11.894 4.771-4.748 1.148-10.303 1.721-16.668 1.721-10.851 0-21.597-1.903-32.24-5.71-10.329-3.694-19.921-9.182-28.776-16.463l-.803-.666v50.06c8.138 4.172 17.763 7.3 28.875 9.386 11.112 2.086 22.823 3.129 35.135 3.129 11.999 0 23.397-1.147 34.196-3.442 10.799-2.294 20.268-6.075 28.406-11.342 8.138-5.266 14.581-12.15 19.328-20.65 4.747-8.5 7.121-19.007 7.121-31.522 0-9.074-1.356-17.026-4.069-23.857-2.713-6.831-6.625-12.906-11.738-18.225-5.112-5.319-11.242-10.091-18.389-14.315-7.147-4.224-15.207-8.213-24.18-11.967-6.573-2.712-12.468-5.345-17.685-7.9-5.217-2.556-9.651-5.163-13.303-7.822-3.652-2.66-6.469-5.476-8.451-8.448-1.982-2.973-2.974-6.336-2.974-10.091 0-3.441.887-6.544 2.661-9.308 1.774-2.764 4.278-5.136 7.512-7.118 3.235-1.981 7.199-3.52 11.894-4.615 4.696-1.095 9.912-1.642 15.651-1.642 4.173 0 8.581.313 13.224.938 4.643.626 9.312 1.591 14.008 2.894a97.514 97.514 0 0 1 13.694 4.928c4.434 1.982 8.529 4.276 12.285 6.884v-46.776c-7.616-2.92-15.937-5.084-24.962-6.492-9.025-1.408-19.381-2.112-31.066-2.112zM297 243H118v41.082h63.906V467h50.874V284.082H297V243z" fill="currentColor"/></symbol><symbol viewBox="0 0 256 255" preserveAspectRatio="xMidYMid" id="wordpress" xmlns="http://www.w3.org/2000/svg"><path d="M18.124 127.5c0 43.296 25.16 80.711 61.646 98.442L27.594 82.986a108.965 108.965 0 0 0-9.47 44.514zm183.221-5.52c0-13.517-4.856-22.879-9.02-30.165-5.545-9.01-10.742-16.64-10.742-25.65 0-10.055 7.626-19.415 18.368-19.415.485 0 .944.06 1.417.088-19.46-17.829-45.387-28.714-73.863-28.714-38.213 0-71.832 19.606-91.39 49.302 2.566.077 4.984.13 7.039.13 11.44 0 29.15-1.387 29.15-1.387 5.897-.348 6.592 8.312.702 9.01 0 0-5.926.697-12.52 1.042L100.32 194.7l23.937-71.79-17.042-46.692c-5.89-.345-11.47-1.042-11.47-1.042-5.894-.346-5.203-9.358.691-9.01 0 0 18.064 1.388 28.811 1.388 11.44 0 29.151-1.388 29.151-1.388 5.9-.348 6.594 8.312.702 9.01 0 0-5.938.697-12.52 1.042l39.529 117.581 10.91-36.458c4.728-15.129 8.327-25.995 8.327-35.36zm-71.921 15.088-32.818 95.363a109.376 109.376 0 0 0 30.899 4.456c12.737 0 24.952-2.202 36.323-6.2a9.605 9.605 0 0 1-.779-1.507l-33.625-92.112zm94.058-62.045a83.98 83.98 0 0 1 .737 11.247c0 11.1-2.073 23.577-8.317 39.178l-33.411 96.6c32.518-18.963 54.39-54.193 54.39-94.545.002-19.017-4.856-36.9-13.4-52.48zM127.505 0C57.2 0 0 57.196 0 127.5c0 70.313 57.2 127.507 127.505 127.507 70.302 0 127.51-57.194 127.51-127.507C255.014 57.196 197.808 0 127.506 0zm0 249.163c-67.08 0-121.659-54.578-121.659-121.663 0-67.08 54.576-121.654 121.659-121.654 67.078 0 121.652 54.574 121.652 121.654 0 67.085-54.574 121.663-121.652 121.663z" fill="currentColor"/></symbol><symbol viewBox="0 0 256 256" id="yarn" xmlns="http://www.w3.org/2000/svg"><path d="M128 0c70.672 0 128 57.328 128 128s-57.328 128-128 128S0 198.672 0 128 57.328 0 128 0zm75.317 174.06c-7.907 1.878-11.91 3.608-21.695 9.983-15.271 9.884-31.976 14.48-31.976 14.48s-1.383 2.076-5.387 3.015c-6.918 1.68-32.963 3.114-35.335 3.163-6.376.05-10.28-1.63-11.367-4.25-3.311-7.907 4.744-11.367 4.744-11.367s-1.779-1.087-2.817-2.076c-.939-.939-1.927-2.816-2.224-2.125-1.235 3.015-1.878 10.379-5.189 13.69-4.547 4.596-13.146 3.064-18.236.395-5.585-2.965.395-9.933.395-9.933s-3.015 1.779-5.436-1.878c-2.175-3.36-4.2-9.094-3.657-16.16.593-8.056 9.587-15.865 9.587-15.865s-1.581-11.91 3.608-24.117c4.695-11.12 17.347-20.065 17.347-20.065s-10.626-11.762-6.672-22.338c2.57-6.92 3.608-6.87 4.448-7.166 2.965-1.137 5.831-2.373 7.957-4.695 10.625-11.466 24.166-9.292 24.166-9.292s6.425-19.52 12.356-15.715c1.828 1.186 8.401 15.814 8.401 15.814s7.018-4.102 7.809-2.57c4.25 8.254 4.744 24.019 2.866 33.607-3.163 15.814-11.07 24.315-14.233 29.652-.741 1.236 8.5 5.14 14.332 21.3 5.387 14.777.593 27.182 1.433 28.566.148.247.198.346.198.346s6.177.494 18.582-7.166c6.622-4.102 14.48-8.698 23.425-8.797 8.65-.149 9.094 9.983 2.57 11.564zm11.763-7.265c-.89-7.017-6.82-11.86-14.431-11.762-11.367.148-20.905 6.03-27.231 9.934-2.471 1.532-4.596 2.669-6.425 3.509.395-5.733.05-13.245-2.916-21.498-3.608-9.885-8.45-15.963-11.91-19.472 4.003-5.832 9.489-14.332 12.058-27.478 2.224-11.219 1.533-28.664-3.558-38.45-1.038-1.976-2.767-3.41-4.942-4.003-.89-.247-2.57-.741-5.881.198-4.991-10.329-6.721-11.416-8.056-12.306-2.767-1.779-6.029-2.174-9.093-1.038-4.102 1.483-7.61 5.437-10.922 12.454a51.47 51.47 0 0 0-1.334 3.015c-6.277.445-16.161 2.718-24.513 11.762-1.038 1.137-3.064 1.977-5.19 2.768h.05c-4.349 1.532-6.326 5.09-8.747 11.515-3.361 8.994.098 17.84 3.508 23.574-4.645 4.151-10.823 10.773-14.084 18.532-4.053 9.588-4.498 18.978-4.35 24.068-3.459 3.658-8.796 10.527-9.39 18.237-.79 10.773 3.114 18.088 4.844 20.756.494.791 1.038 1.434 1.63 2.076-.197 1.334-.246 2.768.05 4.25.643 3.46 2.817 6.277 6.128 8.056 6.524 3.46 15.617 4.942 22.635 1.433 2.52 2.669 7.117 5.239 15.469 5.239h.494c2.125 0 29.109-1.433 36.967-3.36 3.509-.841 5.93-2.324 7.512-3.658 5.04-1.582 18.977-6.326 32.123-14.826 9.291-6.03 12.504-7.315 19.423-8.995 6.72-1.63 10.922-7.759 10.082-14.53z" fill="currentColor" fill-rule="evenodd"/></symbol><symbol viewBox="0 0 32 32" id="yeoman" xmlns="http://www.w3.org/2000/svg"><path fill="currentColor" d="m16.83 15.028-.069-.189a.785.785 0 0 1-.05.026l.119.162zm.506-.404-.132-.151c-.012.015-.026.028-.038.042l.17.109zm.326-.561-.178-.093-.019.053.197.04zm.101-.64-.201-.023.003.057.198-.034zm-.136-.634-.195.051.022.052.173-.103zm-2.65 2.119.138-.145-.045-.034-.092.179zm1.234.315.004-.201c-.019.003-.037.007-.056.008l.052.193zm-.647-.042.077-.186a1.108 1.108 0 0 1-.055-.014l-.022.2zm-.449-.418c.142.098.301.171.472.218l.088-.806-.559.588zm1.628-2.891-.11.169.051.025.058-.193zm-2.267.713.157.124c.009-.017.019-.032.029-.048l-.187-.076zm-.218.61.191.059.009-.056-.2-.003zm.018.648.199-.014-.013-.055-.187.069zm2.995-1.595-.163.118.038.042.125-.16zm-2.745 2.193.181-.085-.03-.048-.151.133zm1.115.554a1.575 1.575 0 0 0 .519.035l-.21-.784-.309.749zm.474-3.283-.041.198.057.003-.015-.2zm-.644.077.033.198.054-.017-.086-.181zm-.572.305.102.172.045-.034-.147-.138zm1.862 2.746c.153-.085.289-.196.405-.325l-.681-.437.276.762zm-.285-1.297a.476.476 0 1 1-.952 0 .476.476 0 0 1 .952 0zm-2 .286c.04.172.109.334.201.479l.608-.536-.809.057zm-.026-.575c-.01.071-.017.144-.017.218 0 .103.011.204.03.302l.762-.281-.775-.239zm.619 1.475.372-.719-.734.346c.099.144.222.269.362.373zm.931.913c1.197 0 2.17-.973 2.17-2.169s-.974-2.171-2.17-2.171-2.17.974-2.17 2.171c0 1.196.974 2.169 2.17 2.169zm0-3.972c.994 0 1.802.809 1.802 1.802s-.809 1.802-1.802 1.802-1.802-.808-1.802-1.802.809-1.802 1.802-1.802zm-1.367 1.039c-.084.15-.143.315-.175.49l.811.013-.636-.503zm7.256 9.828C17.759 21.509 16 23.604 16 23.604c-.02 2.095 2.846 5.85 6.363 6.304s5.77-1.225 5.77-1.225-2.114-5.118-6.244-6.146zm-11.778 0c-4.13 1.027-6.244 6.146-6.244 6.146s2.253 1.68 5.77 1.225c3.517-.454 6.383-4.209 6.363-6.304 0 0-1.759-2.095-5.889-1.067zm6.105-7.515a1.54 1.54 0 0 0 .495-.156l-.478-.654-.018.81zM4.499 18.209h23.002l.711-2.134h-3.378l.662-3.826.881-5.095S24.05 2.586 16.051 2.586c-9.723 0-10.428 4.568-10.428 4.568l1.543 8.921H3.787l.711 2.134zM16 10.976a2.5 2.5 0 0 1 2.497 2.497c0 1.376-1.12 2.495-2.497 2.495s-2.497-1.12-2.497-2.495A2.5 2.5 0 0 1 16 10.976zm1.563 2.424a1.568 1.568 0 0 0-.109-.508l-.695.415.804.092zm-.079.57c.053-.156.082-.324.082-.498l-.001-.015-.799.137.718.376zm-.28.503c.111-.133.198-.285.261-.449l-.794-.161.533.611zm.228-1.633a1.574 1.574 0 0 0-.286-.433l-.497.637.784-.205zm-.324-.474a1.541 1.541 0 0 0-.423-.3l-.234.775.657-.474zm-2.107-.099a1.556 1.556 0 0 0-.338.394l.751.305-.412-.699zm1.072-.358c-.025-.001-.049-.004-.073-.004-.154 0-.302.023-.442.065l.35.732.166-.792zm-.569.078a1.555 1.555 0 0 0-.458.245l.59.555-.132-.8zm1.129.053a1.54 1.54 0 0 0-.503-.128l.062.807.441-.679z"/></symbol><symbol fill="none" viewBox="0 0 1067 1067" id="zod" xmlns="http://www.w3.org/2000/svg"><path d="m249.76 199.57-183.7 183.7L513.1 924.94 1000 383.28l-183.7-183.7H249.76Z" fill="transparent"/><path d="m175.58 477.37-70.2-83.64 292.23-170.26h217.56l-439.6 253.9Zm540.15-142.88L267.68 594.36l146.86 188.68H632.1l116.5-133.92H594.75v16.43h-209.6l551.61-319.61-105.54-97.58-122.96 71.7 7.46 14.43Z" fill="currentColor"/><g filter="url(#bpa)"><path d="m249.76 199.57-183.7 183.7L513.1 924.94 1000 383.28l-183.7-183.7H249.76Z" stroke="currentColor" stroke-width="50" shape-rendering="crispEdges"/></g><g filter="url(#bpb)"><path d="M260.21 222.47 99.91 383.15 513.1 888.1l452.04-504.94-162.3-160.67H260.22Z" fill="#D9D9D9" fill-opacity=".01"/></g><defs><filter id="bpa" x="28.31" y="174.57" width="1016.13" height="815.65" filterUnits="userSpaceOnUse" color-interpolation-filters="sRGB"><feFlood flood-opacity="0" result="BackgroundImageFix"/><feColorMatrix in="SourceAlpha" values="0 0 0 0 0 0 0 0 0 0 0 0 0 0 0 0 0 0 127 0" result="hardAlpha"/><feOffset dx="3" dy="20"/><feGaussianBlur stdDeviation="3.5"/><feComposite in2="hardAlpha" operator="out"/><feColorMatrix values="0 0 0 0 0 0 0 0 0 0 0 0 0 0 0 0 0 0 0.1 0"/><feBlend in2="BackgroundImageFix" result="effect1_dropShadow_309_94"/><feBlend in="SourceGraphic" in2="effect1_dropShadow_309_94" result="shape"/></filter><filter id="bpb" x="99.91" y="207.47" width="865.25" height="695.61" filterUnits="userSpaceOnUse" color-interpolation-filters="sRGB"><feFlood flood-opacity="0" result="BackgroundImageFix"/><feBlend in="SourceGraphic" in2="BackgroundImageFix" result="shape"/><feColorMatrix in="SourceAlpha" values="0 0 0 0 0 0 0 0 0 0 0 0 0 0 0 0 0 0 127 0" result="hardAlpha"/><feOffset dy="20"/><feGaussianBlur stdDeviation="7.5"/><feComposite in2="hardAlpha" operator="arithmetic" k2="-1" k3="1"/><feColorMatrix values="0 0 0 0 0 0 0 0 0 0 0 0 0 0 0 0 0 0 0.15 0"/><feBlend in2="shape" result="effect1_innerShadow_309_94"/><feColorMatrix in="SourceAlpha" values="0 0 0 0 0 0 0 0 0 0 0 0 0 0 0 0 0 0 127 0" result="hardAlpha"/><feOffset dy="-20"/><feGaussianBlur stdDeviation="7.5"/><feComposite in2="hardAlpha" operator="arithmetic" k2="-1" k3="1"/><feColorMatrix values="0 0 0 0 0 0 0 0 0 0 0 0 0 0 0 0 0 0 0.15 0"/><feBlend in2="effect1_innerShadow_309_94" result="effect2_innerShadow_309_94"/></filter></defs></symbol><symbol viewBox="0 0 24 24" fill="none" stroke="currentColor" stroke-width="2" stroke-linecap="round" stroke-linejoin="round" class="bqfeather bqfeather-zoom-in" id="zoom" xmlns="http://www.w3.org/2000/svg"><circle cx="11" cy="11" r="8"/><path d="m21 21-4.35-4.35M11 8v6m-3-3h6"/></symbol></svg>