<?xml version="1.0" standalone="no"?>
<!DOCTYPE svg PUBLIC "-//W3C//DTD SVG 20010904//EN"
 "http://www.w3.org/TR/2001/REC-SVG-20010904/DTD/svg10.dtd">
<svg version="1.0" xmlns="http://www.w3.org/2000/svg"
 width="1024.000000pt" height="1024.000000pt" viewBox="0 0 1024.000000 1024.000000"
 preserveAspectRatio="xMidYMid meet">
<metadata>
Created by potrace 1.11, written by Peter Selinger 2001-2013
</metadata>
<g transform="translate(0.000000,1024.000000) scale(0.100000,-0.100000)"
fill="#000000" stroke="none">
<path d="M7340 9890 c-30 -4 -82 -10 -115 -14 -220 -27 -500 -113 -719 -223
-313 -157 -543 -346 -766 -629 -77 -98 -181 -278 -245 -423 -87 -201 -164
-495 -180 -696 -4 -44 -9 -91 -11 -105 -8 -51 -5 -227 6 -280 18 -96 156 -599
235 -860 8 -25 30 -97 49 -160 34 -114 115 -378 183 -600 19 -63 51 -164 70
-225 19 -60 39 -123 43 -140 4 -16 20 -66 33 -110 14 -44 50 -159 81 -255 70
-224 106 -338 149 -475 20 -60 78 -245 130 -410 53 -165 132 -415 177 -555 45
-140 99 -311 121 -380 22 -69 46 -143 53 -165 8 -22 28 -85 46 -140 17 -55 53
-167 80 -250 26 -82 87 -271 135 -420 98 -305 276 -854 310 -960 13 -38 82
-252 155 -475 72 -223 146 -450 164 -505 l33 -100 1131 -3 1132 -2 0 2630 0
2630 -845 0 -845 0 0 -52 c-1 -65 -1 -1000 0 -1081 l0 -58 123 1 c67 1 146 1
175 1 l52 -1 -1 -1372 0 -1373 -34 105 c-19 58 -44 137 -56 175 -12 39 -25 79
-30 90 -4 11 -27 81 -49 155 -23 74 -48 153 -55 175 -8 22 -43 132 -79 245
-36 113 -95 300 -131 415 -37 116 -80 252 -96 302 -33 107 -64 203 -147 468
-139 438 -238 754 -308 980 -42 132 -98 312 -126 400 -27 88 -67 216 -88 285
-21 69 -62 199 -90 290 -29 91 -65 208 -81 260 -15 52 -56 185 -90 295 -33
110 -70 229 -81 265 -53 175 -155 519 -168 565 -4 17 -22 77 -38 135 -87 301
-94 349 -77 480 3 25 8 62 10 82 9 65 55 200 95 275 147 274 402 430 736 450
333 19 635 -114 824 -362 67 -88 120 -202 135 -290 4 -22 8 -47 10 -55 2 -8 4
-32 4 -52 l1 -38 675 0 676 0 -5 103 c-10 179 -22 261 -67 437 -164 637 -655
1171 -1326 1441 -109 44 -328 109 -414 124 -19 3 -59 10 -89 15 -30 5 -75 12
-100 16 -66 9 -416 12 -480 4z"/>
<path d="M466 9513 c58 -170 120 -353 139 -408 18 -55 93 -273 165 -485 232
-679 281 -824 305 -895 13 -38 60 -176 104 -305 44 -129 147 -433 230 -675 82
-242 208 -613 281 -825 72 -212 148 -437 170 -500 21 -63 98 -288 170 -500 72
-212 143 -418 156 -459 l25 -74 -46 -131 c-25 -72 -52 -147 -60 -166 -8 -19
-41 -114 -75 -210 -126 -358 -232 -656 -240 -675 -5 -11 -43 -119 -85 -240
-42 -121 -81 -229 -85 -240 -5 -11 -33 -90 -63 -175 -31 -85 -103 -290 -162
-455 -59 -165 -131 -370 -162 -455 -30 -85 -65 -184 -78 -220 -13 -36 -49
-137 -80 -225 -31 -88 -62 -176 -70 -195 -25 -64 -205 -575 -205 -583 0 -4
323 -6 717 -5 l717 3 661 1980 c363 1089 700 2095 748 2235 172 506 218 641
353 1035 75 220 142 418 149 440 7 22 72 213 145 425 72 212 146 430 165 485
18 55 63 186 99 290 35 105 132 388 214 630 83 242 169 494 192 560 23 66 43
127 45 135 4 15 71 212 82 240 3 8 7 20 9 25 1 6 59 177 129 380 70 204 137
402 150 440 12 39 26 78 30 88 7 16 -31 17 -709 17 -394 0 -716 -2 -716 -5 0
-5 -126 -441 -265 -920 -53 -181 -109 -375 -125 -430 -15 -55 -74 -257 -130
-450 -56 -192 -121 -417 -145 -500 -67 -232 -152 -525 -168 -575 -7 -25 -14
-47 -15 -50 0 -3 -3 -12 -5 -20 -3 -8 -31 -105 -62 -215 -31 -110 -70 -245
-87 -300 -16 -55 -30 -104 -32 -110 -51 -191 -62 -205 -89 -107 -9 31 -17 59
-16 62 0 3 -10 32 -21 65 -12 33 -30 94 -41 135 -12 41 -25 89 -29 105 -8 29
-102 352 -193 665 -76 260 -158 543 -167 575 -10 37 -108 376 -157 540 -19 66
-39 134 -43 150 -4 17 -33 116 -63 220 -55 188 -74 254 -222 765 -42 146 -85
295 -97 333 l-21 67 -713 0 -713 0 105 -307z"/>
<path d="M8970 7425 c-211 -45 -384 -163 -495 -335 -292 -453 -39 -1053 490
-1164 62 -13 225 -15 295 -3 77 12 215 72 296 128 112 77 224 222 273 354 66
175 64 383 -5 555 -24 61 -81 158 -115 195 -73 81 -87 94 -129 126 -80 60
-151 96 -255 129 -83 26 -269 34 -355 15z m272 -454 c214 -92 261 -378 88
-535 -164 -148 -421 -92 -513 113 -29 64 -29 187 0 253 39 86 142 172 228 190
45 10 153 -2 197 -21z"/>
<path d="M4145 4350 c-21 -71 -113 -363 -160 -510 -20 -63 -38 -122 -40 -130
-2 -8 -21 -71 -43 -140 -22 -69 -61 -192 -87 -275 -25 -82 -52 -169 -60 -191
l-13 -42 1179 0 c801 0 1179 4 1179 11 0 10 -59 201 -215 697 -48 151 -99 316
-115 365 -89 283 -81 265 -115 265 -16 1 -359 2 -761 3 l-732 2 -17 -55z"/>
</g>
</svg>
