<svg xmlns="http://www.w3.org/2000/svg" viewBox="0 -49.286 25.714 25.714"><path fill="currentColor" d="M17.143-36.429c0-1.183-.419-2.193-1.256-3.03-.837-.837-1.847-1.255-3.03-1.255-1.183 0-2.193.418-3.03 1.255-.837.837-1.256 1.847-1.256 3.03 0 1.183.419 2.194 1.256 3.03.837.838 1.847 1.256 3.03 1.256 1.183 0 2.193-.418 3.03-1.255.837-.837 1.256-1.848 1.256-3.03zm2.31 0c0 1.83-.642 3.388-1.925 4.671-1.284 1.284-2.84 1.925-4.67 1.925-1.831 0-3.388-.641-4.672-1.925-1.283-1.283-1.925-2.84-1.925-4.67s.642-3.388 1.925-4.671c1.284-1.284 2.84-1.926 4.671-1.926 1.83 0 3.387.642 4.67 1.926 1.284 1.283 1.926 2.84 1.926 4.67zm1.808-6.863c0 .424-.15.786-.452 1.088a1.483 1.483 0 0 1-1.088.452c-.424 0-.787-.15-1.088-.452a1.483 1.483 0 0 1-.452-1.088c0-.425.15-.787.452-1.089a1.483 1.483 0 0 1 1.088-.452c.424 0 .787.151 1.088.452.301.302.452.664.452 1.089zm-8.404-3.683l-1.28-.009a90.826 90.826 0 0 0-1.767 0c-.402.006-.94.023-1.615.05-.675.028-1.25.084-1.725.168a6.712 6.712 0 0 0-1.197.31 4.343 4.343 0 0 0-1.473.97 4.343 4.343 0 0 0-.97 1.474 6.712 6.712 0 0 0-.31 1.197c-.084.474-.14 1.049-.168 1.724a62.023 62.023 0 0 0-.05 1.616c-.006.401-.006.99 0 1.766l.008 1.28-.008 1.281a90.826 90.826 0 0 0 0 1.766c.005.402.022.94.05 1.616.028.675.084 1.25.168 1.724.083.474.186.873.31 1.197.222.558.546 1.05.97 1.473.424.424.915.748 1.473.971.324.123.723.226 1.197.31.475.084 1.05.14 1.725.167.675.028 1.213.045 1.615.05.402.006.99.006 1.766 0l1.281-.008 1.28.009c.777.005 1.365.005 1.767 0 .402-.006.94-.023 1.616-.05.675-.028 1.25-.084 1.724-.168a6.712 6.712 0 0 0 1.197-.31 4.343 4.343 0 0 0 1.473-.97c.424-.425.748-.916.971-1.474.123-.324.226-.723.31-1.197.083-.474.14-1.049.167-1.724.028-.675.045-1.214.05-1.616.006-.401.006-.99 0-1.766l-.008-1.28.008-1.281a90.81 90.81 0 0 0 0-1.766c-.005-.402-.022-.94-.05-1.616a13.267 13.267 0 0 0-.167-1.724 6.712 6.712 0 0 0-.31-1.197 4.343 4.343 0 0 0-.97-1.473 4.343 4.343 0 0 0-1.474-.971 6.712 6.712 0 0 0-1.197-.31c-.474-.084-1.05-.14-1.724-.168a62.018 62.018 0 0 0-1.616-.05c-.402-.005-.99-.005-1.766 0l-1.28.009zM25.714-36.43c0 2.556-.028 4.325-.083 5.307-.112 2.322-.804 4.119-2.076 5.391-1.273 1.272-3.07 1.964-5.39 2.076-.983.056-2.752.084-5.308.084s-4.325-.028-5.307-.084c-2.321-.112-4.118-.804-5.39-2.076-1.273-1.272-1.965-3.07-2.076-5.39C.028-32.105 0-33.874 0-36.43c0-2.555.028-4.324.084-5.306.111-2.322.803-4.119 2.076-5.391 1.272-1.272 3.069-1.964 5.39-2.076.982-.056 2.751-.084 5.307-.084 2.556 0 4.325.028 5.307.084 2.321.112 4.118.804 5.39 2.076 1.273 1.272 1.965 3.07 2.077 5.39.055.983.083 2.752.083 5.307zm0 0"/></svg>
