<?xml version="1.0" ?><!DOCTYPE svg  PUBLIC '-//W3C//DTD SVG 1.1//EN'  'http://www.w3.org/Graphics/SVG/1.1/DTD/svg11.dtd'><svg enable-background="new 0 0 512 512" height="512px" id="Layer_1" version="1.1" viewBox="0 0 512 512" width="512px" xml:space="preserve" xmlns="http://www.w3.org/2000/svg" xmlns:xlink="http://www.w3.org/1999/xlink"><path d="M390.344,113.969l6.406-6.398c12.484-12.5,12.484-32.766,0-45.266c-6.25-6.242-14.453-9.367-22.641-9.367  s-16.391,3.125-22.625,9.367L9.375,404.406c-12.5,12.5-12.5,32.781,0,45.281c6.25,6.25,14.438,9.375,22.625,9.375  c8.195,0,16.383-3.125,22.633-9.375l287.398-287.414c18.281,10.953,31.406,38.664,28.969,56.883  c-1.375,10.422-7.062,18.953-16.844,25.359c-12.891,8.422-32.312,13.047-57.719,13.734l-4.031,0.094l-47.047,43.844l19.516,4.547  c16.203,3.766,32.578,5.672,48.656,5.672c27.219,0,54.312-5.422,80.5-16.109c20.797-8.484,41.094-20.312,60.281-35.141  c32.594-25.156,50.719-50.18,51.469-51.227l6.219-8.672L390.344,113.969z M128.016,315.938l21.336-21.312l-0.008,30.156  l-21.328,21.344V315.938z M106.68,367.469l-21.336,21.328v-30.172l21.336-21.344V367.469z M170.68,273.281l135.539-135.539  l15.094,15.086L170.68,303.453V273.281z M321.312,122.656l30.172-30.172l15.078,15.086l-30.172,30.172L321.312,122.656z   M374.109,74.273c1.641,0,4.828,0.406,7.547,3.125s3.125,5.891,3.125,7.539s-0.406,4.828-3.125,7.547l-15.094-15.086l0,0  C369.281,74.68,372.469,74.273,374.109,74.273z M39.547,434.594c-2.719,2.719-5.891,3.125-7.547,3.125  c-1.648,0-4.82-0.406-7.539-3.125c-4.164-4.156-4.164-10.938,0-15.094l39.547-39.547v30.172L39.547,434.594z M440.75,244.688  c-17.625,13.531-36.188,24.312-55.156,32c-23.5,9.547-47.75,14.375-72.062,14.375c-7.719,0-15.531-0.484-23.359-1.469l10.922-10.156  c72.875-3.188,88.375-37.219,91.062-57.469c2.219-16.688-2.578-35.148-13.5-51.977c-6.094-9.398-13.469-17.258-21.344-22.992  l17.734-17.742L481.75,205.82C474.094,214.805,460.094,229.812,440.75,244.688z" id="ax"/></svg>