<?xml version="1.0" ?><!DOCTYPE svg  PUBLIC '-//W3C//DTD SVG 1.1//EN'  'http://www.w3.org/Graphics/SVG/1.1/DTD/svg11.dtd'><svg enable-background="new 0 0 512 512" height="512px" id="Layer_1" version="1.1" viewBox="0 0 512 512" width="512px" xml:space="preserve" xmlns="http://www.w3.org/2000/svg" xmlns:xlink="http://www.w3.org/1999/xlink"><path d="M509.894,101.188c-3.766-7.383-6.297-9.211-9.984-9.211c-3.594,0-8.281,1.742-16.312,1.742  c-0.75,0-1.516-0.016-2.328-0.047c-18.328-0.75-12.297-14.773-12.797-27.789c-0.5-13.023-1.5-14.023-15.812-24.039  C438.346,31.828,362.283,29.07,344.205,25.32c-15.938-3.312-9.625-25.321-42-25.321c-4.328,0-9.359,0.398-15.234,1.281  c-31.063,4.695-75.383,7.039-114.352,7.039c-23.383,0-44.844-0.844-60.375-2.531c-3.672-0.398-7.141-0.586-10.407-0.586  c-33.562,0-46.875,19.36-65.273,22.227c-20.18,3.148-25.993,24.93-32.016,43.711c-6.023,18.773-8.289,43.563,7.531,61.594  c15.812,18.023,37.977,16.523,52.5,33.047c14.016,15.945,60.282,10.914,78.204,21.68c4.211,5.344,21.852,26.766,45.164,41.227  c20.719,12.844,52.227,28.516,93.977,31.766c-12.609,10.484-29.735,23.828-52.985,40.719c-20.82,15.141-41.508,29.453-57.266,40.172  H75.095c-5.891,0-10.672,4.766-10.672,10.656v32H21.758l42.665,117.345h21.336c0,5.875,4.773,10.656,10.664,10.656  s10.672-4.781,10.672-10.656h277.329c0,5.875,4.781,10.656,10.672,10.656s10.656-4.781,10.656-10.656h21.344L469.753,384h-42.657  v-32c0-5.891-4.781-10.656-10.672-10.656h-90.422c5.094-4.75,10.344-9.75,15.656-15c41.406-40.828,64.281-73.516,67.953-97.141  c2.609-16.719-10.484-33.766-41.203-53.664c-4.297-2.789-8.969-5.633-13.969-8.531c27.875-10.852,59.297-20.531,72.25-20.531  c1.719,0,3.109,0.164,4.125,0.531c4.531,1.617,11.594,2.445,19.375,2.445c16.345,0,35.923-3.664,42.376-11.461  C502.097,126.477,517.675,116.461,509.894,101.188z M192.892,206.172c14.328,2.5,30.805,3.93,48.891,3.93  c2.188,0,4.281-0.016,6.266-0.047c6.203,7.547,18.938,20.039,41.016,29.508c-32.157-1.391-61.922-10.859-88.68-28.242  C197.744,209.609,195.251,207.883,192.892,206.172z M293.158,199.836c20,16.445,23.219,23.672,23.719,25.32  c-0.125,0.312-0.281,0.672-0.531,1.109c-18.797-4.695-31.797-12.062-40.375-18.695C283.33,205.898,288.096,203.352,293.158,199.836z   M412.158,480.001H79.368L52.22,405.344h387.079L412.158,480.001z M405.752,384H85.759v-21.344h319.993V384z M388.533,225.922  c-4.75,30.516-56.938,82.484-94.219,115.422h-85.032c10.219-7.141,21.156-14.891,32.141-22.875  c25.36-18.422,45.985-34.453,61.297-47.656c27.344-23.531,33-33.875,34.859-40.25c3.391-11.625-4.578-24.789-26.531-43.57  c4.578-2.812,10.922-6.062,18.359-9.469C388.846,209.07,388.846,223.977,388.533,225.922z M483.69,116.133  c-2.266,2.344-4.594,4.766-6.875,7.453c-2.906,1.664-13.156,4.539-26.626,4.539c-7.219,0-11.281-0.883-12.219-1.219  c-3.344-1.188-7.031-1.766-11.281-1.766c-17.281,0-49.422,10.727-67.047,17.117c-10.609,3.852-46.578,17.32-63.328,28.867  c-4.031,2.781-7.281,5.219-10.156,7.375c-6.375,4.797-8.781,6.516-12.812,7.719c-5.781,1.742-15.812,2.547-31.563,2.547  c-42.648,0-73.055-8.578-84.273-17.078c-11.992-9.086-28.812-11.234-46.617-13.508c-7.469-0.953-15.196-1.945-21.399-3.398  c-6.5-1.531-8.648-2.953-9.031-3.242c-10.297-11.641-22.734-16.891-32.734-21.109c-8.25-3.484-14.758-6.234-19.618-11.766  c-10.453-11.914-6.523-30.805-3.25-41.008c0.336-1.039,0.664-2.094,1-3.156c2.484-7.812,5.047-15.891,8.32-21.172  c2.688-4.352,4.415-4.625,5.672-4.82c10.914-1.703,19.812-6.703,27.664-11.117c10.359-5.82,19.305-10.852,34.32-10.852  c2.578,0,5.305,0.156,8.094,0.461c16,1.734,37.672,2.656,62.688,2.656c43.422,0,87.352-2.719,117.54-7.281  c4.562-0.695,8.625-1.039,12.047-1.039c6.266,0,8.359,1.156,8.703,1.391c0.828,0.547,2.062,2.383,3.375,4.336  c4.031,6.008,10.766,16.062,25.578,19.141c7.125,1.484,19.328,2.609,34.766,4.031c13.469,1.242,28.719,2.648,41.875,4.453  c17.625,2.414,23.219,4.461,24.438,4.992c1.969,1.375,4.438,3.117,6.094,4.383c0.031,0.672,0.078,1.539,0.125,2.641  c0.062,1.672-0.094,3.844-0.25,6.148c-0.562,8.352-1.438,20.961,7.782,31.266c6.062,6.766,14.719,10.422,25.703,10.875  c1.078,0.039,2.141,0.062,3.203,0.062c0.375,0,0.75,0,1.125-0.008C484.347,115.43,484.003,115.797,483.69,116.133z" id="bonsai"/></svg>