<?xml version="1.0" encoding="iso-8859-1"?>
<!-- Generator: Adobe Illustrator 19.0.0, SVG Export Plug-In . SVG Version: 6.00 Build 0)  -->
<svg version="1.1" id="Capa_1" xmlns="http://www.w3.org/2000/svg" xmlns:xlink="http://www.w3.org/1999/xlink" x="0px" y="0px"
	 viewBox="0 0 463.09 463.09" style="enable-background:new 0 0 463.09 463.09;" xml:space="preserve">
<g>
	<path d="M412.227,122.863h-27.203c-2.651,0-5.035-1.473-6.221-3.844L361.88,85.172c-6.207-12.415-18.686-20.126-32.565-20.126
		h-94.357c-13.88,0-26.358,7.712-32.565,20.126l-16.924,33.847c-1.186,2.372-3.569,3.844-6.221,3.844h-55.839v-6.954
		c0-12.106-9.849-21.955-21.954-21.955H79.772c-12.106,0-21.955,9.849-21.955,21.955v6.954h-6.954
		C22.817,122.863,0,145.681,0,173.727v173.455c0,28.046,22.817,50.863,50.864,50.863h361.363c28.046,0,50.864-22.817,50.864-50.863
		V173.727C463.09,145.681,440.273,122.863,412.227,122.863z M94.5,383.031v-194.85c0-7.82,6.362-14.182,14.182-14.182h6.955v187.636
		C115.636,373.349,106.178,382.883,94.5,383.031z M72.818,115.909c0-3.835,3.12-6.955,6.955-6.955h21.682
		c3.834,0,6.954,3.12,6.954,6.955v6.954H72.818V115.909z M15,347.182V173.727c0-19.775,16.088-35.864,35.864-35.864h64.772V159
		h-6.955C92.591,159,79.5,172.091,79.5,188.182v194.863H50.864C31.088,383.045,15,366.957,15,347.182z M448.09,347.182
		c0,19.775-16.088,35.863-35.864,35.863H123.651c4.388-6.014,6.986-13.412,6.986-21.409V137.863h48.612
		c8.369,0,15.894-4.65,19.637-12.136l16.924-33.848c3.65-7.3,10.987-11.834,19.149-11.834h94.357c8.162,0,15.5,4.535,19.149,11.834
		l16.923,33.848c3.743,7.486,11.268,12.136,19.637,12.136h27.203c19.775,0,35.864,16.089,35.864,35.864V347.182z"/>
	<path d="M282.136,151.772c-51.957,0-94.228,42.271-94.228,94.228s42.271,94.227,94.228,94.227s94.227-42.27,94.227-94.227
		S334.093,151.772,282.136,151.772z M282.136,325.227c-43.686,0-79.228-35.541-79.228-79.227c0-43.687,35.542-79.228,79.228-79.228
		s79.227,35.541,79.227,79.228C361.363,289.686,325.822,325.227,282.136,325.227z"/>
	<path d="M282.136,209.591c-20.076,0-36.409,16.333-36.409,36.409c0,20.076,16.333,36.409,36.409,36.409
		c20.076,0,36.409-16.333,36.409-36.409C318.545,225.924,302.212,209.591,282.136,209.591z M282.136,267.409
		c-11.805,0-21.409-9.604-21.409-21.409c0-11.806,9.604-21.409,21.409-21.409c11.805,0,21.409,9.604,21.409,21.409
		C303.545,257.805,293.941,267.409,282.136,267.409z"/>
	<path d="M282.136,195.682c4.264,0,8.498,0.533,12.583,1.584c0.627,0.162,1.255,0.238,1.875,0.238c3.34,0,6.387-2.248,7.258-5.632
		c1.033-4.012-1.382-8.101-5.394-9.133c-5.306-1.365-10.797-2.058-16.321-2.058c-4.142,0-7.5,3.358-7.5,7.5
		S277.994,195.682,282.136,195.682z"/>
	<path d="M320.549,202.144c-3.106,2.74-3.403,7.479-0.663,10.586c8.104,9.188,12.568,21.003,12.568,33.271
		c0,12.271-4.466,24.089-12.575,33.278c-2.741,3.106-2.445,7.845,0.661,10.586c1.426,1.258,3.196,1.876,4.959,1.876
		c2.077,0,4.144-0.857,5.626-2.537c10.529-11.932,16.328-27.275,16.328-43.203c0-15.924-5.795-31.264-16.319-43.193
		C328.396,199.701,323.656,199.404,320.549,202.144z"/>
	<path d="M405,151.772c-11.906,0-22.163,7.17-26.696,17.417c-22.584-28.217-57.298-46.326-96.167-46.326
		C214.239,122.863,159,178.103,159,246s55.239,123.136,123.136,123.136S405.272,313.897,405.272,246
		c0-12.644-1.918-24.847-5.474-36.337c1.689,0.306,3.425,0.474,5.201,0.474c16.091,0,29.182-13.091,29.182-29.182
		C434.181,164.863,421.09,151.772,405,151.772z M282.136,354.136C222.51,354.136,174,305.626,174,246
		c0-59.627,48.51-108.137,108.136-108.137S390.272,186.373,390.272,246C390.272,305.626,341.763,354.136,282.136,354.136z
		 M405,195.136c-7.82,0-14.182-6.362-14.182-14.182c0-7.819,6.362-14.182,14.182-14.182s14.182,6.362,14.182,14.182
		C419.181,188.774,412.819,195.136,405,195.136z"/>
	<path d="M238.772,108.954H325.5c4.142,0,7.5-3.357,7.5-7.5c0-4.142-3.358-7.5-7.5-7.5h-86.727c-4.142,0-7.5,3.358-7.5,7.5
		C231.272,105.597,234.63,108.954,238.772,108.954z"/>
</g>
<g>
</g>
<g>
</g>
<g>
</g>
<g>
</g>
<g>
</g>
<g>
</g>
<g>
</g>
<g>
</g>
<g>
</g>
<g>
</g>
<g>
</g>
<g>
</g>
<g>
</g>
<g>
</g>
<g>
</g>
</svg>
