<?xml version="1.0" ?><!DOCTYPE svg  PUBLIC '-//W3C//DTD SVG 1.1//EN'  'http://www.w3.org/Graphics/SVG/1.1/DTD/svg11.dtd'><svg enable-background="new 0 0 512 512" height="512px" id="Layer_1" version="1.1" viewBox="0 0 512 512" width="512px" xml:space="preserve" xmlns="http://www.w3.org/2000/svg" xmlns:xlink="http://www.w3.org/1999/xlink"><g id="kayak"><path d="M490.719,233.297c-0.016,0-0.031,0.008-0.047,0.016c-85.469,39.719-194.594,42.766-225.922,42.766   c-5.641,0-8.75-0.109-8.75-0.109s-3.125,0.109-8.75,0.109c-31.328,0-140.453-3.031-225.922-42.766   c-0.016-0.008-0.031-0.016-0.047-0.016C19.406,233.297,0,266.523,0,318.641c0,52.672,51.016,83.172,64,85.328   c12.984,2.172,192,2.719,192,2.719s179.016-0.547,192-2.719c12.984-2.156,64-32.656,64-85.328   C512,266.523,492.609,233.297,490.719,233.297z M256,350.641c-5.875,0-10.672-4.781-10.672-10.672   c0-5.875,4.797-10.656,10.672-10.656s10.672,4.781,10.672,10.656C266.672,345.859,261.875,350.641,256,350.641z M41.062,363.969   c-6.031-6.312-10.766-13.094-14.078-20.188c-3.75-8.031-5.656-16.5-5.656-25.141c0-25.266,5.141-45.422,9.719-57.961   c17.734,7.016,36.078,12.695,54.281,17.289v105.688c-8.906-0.219-15.078-0.469-17.641-0.719   C64.203,381.844,52.172,375.609,41.062,363.969z M106.672,384.094V282.906c62,13.078,119,14.5,140.578,14.5   c4.156,0,7.062-0.047,8.469-0.094c-5.766,0.156-10.391,4.875-10.391,10.656c0,0.609,0.062,1.203,0.172,1.781   c-1.188,0.406-2.328,0.875-3.453,1.422c-0.328-0.484-0.703-0.938-1.125-1.359c-4.172-4.172-10.922-4.172-15.094,0   c-4.156,4.156-4.156,10.906,0,15.078c0.422,0.422,0.891,0.797,1.359,1.141c-0.531,1.109-1,2.25-1.406,3.438   c-0.578-0.094-1.172-0.156-1.781-0.156c-5.891,0-10.672,4.781-10.672,10.656c0,5.906,4.781,10.672,10.672,10.672   c0.609,0,1.203-0.062,1.781-0.156c0.406,1.172,0.875,2.328,1.406,3.438c-0.469,0.344-0.938,0.703-1.359,1.141   c-4.156,4.156-4.156,10.906,0,15.094c4.172,4.156,10.922,4.156,15.094,0c0.422-0.438,0.797-0.906,1.125-1.375   c1.125,0.531,2.266,1,3.453,1.422c-0.109,0.578-0.172,1.172-0.172,1.766c0,5.906,4.781,10.672,10.672,10.672   s10.672-4.766,10.672-10.672c0-0.594-0.062-1.188-0.172-1.766c1.188-0.422,2.328-0.891,3.453-1.422   c0.328,0.469,0.703,0.938,1.125,1.375c4.172,4.156,10.922,4.156,15.094,0c4.156-4.172,4.156-10.938,0-15.094   c-0.422-0.438-0.891-0.797-1.359-1.141c0.531-1.109,1-2.266,1.406-3.438c0.578,0.094,1.172,0.156,1.781,0.156   c5.891,0,10.672-4.766,10.672-10.672c0-5.875-4.781-10.656-10.672-10.656c-0.609,0-1.203,0.062-1.781,0.156   c-0.406-1.188-0.875-2.328-1.406-3.438c0.469-0.344,0.938-0.719,1.359-1.141c4.156-4.172,4.156-10.922,0-15.078   c-4.172-4.172-10.922-4.172-15.094,0c-0.422,0.422-0.797,0.875-1.125,1.359c-1.125-0.547-2.266-1.016-3.453-1.422   c0.109-0.578,0.172-1.172,0.172-1.781c0-5.781-4.625-10.5-10.391-10.656c1.406,0.047,4.312,0.094,8.469,0.094   c21.578,0,78.578-1.422,140.578-14.5v101.188c-37.344,0.625-95.109,1.094-149.328,1.281   C201.781,385.188,144.016,384.719,106.672,384.094z M485.016,343.781c-3.312,7.094-8.047,13.875-14.078,20.188   c-11.109,11.641-23.141,17.875-26.625,18.969c-2.562,0.25-8.734,0.5-17.641,0.719V277.969   c18.203-4.594,36.547-10.273,54.281-17.289c4.562,12.539,9.719,32.695,9.719,57.961   C490.672,327.281,488.766,335.75,485.016,343.781z"/><path d="M117.328,222.641c5.891,0,10.672-4.773,10.672-10.664h176.781c14.391,12.43,51.359,21.336,79.219,21.336   c35.344,0,42.672-26.195,42.672-32c0-5.812-7.328-32-42.672-32c-27.859,0-64.828,8.898-79.219,21.328H128   c0-5.891-4.781-10.664-10.672-10.664s-10.656,4.773-10.656,10.664v21.336C106.672,217.867,111.438,222.641,117.328,222.641z    M342.219,196.633c13.453-3.75,29.078-5.992,41.781-5.992c7.953,0,13.875,1.852,17.578,5.5c1.891,1.875,2.906,3.867,3.406,5.172   c-0.5,1.297-1.516,3.297-3.406,5.164c-3.703,3.648-9.625,5.5-17.578,5.5c-12.703,0-28.328-2.242-41.781-5.984   c-5.672-1.586-10.172-3.195-13.688-4.68C332.047,199.82,336.547,198.211,342.219,196.633z"/><path d="M149.328,169.312c27.875,0,64.828-8.906,79.234-21.336h176.766c0,5.891,4.781,10.664,10.672,10.664   s10.672-4.773,10.672-10.664v-21.336c0-5.891-4.781-10.664-10.672-10.664s-10.672,4.773-10.672,10.664H228.562   c-14.406-12.43-51.359-21.328-79.234-21.328c-35.344,0-42.656,26.188-42.656,32C106.672,143.117,113.984,169.312,149.328,169.312z    M131.766,132.141c3.703-3.648,9.609-5.5,17.562-5.5c12.719,0,28.328,2.242,41.781,5.992c5.672,1.578,10.172,3.188,13.688,4.68   c-3.516,1.484-8.016,3.094-13.688,4.68c-13.453,3.742-29.062,5.984-41.781,5.984c-7.953,0-13.859-1.852-17.562-5.5   c-1.906-1.867-2.906-3.867-3.406-5.164C128.859,136.008,129.859,134.016,131.766,132.141z"/></g></svg>