<?xml version="1.0" ?><!DOCTYPE svg  PUBLIC '-//W3C//DTD SVG 1.1//EN'  'http://www.w3.org/Graphics/SVG/1.1/DTD/svg11.dtd'><svg enable-background="new 0 0 512 512" height="512px" id="Layer_1" version="1.1" viewBox="0 0 512 512" width="512px" xml:space="preserve" xmlns="http://www.w3.org/2000/svg" xmlns:xlink="http://www.w3.org/1999/xlink"><g id="tambourine"><path d="M469.344,213.336c-1.438,0-2.844,0.078-4.25,0.211c-5.531-27.391-16.312-52.875-31.234-75.367   c1.078-0.898,2.141-1.844,3.156-2.859c16.672-16.664,16.672-43.68,0-60.336c-8.328-8.336-19.25-12.5-30.172-12.5   c-10.906,0-21.844,4.164-30.156,12.5c-1.031,1.016-1.969,2.07-2.875,3.164c-22.484-14.938-47.969-25.719-75.359-31.25   c0.141-1.391,0.203-2.805,0.203-4.234C298.656,19.102,279.562,0,256,0s-42.664,19.102-42.664,42.664   c0,1.43,0.078,2.844,0.211,4.234c-27.391,5.531-52.875,16.312-75.367,31.242c-0.898-1.086-1.844-2.141-2.859-3.156   c-8.328-8.336-19.25-12.5-30.172-12.5c-10.914,0-21.836,4.164-30.164,12.5c-16.664,16.656-16.664,43.672,0,60.336   c1.016,1.016,2.07,1.961,3.156,2.859c-14.93,22.492-25.711,47.977-31.242,75.367c-1.391-0.133-2.805-0.211-4.234-0.211   C19.102,213.336,0,232.438,0,256s19.102,42.656,42.664,42.656c1.43,0,2.844-0.062,4.234-0.203   c5.531,27.391,16.312,52.875,31.242,75.359c-1.086,0.906-2.141,1.844-3.156,2.875c-16.664,16.656-16.664,43.672,0,60.328   c8.328,8.328,19.25,12.5,30.164,12.5c10.922,0,21.844-4.172,30.172-12.5c1.016-1.016,1.961-2.078,2.859-3.172   c22.492,14.938,47.977,25.719,75.367,31.25c-0.133,1.406-0.211,2.812-0.211,4.25C213.336,492.906,232.438,512,256,512   s42.656-19.094,42.656-42.656c0-1.438-0.062-2.844-0.203-4.25c27.391-5.531,52.875-16.312,75.375-31.25   c7.828,9.562,19.703,15.672,33.016,15.672c23.562,0,42.672-19.109,42.672-42.672c0-13.312-6.109-25.188-15.672-33.016   c14.938-22.5,25.719-47.984,31.25-75.375c1.406,0.141,2.812,0.203,4.25,0.203C492.906,298.656,512,279.562,512,256   S492.906,213.336,469.344,213.336z M391.766,90.062c4.031-4.023,9.391-6.242,15.078-6.242l0,0l0,0   c5.703,0,11.062,2.219,15.094,6.242c8.312,8.32,8.312,21.852,0,30.172c-0.25,0.258-0.531,0.492-0.781,0.727   c-2.25-2.75-4.578-5.453-6.969-8.086c0.062-0.062,0.141-0.117,0.203-0.18c4.172-4.164,4.172-10.922,0-15.086   s-10.922-4.164-15.078,0c-0.062,0.062-0.125,0.133-0.188,0.195c-2.625-2.383-5.344-4.703-8.094-6.961   C391.281,90.586,391.516,90.32,391.766,90.062z M234.664,42.664c0-11.758,9.57-21.328,21.336-21.328s21.344,9.57,21.344,21.328   c0,0.359-0.031,0.711-0.047,1.055c-3.516-0.344-7.078-0.609-10.641-0.789c0-0.086,0-0.172,0-0.266   C266.656,36.773,261.891,32,256,32s-10.656,4.773-10.656,10.664c0,0.094,0,0.18,0,0.266c-3.562,0.18-7.117,0.445-10.641,0.789   C234.688,43.375,234.664,43.023,234.664,42.664z M90.062,120.234c-8.312-8.32-8.312-21.852,0-30.172   c4.031-4.023,9.391-6.242,15.086-6.242c5.703,0,11.055,2.219,15.086,6.242c0.258,0.258,0.492,0.523,0.727,0.781   c-2.75,2.258-5.453,4.578-8.086,6.961c-0.062-0.062-0.117-0.133-0.18-0.195c-4.164-4.164-10.922-4.164-15.086,0   s-4.164,10.914,0,15.086c0.062,0.062,0.133,0.117,0.195,0.18c-2.383,2.633-4.703,5.336-6.961,8.086   C90.586,120.727,90.32,120.492,90.062,120.234z M42.664,277.344c-11.758,0-21.328-9.578-21.328-21.344s9.57-21.344,21.328-21.344   c0.359,0,0.711,0.031,1.055,0.047c-0.344,3.516-0.609,7.078-0.789,10.641c-0.086,0-0.172,0-0.266,0   C36.773,245.344,32,250.109,32,256s4.773,10.656,10.664,10.656c0.094,0,0.18,0,0.266,0c0.18,3.562,0.445,7.125,0.789,10.641   C43.375,277.312,43.023,277.344,42.664,277.344z M120.234,421.938c-4.031,4.031-9.383,6.25-15.086,6.25   c-5.695,0-11.055-2.219-15.086-6.25c-8.312-8.312-8.312-21.859,0-30.172c0.258-0.266,0.523-0.484,0.781-0.734   c2.258,2.75,4.578,5.469,6.961,8.094c-0.062,0.062-0.133,0.125-0.195,0.188c-4.164,4.156-4.164,10.906,0,15.078   s10.922,4.172,15.086,0c0.062-0.062,0.117-0.141,0.18-0.203c2.633,2.391,5.336,4.719,8.086,6.969   C120.727,421.406,120.492,421.688,120.234,421.938z M277.344,469.344c0,11.75-9.578,21.312-21.344,21.312   s-21.336-9.562-21.336-21.312c0-0.375,0.023-0.719,0.039-1.062c3.523,0.344,7.078,0.609,10.641,0.781c0,0.094,0,0.188,0,0.281   c0,5.875,4.766,10.656,10.656,10.656s10.656-4.781,10.656-10.656c0-0.094,0-0.188,0-0.281c3.562-0.172,7.125-0.438,10.641-0.781   C277.312,468.625,277.344,468.969,277.344,469.344z M428.188,406.844c0,11.766-9.578,21.344-21.344,21.344   c-6.25,0-11.906-2.719-15.812-7.031c2.766-2.25,5.469-4.578,8.094-6.969c0.062,0.062,0.125,0.141,0.188,0.203   c4.156,4.172,10.906,4.172,15.078,0s4.172-10.922,0-15.078c-0.062-0.062-0.141-0.125-0.203-0.188   c2.391-2.625,4.719-5.344,6.969-8.094C425.469,394.938,428.188,400.594,428.188,406.844z M432.922,330.719   c-9.672,22.875-23.516,43.406-41.156,61.047s-38.172,31.484-61.047,41.156C307.062,442.938,281.938,448,256,448   c-25.93,0-51.07-5.062-74.727-15.078c-22.859-9.672-43.398-23.516-61.039-41.156s-31.484-38.172-41.156-61.047   C69.07,307.062,64,281.938,64,256s5.07-51.07,15.078-74.727c9.672-22.859,23.516-43.398,41.156-61.039s38.18-31.484,61.039-41.156   C204.93,69.07,230.07,64,256,64c25.938,0,51.062,5.07,74.719,15.078c22.875,9.672,43.406,23.516,61.047,41.156   s31.484,38.18,41.156,61.039C442.938,204.93,448,230.062,448,256S442.938,307.062,432.922,330.719z M469.344,277.344   c-0.375,0-0.719-0.031-1.062-0.047c0.344-3.516,0.609-7.078,0.781-10.641c0.094,0,0.188,0,0.281,0   c5.875,0,10.656-4.766,10.656-10.656s-4.781-10.656-10.656-10.656c-0.094,0-0.188,0-0.281,0c-0.172-3.562-0.438-7.125-0.781-10.641   c0.344-0.016,0.688-0.047,1.062-0.047c11.75,0,21.312,9.578,21.312,21.344S481.094,277.344,469.344,277.344z"/><path d="M256,170.664c-47.125,0-85.336,38.211-85.336,85.336s38.211,85.344,85.336,85.344s85.344-38.219,85.344-85.344   S303.125,170.664,256,170.664z M256,320c-35.289,0-64-28.719-64-64c0-35.289,28.711-64,64-64c35.281,0,64,28.711,64,64   C320,291.281,291.281,320,256,320z"/><path d="M256,245.344c-5.891,0-10.656,4.766-10.656,10.656s4.766,10.656,10.656,10.656s10.656-4.766,10.656-10.656   S261.891,245.344,256,245.344z"/><path d="M256,128c5.891,0,10.656-4.773,10.656-10.664s-4.766-10.672-10.656-10.672s-10.656,4.781-10.656,10.672   S250.109,128,256,128z"/><path d="M256,384c-5.891,0-10.656,4.781-10.656,10.656c0,5.906,4.766,10.688,10.656,10.688s10.656-4.781,10.656-10.688   C266.656,388.781,261.891,384,256,384z"/><circle cx="186.668" cy="135.91" r="10.667"/><path d="M320,366.844c-5.094,2.953-6.844,9.469-3.906,14.578s9.469,6.859,14.562,3.906c5.109-2.953,6.859-9.469,3.906-14.578   C331.625,365.656,325.094,363.906,320,366.844z"/><circle cx="135.91" cy="186.668" r="10.667"/><path d="M381.422,316.094c-5.109-2.938-11.625-1.188-14.578,3.906c-2.938,5.094-1.188,11.625,3.906,14.562   c5.109,2.953,11.625,1.203,14.578-3.906C388.281,325.562,386.531,319.031,381.422,316.094z"/><path d="M117.336,245.344c-5.891,0-10.672,4.766-10.672,10.656s4.781,10.656,10.672,10.656S128,261.891,128,256   S123.227,245.344,117.336,245.344z"/><path d="M394.656,245.344c-5.875,0-10.656,4.766-10.656,10.656s4.781,10.656,10.656,10.656c5.906,0,10.688-4.766,10.688-10.656   S400.562,245.344,394.656,245.344z"/><path d="M130.578,316.094c-5.102,2.938-6.852,9.469-3.906,14.562c2.945,5.109,9.469,6.859,14.57,3.906   c5.102-2.938,6.852-9.469,3.906-14.562S135.68,313.156,130.578,316.094z"/><path d="M381.422,195.906c5.109-2.945,6.859-9.469,3.906-14.57c-2.953-5.109-9.469-6.852-14.578-3.906   c-5.094,2.945-6.844,9.469-3.906,14.57C369.797,197.102,376.312,198.852,381.422,195.906z"/><path d="M192,366.844c-5.102-2.938-11.625-1.188-14.57,3.906c-2.945,5.109-1.195,11.625,3.906,14.578s11.625,1.203,14.57-3.906   S197.102,369.797,192,366.844z"/><path d="M320,145.148c5.094,2.945,11.625,1.195,14.562-3.906c2.953-5.102,1.203-11.625-3.906-14.57   c-5.094-2.945-11.625-1.195-14.562,3.906S314.906,142.203,320,145.148z"/></g></svg>