<?xml version="1.0" ?><!DOCTYPE svg  PUBLIC '-//W3C//DTD SVG 1.1//EN'  'http://www.w3.org/Graphics/SVG/1.1/DTD/svg11.dtd'><svg enable-background="new 0 0 512 512" height="512px" id="Layer_1" version="1.1" viewBox="0 0 512 512" width="512px" xml:space="preserve" xmlns="http://www.w3.org/2000/svg" xmlns:xlink="http://www.w3.org/1999/xlink"><g id="ship"><path d="M351.999,415.895c5.891,0,10.656-4.766,10.656-10.656s-4.766-10.672-10.656-10.672s-10.672,4.781-10.672,10.672   S346.108,415.895,351.999,415.895z"/><path d="M245.343,415.895c5.891,0,10.656-4.766,10.656-10.656s-4.766-10.672-10.656-10.672s-10.664,4.781-10.664,10.672   S239.452,415.895,245.343,415.895z"/><path d="M138.687,416.051c5.891,0,10.664-4.766,10.664-10.656s-4.773-10.672-10.664-10.672s-10.664,4.781-10.664,10.672   S132.796,416.051,138.687,416.051z"/><path d="M485.03,248.566c-5.75-8.391-15.422-13.906-26.375-13.906c-17.672,0-32,14.328-32,32s14.328,32,32,32   c4.062,0,7.938-0.766,11.516-2.156c8.875,31.844-10.141,59.953-91.375,75.703c-7.328-5.922-16.641-9.469-26.797-9.469   c-14.312,0-26.953,7.031-34.688,17.844c-11.094,1.016-22.906,1.875-35.438,2.594c-5.719-9.406-14.938-16.453-25.875-19.266v-36.484   c70.156,2.062,125.188,13.531,125.781,13.656l12,2.547l0.812-11.578c0.234-0.906,0.844-2.938,1.375-4.766   c5-16.75,18.25-61.297,18.312-111.836c0.031-28.93-4.312-55.32-12.938-78.445c-10.562-28.414-27.688-52.188-50.844-70.664   l-2.906-2.32h-91.594v-32c0-5.891-4.766-10.664-10.656-10.664s-10.664,4.773-10.664,10.664v32H63.772L76.882,81.16   c19.055,24.914,32,53.156,38.484,83.945c5.227,24.805,6.305,51.352,3.203,78.898c-5.32,47.406-21.359,81.734-21.516,82.078   l-9.734,20.484l21.992-5.578c36.375-9.219,78.555-13.891,125.367-13.891v36.812c-11.625,3-21.336,10.766-26.906,21.094   c-11.367-0.141-22.086-0.484-32.195-1.016c-7.383-12.703-21.133-21.25-36.891-21.25c-12.398,0-23.562,5.281-31.352,13.734   c-51.703-9.312-76.547-23.922-89.258-32.188c0,0-0.016,0-0.023-0.016c-1.914-1.828-4.5-2.953-7.352-2.953   c-5.891,0-10.672,4.781-10.672,10.672c-0.75,29.5,13,110.844,42.43,138.656h384.43c0,0,74.641-44.719,84.125-136.656   C516.937,296.613,494.593,260.941,485.03,248.566z M458.655,277.316c-5.875,0-10.672-4.781-10.672-10.656   s4.797-10.656,10.672-10.656s10.656,4.781,10.656,10.656S464.53,277.316,458.655,277.316z M351.999,384.066   c11.75,0,21.328,9.562,21.328,21.328s-9.578,21.328-21.328,21.328c-11.766,0-21.344-9.562-21.344-21.328   S340.233,384.066,351.999,384.066z M136.335,161.152c-5.68-27.211-15.938-52.633-30.57-75.805h234.281   c35.172,29.547,52.969,73.281,52.891,130.078c-0.047,44.828-11.312,85.141-16.562,102.906   c-21.703-3.938-76.719-12.562-141.672-12.562c-40.32,0-77.445,3.359-110.68,10.031c5.445-15.641,12.344-39.734,15.664-68.672   C143.124,217.207,141.991,188.285,136.335,161.152z M245.343,383.91c11.75,0,21.328,9.562,21.328,21.328   c0,11.75-9.578,21.328-21.328,21.328c-11.766,0-21.336-9.578-21.336-21.328C224.007,393.473,233.577,383.91,245.343,383.91z    M138.687,384.066c11.758,0,21.328,9.562,21.328,21.328s-9.57,21.328-21.328,21.328c-11.766,0-21.328-9.562-21.328-21.328   S126.921,384.066,138.687,384.066z M489.796,351.785c-1.875,18.188-6.828,35.734-14.703,52.188   c-6.406,13.312-14.734,25.984-24.781,37.656c-12.031,13.969-23.75,23.234-29.938,27.672H52.085   c-7.953-10.922-15.578-29.484-21.492-52.625c-4.062-15.938-6.789-32.125-8.18-45.094c11.625,6.109,26.945,12.625,48.109,18.453   c8.359,2.312,17.203,4.375,26.5,6.188c-0.648,2.953-1,6.016-1,9.172c0,23.562,19.102,42.656,42.664,42.656   c23.484,0,42.539-18.984,42.656-42.438c6.969,0.297,14.094,0.516,21.359,0.656c0.547,23.078,19.422,41.625,42.641,41.625   c23.562,0,42.656-19.094,42.656-42.656c0-0.359-0.016-0.703-0.031-1.047c7.375-0.453,14.531-0.953,21.469-1.516   c-0.062,0.906-0.094,1.797-0.094,2.719c0,23.562,19.094,42.656,42.656,42.656s42.656-19.094,42.656-42.656   c0-4.969-0.844-9.734-2.406-14.172c8.688-1.891,16.812-3.969,24.344-6.234c36.219-10.875,59.125-26.172,70.031-46.781   c1.594-3,2.906-6.094,3.938-9.25C490.858,336.363,490.608,343.973,489.796,351.785z"/></g></svg>