<?xml version="1.0" encoding="iso-8859-1"?>
<!-- Generator: Adobe Illustrator 19.0.0, SVG Export Plug-In . SVG Version: 6.00 Build 0)  -->
<svg version="1.1" id="Capa_1" xmlns="http://www.w3.org/2000/svg" xmlns:xlink="http://www.w3.org/1999/xlink" x="0px" y="0px"
	 viewBox="0 0 463 463" style="enable-background:new 0 0 463 463;" xml:space="preserve">
<g>
	<path d="M431.5,64H278.924c0.045-0.495,0.076-0.994,0.076-1.5v-22c0-9.099-7.402-16.5-16.5-16.5H207v-8.5
		C207,6.953,200.047,0,191.5,0h-96C86.953,0,80,6.953,80,15.5V24H24.5C15.402,24,8,31.401,8,40.5v22c0,8.93,7.134,16.207,16,16.475
		v329.051c-8.866,0.268-16,7.545-16,16.475v22c0,9.099,7.402,16.5,16.5,16.5h238c9.098,0,16.5-7.401,16.5-16.5v-22
		c0-0.506-0.031-1.005-0.076-1.5H399.5c12.958,0,23.5-10.542,23.5-23.5v-24c0-4.687,3.813-8.5,8.5-8.5
		c12.958,0,23.5-10.542,23.5-23.5v-256C455,74.542,444.458,64,431.5,64z M39,408V79h209v329H39z M95,15.5c0-0.275,0.224-0.5,0.5-0.5
		h96c0.276,0,0.5,0.225,0.5,0.5V24H95V15.5z M23,62.5v-22c0-0.827,0.673-1.5,1.5-1.5h238c0.827,0,1.5,0.673,1.5,1.5v22
		c0,0.827-0.673,1.5-1.5,1.5h-238C23.673,64,23,63.327,23,62.5z M264,424.5v22c0,0.827-0.673,1.5-1.5,1.5h-238
		c-0.827,0-1.5-0.673-1.5-1.5v-22c0-0.827,0.673-1.5,1.5-1.5h238C263.327,423,264,423.673,264,424.5z M440,343.5
		c0,4.687-3.813,8.5-8.5,8.5c-12.958,0-23.5,10.542-23.5,23.5v24c0,4.687-3.813,8.5-8.5,8.5H263V79h168.5c4.687,0,8.5,3.813,8.5,8.5
		V343.5z"/>
	<path d="M383.5,96c-4.142,0-7.5,3.357-7.5,7.5v24c0,4.143,3.358,7.5,7.5,7.5s7.5-3.357,7.5-7.5v-24C391,99.357,387.642,96,383.5,96
		z"/>
	<path d="M415.5,96c-4.142,0-7.5,3.357-7.5,7.5v24c0,4.143,3.358,7.5,7.5,7.5s7.5-3.357,7.5-7.5v-24C423,99.357,419.642,96,415.5,96
		z"/>
	<path d="M351.5,96c-4.142,0-7.5,3.357-7.5,7.5v24c0,4.143,3.358,7.5,7.5,7.5s7.5-3.357,7.5-7.5v-24C359,99.357,355.642,96,351.5,96
		z"/>
	<path d="M319.5,96c-4.142,0-7.5,3.357-7.5,7.5v24c0,4.143,3.358,7.5,7.5,7.5s7.5-3.357,7.5-7.5v-24C327,99.357,323.642,96,319.5,96
		z"/>
	<path d="M287.5,96c-4.142,0-7.5,3.357-7.5,7.5v24c0,4.143,3.358,7.5,7.5,7.5s7.5-3.357,7.5-7.5v-24C295,99.357,291.642,96,287.5,96
		z"/>
	<path d="M191.5,96c-4.142,0-7.5,3.357-7.5,7.5v24c0,4.143,3.358,7.5,7.5,7.5s7.5-3.357,7.5-7.5v-24C199,99.357,195.642,96,191.5,96
		z"/>
	<path d="M223.5,96c-4.142,0-7.5,3.357-7.5,7.5v24c0,4.143,3.358,7.5,7.5,7.5s7.5-3.357,7.5-7.5v-24C231,99.357,227.642,96,223.5,96
		z"/>
	<path d="M159.5,96c-4.142,0-7.5,3.357-7.5,7.5v24c0,4.143,3.358,7.5,7.5,7.5s7.5-3.357,7.5-7.5v-24C167,99.357,163.642,96,159.5,96
		z"/>
	<path d="M127.5,96c-4.142,0-7.5,3.357-7.5,7.5v24c0,4.143,3.358,7.5,7.5,7.5s7.5-3.357,7.5-7.5v-24C135,99.357,131.642,96,127.5,96
		z"/>
	<path d="M63.5,96c-4.142,0-7.5,3.357-7.5,7.5v24c0,4.143,3.358,7.5,7.5,7.5s7.5-3.357,7.5-7.5v-24C71,99.357,67.642,96,63.5,96z"/>
	<path d="M95.5,96c-4.142,0-7.5,3.357-7.5,7.5v24c0,4.143,3.358,7.5,7.5,7.5s7.5-3.357,7.5-7.5v-24C103,99.357,99.642,96,95.5,96z"
		/>
	<path d="M191.5,352c-4.142,0-7.5,3.357-7.5,7.5v24c0,4.143,3.358,7.5,7.5,7.5s7.5-3.357,7.5-7.5v-24
		C199,355.357,195.642,352,191.5,352z"/>
	<path d="M223.5,352c-4.142,0-7.5,3.357-7.5,7.5v24c0,4.143,3.358,7.5,7.5,7.5s7.5-3.357,7.5-7.5v-24
		C231,355.357,227.642,352,223.5,352z"/>
	<path d="M159.5,352c-4.142,0-7.5,3.357-7.5,7.5v24c0,4.143,3.358,7.5,7.5,7.5s7.5-3.357,7.5-7.5v-24
		C167,355.357,163.642,352,159.5,352z"/>
	<path d="M127.5,352c-4.142,0-7.5,3.357-7.5,7.5v24c0,4.143,3.358,7.5,7.5,7.5s7.5-3.357,7.5-7.5v-24
		C135,355.357,131.642,352,127.5,352z"/>
	<path d="M63.5,352c-4.142,0-7.5,3.357-7.5,7.5v24c0,4.143,3.358,7.5,7.5,7.5s7.5-3.357,7.5-7.5v-24C71,355.357,67.642,352,63.5,352
		z"/>
	<path d="M95.5,352c-4.142,0-7.5,3.357-7.5,7.5v24c0,4.143,3.358,7.5,7.5,7.5s7.5-3.357,7.5-7.5v-24
		C103,355.357,99.642,352,95.5,352z"/>
	<path d="M383.5,352c-4.142,0-7.5,3.357-7.5,7.5v24c0,4.143,3.358,7.5,7.5,7.5s7.5-3.357,7.5-7.5v-24
		C391,355.357,387.642,352,383.5,352z"/>
	<path d="M351.5,352c-4.142,0-7.5,3.357-7.5,7.5v24c0,4.143,3.358,7.5,7.5,7.5s7.5-3.357,7.5-7.5v-24
		C359,355.357,355.642,352,351.5,352z"/>
	<path d="M319.5,352c-4.142,0-7.5,3.357-7.5,7.5v24c0,4.143,3.358,7.5,7.5,7.5s7.5-3.357,7.5-7.5v-24
		C327,355.357,323.642,352,319.5,352z"/>
	<path d="M287.5,352c-4.142,0-7.5,3.357-7.5,7.5v24c0,4.143,3.358,7.5,7.5,7.5s7.5-3.357,7.5-7.5v-24
		C295,355.357,291.642,352,287.5,352z"/>
</g>
<g>
</g>
<g>
</g>
<g>
</g>
<g>
</g>
<g>
</g>
<g>
</g>
<g>
</g>
<g>
</g>
<g>
</g>
<g>
</g>
<g>
</g>
<g>
</g>
<g>
</g>
<g>
</g>
<g>
</g>
</svg>
