<?xml version="1.0" ?><!DOCTYPE svg  PUBLIC '-//W3C//DTD SVG 1.1//EN'  'http://www.w3.org/Graphics/SVG/1.1/DTD/svg11.dtd'><svg enable-background="new 0 0 512 512" height="512px" id="Layer_1" version="1.1" viewBox="0 0 512 512" width="512px" xml:space="preserve" xmlns="http://www.w3.org/2000/svg" xmlns:xlink="http://www.w3.org/1999/xlink"><g id="hammer"><path d="M512,271.527l-60.343-30.156l-59.688-59.703c16.501-16.867,16.407-43.921-0.328-60.655   c-8.422-8.422-19.452-12.633-30.484-12.633c-10.906,0-21.796,4.109-30.171,12.312l-60.358-60.351L240.472,0.007L59.451,181.028   l60.343,30.163l60.335,60.336L12.498,439.166c-16.664,16.655-16.664,43.672,0,60.343c8.335,8.328,19.25,12.484,30.172,12.484   c10.921,0,21.835-4.156,30.171-12.484L240.472,331.87l60.343,60.343l30.155,60.344l15.094-15.094l0,0L496.906,286.62l0,0   L512,271.527z M406.408,346.963c4.156-4.171,4.156-10.937,0-15.093c-4.172-4.156-10.907-4.156-15.095,0l64.562-64.546   l20.109,10.046L406.408,346.963z M315.893,377.12L134.879,196.106L255.565,75.428l180.998,181.021L315.893,377.12z    M134.879,150.856c-4.172-4.164-10.922-4.172-15.085,0l45.249-45.257c-4.164,4.172-4.164,10.922,0,15.086   c4.165,4.164,10.914,4.164,15.078,0.008l-45.242,45.241C139.043,161.771,139.043,155.021,134.879,150.856z M361.157,129.708   L361.157,129.708c5.812,0,11.282,2.273,15.407,6.391c4.109,4.117,6.374,9.585,6.374,15.406c0,5.672-2.155,11-6.062,15.078   l-30.812-30.804C350.157,131.865,355.47,129.716,361.157,129.708z M244.691,56.131L225.394,75.42   c4.156-4.164,4.156-10.914-0.008-15.078c-4.164-4.164-10.922-4.164-15.086,0c-4.164,4.172-4.164,10.921,0,15.085   c4.164,4.164,10.906,4.164,15.078,0.016l-45.242,45.234c4.156-4.164,4.156-10.914-0.008-15.078s-10.914-4.164-15.078,0   l69.577-69.578L244.691,56.131z M119.794,150.856c-4.164,4.165-4.164,10.922,0,15.086c4.164,4.165,10.914,4.165,15.078,0   l-19.289,19.297l-20.117-10.062L119.794,150.856z M128.004,353.839l21.328-21.344v60.343l-21.328,21.344V353.839z M106.669,435.494   l-21.336,21.343v-60.343l21.336-21.327V435.494z M42.67,490.665c-5.696,0-11.055-2.218-15.086-6.249   c-8.321-8.313-8.321-21.845,0-30.173l36.414-36.405l0.008,60.327l-6.25,6.251C53.724,488.447,48.365,490.665,42.67,490.665z    M170.668,371.495v-60.328l24.546-24.547l30.172,30.156L170.668,371.495z M326.768,396.432l64.546-64.562   c-4.156,4.172-4.156,10.922,0,15.093c4.172,4.156,10.923,4.156,15.095,0l-69.594,69.563L326.768,396.432z"/><path d="M436.563,286.62c-4.156,4.157-4.156,10.907,0,15.079c4.172,4.172,10.938,4.172,15.094,0c4.155-4.172,4.155-10.922,0-15.079   C447.501,282.448,440.735,282.448,436.563,286.62z"/><path d="M346.064,377.12c-4.156,4.171-4.156,10.921,0,15.093c4.155,4.156,10.921,4.156,15.093,0c4.156-4.172,4.156-10.922,0-15.093   C356.985,372.964,350.22,372.964,346.064,377.12z"/><path d="M330.971,181.028c-12.5-12.5-28.874-18.75-45.249-18.75s-32.75,6.25-45.25,18.75c-24.993,24.992-24.993,65.515,0,90.499   c12.5,12.499,28.875,18.75,45.25,18.75s32.749-6.251,45.249-18.75C355.97,246.543,355.97,206.02,330.971,181.028z M328.299,223.598   l-39.89-39.89c10.375,0.633,20.062,4.977,27.483,12.398C323.314,203.536,327.658,213.207,328.299,223.598z M243.16,228.966   l39.875,39.89c-10.374-0.641-20.062-4.984-27.469-12.406C248.128,249.027,243.785,239.34,243.16,228.966z M307.409,263.043   l-58.438-58.445c1.797-3.055,4-5.914,6.594-8.492c2.562-2.578,5.422-4.781,8.469-6.593l58.452,58.452   c-1.812,3.047-4.016,5.906-6.594,8.484S310.471,261.23,307.409,263.043z"/></g></svg>