<?xml version="1.0" ?><!DOCTYPE svg  PUBLIC '-//W3C//DTD SVG 1.1//EN'  'http://www.w3.org/Graphics/SVG/1.1/DTD/svg11.dtd'><svg enable-background="new 0 0 512 512" height="512px" id="Layer_1" version="1.1" viewBox="0 0 512 512" width="512px" xml:space="preserve" xmlns="http://www.w3.org/2000/svg" xmlns:xlink="http://www.w3.org/1999/xlink"><path d="M442.58,145.543c17.743-5.454,30.638-21.973,30.638-41.506c0-23.976-19.429-43.413-43.405-43.413  s-43.422,19.437-43.422,43.413h-32.752V71.476c0-5.994-4.865-10.852-10.859-10.852s-10.844,4.857-10.844,10.852v32.562h-21.719  V38.913c0-5.994-4.85-10.851-10.844-10.851s-10.859,4.857-10.859,10.851v65.124h-21.702V6.352c0-5.994-4.865-10.852-10.859-10.852  s-10.859,4.857-10.859,10.852v97.686H223.39V38.913c0-5.994-4.865-10.851-10.859-10.851c-5.994,0-10.843,4.857-10.843,10.851v65.124  h-21.719V71.476c0-5.994-4.849-10.852-10.843-10.852s-10.859,4.857-10.859,10.852v32.562h-32.657  c0-23.976-19.445-43.413-43.421-43.413s-43.405,19.437-43.405,43.413c0,19.533,12.895,36.052,30.638,41.506  c-16.09,40.687-24.915,83.003-25.662,123.498c-0.906,48.923,10.16,92.741,32.021,126.719c19.016,29.557,45.536,51.021,78.4,63.788  L125.704,516.5H386.2l-28.46-56.92c32.896-12.768,59.448-34.231,78.479-63.82c21.862-33.978,32.928-77.796,32.021-126.719  C467.494,228.546,458.67,186.229,442.58,145.543z M429.812,82.334c11.973,0,21.703,9.739,21.703,21.703  c0,11.973-9.73,21.711-21.703,21.711s-21.719-9.738-21.719-21.711C408.094,92.073,417.84,82.334,429.812,82.334z M391.002,125.748  c11.94,48.962,17.41,89.156,16.727,122.528c-0.748,36.188-8.697,63.566-24.311,83.742c-7.822,10.097-17.729,18.46-29.779,25.105  V125.748H391.002z M331.936,125.748v240.725c-6.758,2.258-13.991,4.118-21.719,5.629V125.748H331.936z M288.514,125.748v249.485  c-6.916,0.684-14.15,1.129-21.702,1.352V125.748H288.514z M245.093,125.748v250.837c-7.552-0.223-14.786-0.668-21.703-1.367v-249.47  H245.093z M201.688,125.748v246.321c-7.727-1.494-14.961-3.37-21.719-5.628V125.748H201.688z M158.266,125.748v231.312  c-12.004-6.646-21.877-14.978-29.684-25.042c-15.613-20.176-23.563-47.555-24.31-83.742c-0.684-33.372,4.786-73.566,16.726-122.528  H158.266z M60.485,104.037c0-11.964,9.73-21.703,21.703-21.703c11.973,0,21.719,9.739,21.719,21.703  c0,11.973-9.746,21.711-21.719,21.711C70.215,125.748,60.485,116.01,60.485,104.037z M160.826,494.781l10.859-21.702h168.533  l10.859,21.702H160.826z M417.967,384.01c-13.625,21.179-31.782,37.666-53.979,49.034c-21.002,10.732-45.646,16.885-73.391,18.332  h-69.195c-27.745-1.447-52.389-7.6-73.392-18.332c-22.196-11.368-40.353-27.855-53.979-49.034  c-19.525-30.352-29.398-69.957-28.571-114.555c0.748-40.353,10.096-82.749,27.125-123.261c0.541-0.135,1.065-0.278,1.59-0.429  c-19.97,94.848-14.325,158.795,17.251,199.545c27.681,35.742,74.966,53.12,144.525,53.136v0.017H256c0.016,0,0.031,0,0.048,0v-0.017  c69.56-0.016,116.845-17.394,144.525-53.136c31.576-40.75,37.221-104.697,17.251-199.545c0.525,0.15,1.049,0.294,1.59,0.429  c17.028,40.512,26.393,82.908,27.125,123.261C447.365,314.053,437.492,353.658,417.967,384.01z" id="harp"/></svg>