<?xml version="1.0" ?><!DOCTYPE svg  PUBLIC '-//W3C//DTD SVG 1.1//EN'  'http://www.w3.org/Graphics/SVG/1.1/DTD/svg11.dtd'><svg enable-background="new 0 0 512 512" height="512px" id="Layer_1" version="1.1" viewBox="0 0 512 512" width="512px" xml:space="preserve" xmlns="http://www.w3.org/2000/svg" xmlns:xlink="http://www.w3.org/1999/xlink"><g id="igloo"><path d="M213.34,373.348c5.891,0,10.664-4.781,10.664-10.688c0-5.875-4.773-10.656-10.664-10.656s-10.672,4.781-10.672,10.656   C202.668,368.566,207.449,373.348,213.34,373.348z"/><path d="M255.996,53.34C114.621,53.34,0.004,167.949,0.004,309.348V458.66h511.992V309.348   C511.996,167.949,397.387,53.34,255.996,53.34z M472.246,218.004c3.781,8.938,6.969,18.062,9.594,27.344h-65.844v-42.68h49.094   C467.652,207.676,470.027,212.793,472.246,218.004z M255.996,266.66c22.812,0,44.219,8.875,60.344,25s25,37.547,25,60.344v85.344   H170.668v-85.344c0-22.797,8.883-44.219,24.992-60.344C211.785,275.535,233.207,266.66,255.996,266.66z M244.527,245.348H117.34   v-42.68h127.188V245.348z M191.996,266.66c-14.641,11-26.352,25.688-33.773,42.688H64.004V266.66H191.996z M116.527,330.66h34.945   c-1.398,6.906-2.133,14.031-2.133,21.344v21.344h-32.812V330.66z M360.527,330.66h33.344v42.688h-31.203v-21.344   C362.668,344.691,361.934,337.566,360.527,330.66z M353.777,309.348c-7.406-17-19.125-31.688-33.766-42.688h127.984v42.688H353.777   z M265.871,245.348v-42.68h128.797v42.68H265.871z M421.934,143.402c11.656,11.648,21.938,24.336,30.797,37.938H341.34v-42.672   h75.719C418.699,140.223,420.34,141.793,421.934,143.402z M265.871,74.887c28.188,1.156,55.562,7.258,81.469,18.219   c15.469,6.539,30.047,14.648,43.656,24.234H265.871V74.887z M319.996,138.668v42.672H192.004v-42.672H319.996z M164.668,93.105   c25.414-10.75,52.227-16.836,79.859-18.156v42.391H121.02C134.621,107.754,149.207,99.645,164.668,93.105z M90.066,143.402   c1.609-1.609,3.242-3.18,4.883-4.734h75.719v42.672H59.277C68.145,167.738,78.426,155.051,90.066,143.402z M39.77,218.004   c2.203-5.211,4.586-10.328,7.141-15.336h49.094v42.68H30.16C32.785,236.066,35.988,226.941,39.77,218.004z M25.207,266.66h17.461   v42.688H21.34C21.34,294.879,22.645,280.629,25.207,266.66z M21.34,330.66h73.852v42.688H21.34V330.66z M42.668,437.348H21.34   V394.66h21.328V437.348z M64.004,437.348V394.66h85.336v42.688H64.004z M447.996,437.348h-85.328V394.66h85.328V437.348z    M490.668,437.348H469.34V394.66h21.328V437.348z M490.668,373.348h-75.484V330.66h75.484V373.348z M469.34,309.348V266.66h17.469   c2.562,13.969,3.859,28.219,3.859,42.688H469.34z"/></g></svg>