<svg width="25.714286" height="25.714286" viewBox="0.000000 -49.285714 25.714286 25.714286" xmlns="http://www.w3.org/2000/svg"><path d="M22.801339 -27.555804L22.801339 -38.404018L20.541295 -38.404018C20.764509 -37.700893 20.876116 -36.969866 20.876116 -36.210938C20.876116 -34.804688 20.518973 -33.507254 19.804688 -32.318638C19.090402 -31.130022 18.119420 -30.189732 16.891741 -29.497768C15.664062 -28.805804 14.324777 -28.459821 12.873884 -28.459821C10.675223 -28.459821 8.794643 -29.215960 7.232143 -30.728237C5.669643 -32.240513 4.888393 -34.068080 4.888393 -36.210938C4.888393 -36.969866 5.000000 -37.700893 5.223214 -38.404018L2.862723 -38.404018L2.862723 -27.555804C2.862723 -27.265625 2.960379 -27.022879 3.155692 -26.827567C3.351004 -26.632254 3.593750 -26.534598 3.883929 -26.534598L21.780134 -26.534598C22.059152 -26.534598 22.299107 -26.632254 22.500000 -26.827567C22.700893 -27.022879 22.801339 -27.265625 22.801339 -27.555804ZM18.046875 -36.478795C18.046875 -37.862723 17.541853 -39.042969 16.531808 -40.019531C15.521763 -40.996094 14.302455 -41.484375 12.873884 -41.484375C11.456473 -41.484375 10.242746 -40.996094 9.232701 -40.019531C8.222656 -39.042969 7.717634 -37.862723 7.717634 -36.478795C7.717634 -35.094866 8.222656 -33.914621 9.232701 -32.938058C10.242746 -31.961496 11.456473 -31.473214 12.873884 -31.473214C14.302455 -31.473214 15.521763 -31.961496 16.531808 -32.938058C17.541853 -33.914621 18.046875 -35.094866 18.046875 -36.478795ZM22.801339 -42.505580L22.801339 -45.267857C22.801339 -45.580357 22.689732 -45.851004 22.466518 -46.079799C22.243304 -46.308594 21.969866 -46.422991 21.646205 -46.422991L18.733259 -46.422991C18.409598 -46.422991 18.136161 -46.308594 17.912946 -46.079799C17.689732 -45.851004 17.578125 -45.580357 17.578125 -45.267857L17.578125 -42.505580C17.578125 -42.181920 17.689732 -41.908482 17.912946 -41.685268C18.136161 -41.462054 18.409598 -41.350446 18.733259 -41.350446L21.646205 -41.350446C21.969866 -41.350446 22.243304 -41.462054 22.466518 -41.685268C22.689732 -41.908482 22.801339 -42.181920 22.801339 -42.505580ZM25.714286 -45.987723L25.714286 -26.869420C25.714286 -25.965402 25.390625 -25.189732 24.743304 -24.542411C24.095982 -23.895089 23.320312 -23.571429 22.416295 -23.571429L3.297991 -23.571429C2.393973 -23.571429 1.618304 -23.895089 0.970982 -24.542411C0.323661 -25.189732 0.000000 -25.965402 0.000000 -26.869420L0.000000 -45.987723C0.000000 -46.891741 0.323661 -47.667411 0.970982 -48.314732C1.618304 -48.962054 2.393973 -49.285714 3.297991 -49.285714L22.416295 -49.285714C23.320312 -49.285714 24.095982 -48.962054 24.743304 -48.314732C25.390625 -47.667411 25.714286 -46.891741 25.714286 -45.987723ZM25.714286 -45.987723"></path></svg>