<?xml version="1.0" ?><!DOCTYPE svg  PUBLIC '-//W3C//DTD SVG 1.1//EN'  'http://www.w3.org/Graphics/SVG/1.1/DTD/svg11.dtd'><svg enable-background="new 0 0 512 512" height="512px" id="Layer_1" version="1.1" viewBox="0 0 512 512" width="512px" xml:space="preserve" xmlns="http://www.w3.org/2000/svg" xmlns:xlink="http://www.w3.org/1999/xlink"><g id="lamp"><path d="M363.938,53.648l-2.547-0.633c-11.281-2.82-26.281-5.391-41.391-7.258V10.664C320,4.773,315.219,0,309.328,0H202.672   C196.781,0,192,4.773,192,10.664V45.75c-15.109,1.875-30.109,4.445-41.391,7.266l-2.547,0.633   c-22.766,5.695-40.328,29.523-39.031,52.953l16.594,298.805C126.938,428.828,147.203,448,170.672,448h42.656v32   c0,5.891,4.781,10.656,10.672,10.656s10.672-4.766,10.672-10.656v-32h10.656v53.344c0,5.875,4.781,10.656,10.672,10.656   s10.672-4.781,10.672-10.656V448h10.656v32c0,5.891,4.781,10.656,10.672,10.656s10.672-4.766,10.672-10.656v-32h42.656   c23.469,0,43.734-19.172,45.031-42.594l16.609-298.805C404.266,83.172,386.703,59.344,363.938,53.648z M330.672,245.344   c0,19.938-7.766,38.688-21.875,52.781C294.688,312.234,275.938,320,256,320s-38.703-7.766-52.797-21.875   c-14.109-14.094-21.875-32.844-21.875-52.781c0-19.953,7.766-38.703,21.875-52.805c14.094-14.109,32.859-21.875,52.797-21.875   s38.688,7.766,52.797,21.875C322.906,206.641,330.672,225.391,330.672,245.344z M165.469,277.344h-25.578l-3.562-64.008h29.141   c-3.531,10.008-5.469,20.773-5.469,32.008C160,256.562,161.938,267.312,165.469,277.344z M141.062,298.656h35.109   c17.219,25.734,46.547,42.688,79.828,42.688s62.609-16.953,79.828-42.688h35.094l-3.594,64.891v-0.891H144.625L141.062,298.656z    M346.531,277.344c3.531-10.031,5.469-20.781,5.469-32c0-11.234-1.938-22-5.469-32.008h29.141l-3.562,64.008H346.531z M335.828,192   c-17.219-25.727-46.547-42.664-79.828-42.664S193.391,166.273,176.172,192h-41.031l-3.547-64h248.812l-3.547,64H335.828z    M213.328,21.336h85.344v22.266c-7.766-0.602-15.062-0.938-21.344-0.938h-42.656c-6.281,0-13.578,0.336-21.344,0.938V21.336z    M136.688,86.133c4.391-5.961,10.422-10.258,16.547-11.781l2.547-0.641C176.844,68.445,212.969,64,234.672,64h42.656   c21.703,0,57.828,4.445,78.891,9.711l2.547,0.641c6.125,1.523,12.141,5.82,16.547,11.781c4.391,5.961,6.703,12.984,6.359,19.281   l-0.078,1.25H130.406l-0.078-1.25C129.984,99.117,132.297,92.094,136.688,86.133z M341.328,426.656H170.672   c-12.188,0-23.062-10.281-23.734-22.438L145.812,384h220.375l-1.125,20.219C364.391,416.375,353.516,426.656,341.328,426.656z"/><path d="M256,192c-29.453,0-53.328,23.875-53.328,53.344c0,29.438,23.875,53.312,53.328,53.312s53.328-23.875,53.328-53.312   C309.328,215.875,285.453,192,256,192z M256,277.344c-17.641,0-32-14.375-32-32c0-17.656,14.359-32.008,32-32.008   s32,14.352,32,32.008C288,262.969,273.641,277.344,256,277.344z"/><path d="M256,234.656c-5.891,0-10.672,4.781-10.672,10.688c0,5.875,4.781,10.656,10.672,10.656s10.672-4.781,10.672-10.656   C266.672,239.438,261.891,234.656,256,234.656z"/></g></svg>