<?xml version="1.0" encoding="iso-8859-1"?>
<!-- Generator: Adobe Illustrator 18.0.0, SVG Export Plug-In . SVG Version: 6.00 Build 0)  -->
<!DOCTYPE svg PUBLIC "-//W3C//DTD SVG 1.1//EN" "http://www.w3.org/Graphics/SVG/1.1/DTD/svg11.dtd">
<svg version="1.1" id="Capa_1" xmlns="http://www.w3.org/2000/svg" xmlns:xlink="http://www.w3.org/1999/xlink" x="0px" y="0px"
	 viewBox="0 0 457.001 457.001" style="enable-background:new 0 0 457.001 457.001;" xml:space="preserve">
<g>
	<path d="M42.755,125.406c0.178,2.901,2.583,5.163,5.489,5.163h71.548c2.551,0,4.768-1.754,5.354-4.237
		c0.39-1.652,0.587-3.307,0.587-4.919c0-11.769-9.575-21.344-21.344-21.344c-2.759,0-5.44,0.523-7.946,1.536
		c-4.61-5.051-11.195-8.036-18.177-8.036c-8.98,0-17.272,5.011-21.551,12.753c-8.083,2.014-14.012,9.324-14.012,17.935
		c0,0.335,0.019,0.664,0.041,0.993L42.755,125.406z M60.766,116.786c2.155-0.124,4.039-1.497,4.815-3.511
		c2.01-5.207,7.106-8.705,12.685-8.705c4.883,0,9.417,2.646,11.832,6.905c0.78,1.376,2.116,2.35,3.665,2.672s3.162-0.039,4.427-0.99
		c1.813-1.365,3.956-2.086,6.199-2.086c5.074,0,9.308,3.673,10.179,8.5h-59.21C56.644,117.974,58.573,116.912,60.766,116.786z"/>
	<path d="M456.383,240.537c-1.397-2.696-4.717-3.75-7.415-2.351l-43.688,22.653l-49.223-72.849
		c-1.205-1.783-3.334-2.701-5.462-2.346l-8.334,1.389l-48.065-78.827c-0.78-1.278-2.047-2.184-3.509-2.507
		c-1.464-0.323-2.992-0.037-4.238,0.794l-7.887,5.258L259.99,89.449h35.1c2.725,0,5.038-1.994,5.439-4.689
		c0.239-1.603,0.351-2.972,0.351-4.311c0-15.958-12.982-28.94-28.94-28.94c-3.243,0-6.464,0.553-9.516,1.621
		c-6.606-9.072-17.148-14.531-28.574-14.531c-11.432,0-21.977,5.459-28.583,14.531c-3.052-1.068-6.272-1.621-9.517-1.621
		c-15.952,0-28.931,12.982-28.931,28.94c0,1.339,0.111,2.708,0.351,4.311c0.401,2.695,2.715,4.689,5.439,4.689h43.535l-59.828,76.22
		l-7.766-5.177c-2.42-1.613-5.677-1.064-7.433,1.253l-39.643,52.272l-9.948-10.695c-1.723-1.852-4.487-2.29-6.698-1.062
		l-14.494,8.052L9.262,153.057c-2.216-2.077-5.695-1.966-7.774,0.251c-2.077,2.216-1.965,5.697,0.251,7.774l64,60
		c1.744,1.635,4.345,1.957,6.433,0.795l14.235-7.908l77.066,82.847c1.41,1.515,3.553,2.111,5.538,1.542l11.041-3.154
		l132.763,121.753c1.057,0.969,2.389,1.447,3.716,1.447c1.488,0,2.971-0.6,4.056-1.783c2.053-2.239,1.902-5.718-0.336-7.771
		l-76.698-70.337l86.023-39.427l11.758,5.039c1.514,0.649,3.238,0.585,4.699-0.173l108-56
		C456.728,246.553,457.781,243.234,456.383,240.537z M177.93,78.449c0.998-8.954,8.609-15.94,17.82-15.94
		c3.15,0,6.142,0.801,8.891,2.379c1.296,0.744,2.841,0.929,4.274,0.512c1.436-0.417,2.639-1.401,3.334-2.724
		c4.236-8.066,12.514-13.077,21.601-13.077c9.081,0,17.354,5.011,21.591,13.077c0.695,1.323,1.898,2.307,3.334,2.724
		c1.435,0.418,2.978,0.233,4.274-0.512c2.749-1.579,5.74-2.379,8.891-2.379c9.216,0,16.832,6.986,17.83,15.94h-38.941l-9.057-10.876
		c-1.063-1.276-2.616-1.983-4.306-1.98c-1.661,0.024-3.222,0.797-4.247,2.104l-8.44,10.752H177.93z M343.276,292.989l-11.609-4.976
		c-1.427-0.612-3.045-0.592-4.459,0.055l-92.454,42.375l-49.537-45.428c-1.41-1.293-3.393-1.76-5.229-1.235l-10.759,3.074
		l-60.15-64.662l37.674-49.677l37.492,26.988c0.98,0.719,2.119,1.065,3.248,1.065c1.692,0,3.362-0.779,4.44-2.248
		c1.796-2.449,1.267-5.891-1.183-7.688l-25.417-18.639l72.336-92.155l32.15,38.605l-25.925,22.468
		c-2.295,1.989-2.543,5.463-0.554,7.758c1.088,1.255,2.619,1.898,4.158,1.898c1.277,0,2.56-0.442,3.601-1.344l36.683-30.403
		l47.019,77.11c1.17,1.917,3.385,2.933,5.601,2.562l8.516-1.419l46.529,68.862L343.276,292.989z"/>
	<path d="M305.05,235.595l-16.414,13.679l-32.361-20.594c-2.019-1.284-4.636-1.116-6.475,0.415l-39,32.5
		c-2.333,1.945-2.648,5.413-0.704,7.746c1.088,1.305,2.652,1.979,4.229,1.979c1.241,0,2.49-0.418,3.519-1.275l35.914-29.929
		l32.361,20.594c2.02,1.284,4.636,1.116,6.475-0.415l19.5-16.25c2.333-1.945,2.648-5.413,0.704-7.746
		C310.853,233.966,307.385,233.651,305.05,235.595z"/>
	<path d="M226.518,373.061l-51.366-25.64c-1.432-0.715-3.104-0.77-4.578-0.153l-17.497,7.317l-77.613-49.402
		c-2.561-1.631-5.962-0.876-7.593,1.687c-1.631,2.563-0.876,5.962,1.687,7.593l80.037,50.945c1.519,0.967,3.415,1.129,5.075,0.434
		l17.824-7.454l49.112,24.515c0.788,0.394,1.626,0.58,2.452,0.58c2.019,0,3.962-1.116,4.925-3.045
		C230.339,377.721,229.235,374.418,226.518,373.061z"/>
	<path d="M346.531,152.916h64.642c3.037,0,5.5-2.462,5.5-5.5c0-12.009-9.77-21.778-21.778-21.778c-3.161,0-6.286,0.701-9.137,2.02
		c-4.88-4.48-11.218-6.976-17.992-6.976c-14.741,0-26.734,11.993-26.734,26.734C341.031,150.453,343.494,152.916,346.531,152.916z
		 M367.766,131.681c4.981,0,9.566,2.304,12.578,6.32c0.894,1.19,2.23,1.968,3.707,2.156c1.479,0.188,2.965-0.231,4.128-1.16
		c1.932-1.544,4.254-2.36,6.716-2.36c3.936,0,7.385,2.12,9.267,5.278h-51.138C355.258,135.944,361.023,131.681,367.766,131.681z"/>
</g>
<g>
</g>
<g>
</g>
<g>
</g>
<g>
</g>
<g>
</g>
<g>
</g>
<g>
</g>
<g>
</g>
<g>
</g>
<g>
</g>
<g>
</g>
<g>
</g>
<g>
</g>
<g>
</g>
<g>
</g>
</svg>
