<?xml version="1.0" ?><!DOCTYPE svg  PUBLIC '-//W3C//DTD SVG 1.1//EN'  'http://www.w3.org/Graphics/SVG/1.1/DTD/svg11.dtd'><svg enable-background="new 0 0 512 512" height="512px" id="Layer_1" version="1.1" viewBox="0 0 512 512" width="512px" xml:space="preserve" xmlns="http://www.w3.org/2000/svg" xmlns:xlink="http://www.w3.org/1999/xlink"><path d="M426.656,117.336l-73.594,152.133L234.578,52.734l-40.125,123.953C135.812,99.562,86.656,34.648,85.328,32  l0.188,320.219l28.938,43.438L0,373.344L106.656,480h64H192h154.594l46.547-42.656c0,0,60.141-199.531,69.719-234.68H512  L426.656,117.336z M239.625,106.43l102.016,186.633l-22.734,47c-32.625-42.781-71.812-94.203-108.719-142.695L239.625,106.43z   M115.5,458.656l-51.031-51.031l66.625,13l25.344,38.031H115.5z M338.297,458.656H182.078L106.844,345.75l-0.141-249.422  c3.391,4.492,7.094,9.383,11.109,14.695c25.688,33.906,61.25,80.695,105.703,139.07c58.047,76.234,116.453,152.75,140.844,184.688  L338.297,458.656z M377.766,414.391l-2.312-0.234c-10.469-13.703-25-32.75-42.047-55.094l75.672-156.398h31.641  C430.016,240.531,391.656,368.25,377.766,414.391z M419.391,181.336l13.406-27.695l27.688,27.695H419.391z" id="origami"/></svg>