<?xml version="1.0" encoding="UTF-8"?>
<svg width="25px" height="25px" viewBox="0 0 25 25" version="1.1" xmlns="http://www.w3.org/2000/svg" xmlns:xlink="http://www.w3.org/1999/xlink">
    <!-- Generator: Sketch 43.2 (39069) - http://www.bohemiancoding.com/sketch -->
    <title>Page 1</title>
    <desc>Created with Sketch.</desc>
    <defs></defs>
    <g id="Page-1" stroke="none" stroke-width="1" fill="none" fill-rule="evenodd">
        <path d="M15.4818284,4.99524228 C16.2156013,4.99524228 16.2156013,6.13529729 15.4818284,6.13529729 C14.7486136,6.13529729 14.7469857,4.99524228 15.4818284,4.99524228 M24.8640844,10.8079833 C24.6653853,11.2174747 24.479942,11.6375244 24.2655218,12.0388762 C24.2457542,12.0758532 23.6710523,12.9927903 23.6794244,13.0012089 C23.7347737,13.0565117 22.6858821,14.3161955 22.452206,14.3424748 C22.4556944,14.3210793 22.4511827,14.3041954 22.4388105,14.2918697 C22.6283933,14.0524261 22.7861619,13.7714472 22.9177443,13.4968405 C23.0765827,13.1653497 23.24877,12.8340449 23.361143,12.475298 C23.6100751,11.6805944 23.7778438,10.884356 23.7624483,10.0469079 C23.739797,8.81173585 23.3278869,7.27484067 22.2943908,6.4903232 C22.9159303,7.49744698 22.8681625,8.93959727 22.695045,10.0575126 C22.6068583,10.6269587 22.489369,11.1586371 22.3069026,11.7060365 C22.2182972,11.972085 22.1207151,12.2318544 22.0082957,12.4878563 C21.9450394,12.6318574 21.8823412,12.7754398 21.8138291,12.9169758 C21.7809917,12.9847902 21.6657815,13.1391635 21.6657815,13.213164 C21.6657815,13.3377696 21.4627102,13.5868877 21.4007097,13.6935397 C21.2937322,13.8774015 21.1838709,14.0627052 21.0673119,14.240567 C20.8216357,14.6155931 20.5477732,14.9756888 20.2567012,15.316203 C19.9713968,15.6499729 19.6608363,15.9740683 19.3363223,16.2704426 C19.0037616,16.5741193 18.566084,16.8065396 18.2645468,17.1364026 C18.8961329,17.2911014 19.6406501,17.1800773 20.2503291,17.0085877 C20.5817734,16.9153312 20.9009386,16.827284 21.2144293,16.6803061 C21.5053152,16.5438865 21.7593171,16.3518851 22.0429471,16.2036514 C22.0146213,16.4279322 21.6372231,16.6802131 21.4757801,16.8195165 C21.1767546,17.0775649 20.8634964,17.3161713 20.5444243,17.5487312 C20.0745603,17.8911524 19.5707891,18.1842708 19.0513899,18.4445519 C17.8264505,19.0583239 16.5457898,19.3755821 15.1873611,19.4656292 C15.6965742,19.9428886 16.278439,20.3972176 16.9361648,20.6515451 C17.2925861,20.7894531 17.6406352,20.8871747 18.0168706,20.950338 C18.1514297,20.9729428 18.2881284,21.0053151 18.4237573,21.0166175 C18.5823166,21.0297804 18.8017601,20.991036 18.9412961,21.0817808 C18.5186417,21.1027577 18.0833362,21.2088515 17.6533795,21.2464332 C17.2706324,21.2799218 16.8814202,21.3129918 16.4966267,21.2843405 C15.485968,21.2090841 14.5074025,20.9998267 13.5882329,20.5554513 C12.6941332,20.1232155 11.8762666,19.5940953 11.0935631,18.9843233 C10.7019788,18.6792978 10.3436041,18.3449697 9.97695016,18.0116184 C9.8240653,17.8726871 9.66392457,17.7411513 9.52057466,17.5920804 C9.46852776,17.5379404 9.26350298,17.2055659 9.18587449,17.2075659 C9.10140875,17.209845 9.26717743,18.0094323 9.29052644,18.0913399 C9.38182944,18.4115284 9.51596998,18.7181353 9.68025027,19.0074398 C9.84476313,19.2971164 10.0389506,19.5688393 10.2489522,19.8271668 C10.4581165,20.0844711 10.7561653,20.2976354 10.916213,20.5901027 C9.85113527,20.1506576 8.93243074,19.4389779 8.20298345,18.5529248 C7.44776851,17.6356621 7.00948618,16.5370958 6.78836825,15.3749941 C6.59445983,14.3557307 6.69701873,13.2827924 6.92060179,12.2774361 C7.1633943,11.1855675 7.76632903,10.2517001 8.58740492,9.50690382 C8.98866372,9.14290111 9.43903917,8.85527106 9.90783337,8.5959668 C10.1806261,8.44503544 10.4512328,8.32326709 10.7414675,8.20708018 C10.9071897,8.14070759 11.0655164,8.07977691 11.2380293,8.02707884 C11.2910065,8.01089267 11.6763582,7.85442639 11.7162189,7.88098473 C12.0764542,8.00107864 12.4159916,8.17177759 12.7608314,8.32819736 C13.1579041,8.50824522 13.5734886,8.63959503 13.9765149,8.79899157 C14.7218693,9.093924 15.5184798,9.34322819 16.3055555,9.53583427 C17.0190027,9.71039371 17.7564965,9.81927825 18.482781,9.88853458 C19.3219966,9.96853517 20.3280971,9.9332791 21.0907074,9.53355519 C21.7939685,9.16494779 22.0797846,8.55582697 22.0105282,7.78810031 C21.9387138,6.99186182 21.4926639,6.37492699 21.0701491,5.73241057 C20.614983,5.04031238 19.9255825,4.4468661 19.2873452,3.92546686 C18.6220379,3.38178839 17.8881254,2.88322653 17.1168639,2.51713078 C16.6445348,2.29289655 16.1931826,2.05010404 15.713365,1.84200947 C15.282199,1.65503133 14.8183816,1.54884449 14.369169,1.41800631 C13.4649297,1.154609 12.4665036,1.09042247 11.5273338,1.09042247 C11.5638922,1.05386406 10.8164448,0.513069329 10.7200255,0.457301471 C10.3680694,0.25376507 9.98108973,0.115810553 9.57992394,0.0496240134 C8.90438402,-0.0618186779 8.1763786,-0.000190311461 7.59358355,0.385161399 C6.94757874,0.812327374 6.5741806,1.55447244 5.97645522,2.044104 C5.72222076,2.25238462 5.43635817,2.42103704 5.12282095,2.52247966 C4.71849235,2.65331784 4.29644269,2.62010829 3.8847652,2.7090857 C3.23773712,2.8489007 2.60559288,3.15346111 2.3551724,3.80602411 C2.0696819,4.55002966 2.34191649,5.37608233 2.09605419,6.12813445 C1.86014546,6.84967471 1.11186081,7.21888677 0.630601408,7.76503037 C0.0279457519,8.44894245 0.0824112743,9.11885442 0.335715488,9.95002341 C0.569066065,10.7157035 0.937626953,11.5629657 0.454786144,12.3145062 C0.248179952,12.6360899 0.00627117175,12.8822313 0.00013159109,13.2907925 C-0.00605450154,13.6981444 0.206877319,14.0667983 0.425111504,14.3958705 C0.65515973,14.7428498 0.925254767,15.0613638 1.20986154,15.3644824 C1.42400267,15.5925771 1.52163131,15.82923 1.65112064,16.1153717 C1.94000652,16.7538416 2.18963629,17.3951487 2.53856912,18.0079905 C3.92039338,20.4349388 6.05552557,22.290441 8.58814911,23.4446822 C10.3629995,24.2536184 12.1686874,24.5966907 14.1100042,24.6310166 C15.1143838,24.6487842 16.119182,24.4922714 17.0843055,24.2293392 C17.5064016,24.1143616 17.9174745,23.9731977 18.3199426,23.8075221 C18.4773856,23.7426844 18.6287821,23.69087 18.7809228,23.6141253 C18.9028772,23.5525434 19.1005066,23.5016128 19.1980422,23.4017051 C19.4337183,23.3488675 19.7182786,23.148773 19.9145126,23.0139348 C19.976048,22.9716554 20.4316793,22.7219791 20.4316793,22.6546763 C20.4316793,22.6004898 20.9614041,22.2849061 21.0087998,22.2456965 C21.2373132,22.0567183 21.4633149,21.8641587 21.6854561,21.6665294 C22.1004824,21.2972708 22.4608107,20.8868491 22.8137901,20.4681948 C23.5936098,19.5432577 24.361383,18.4359471 24.6350129,17.2382638 C23.3700268,18.1972942 21.9669,19.2399531 20.3387018,19.4125591 C20.4179582,19.316977 20.5463313,19.2966047 20.6491227,19.2396741 C20.8070309,19.152185 20.9661019,19.0601378 21.122103,18.9681372 C21.477408,18.7584612 21.8203873,18.4851103 22.1407618,18.2192944 C22.7969062,17.6748717 23.3323055,16.9783549 23.7784019,16.2609542 C24.7762233,14.6563376 25.2546455,12.6820438 24.8640844,10.8079833" fill="#444444"></path>
    </g>
</svg>