<?xml version="1.0" encoding="UTF-8"?>
<svg width="26px" height="25px" viewBox="0 0 26 25" version="1.1" xmlns="http://www.w3.org/2000/svg" xmlns:xlink="http://www.w3.org/1999/xlink">
    <!-- Generator: Sketch 41.1 (35376) - http://www.bohemiancoding.com/sketch -->
    <title>Group</title>
    <desc>Created with Sketch.</desc>
    <defs></defs>
    <g id="Page-1" stroke="none" stroke-width="1" fill="none" fill-rule="evenodd">
        <g id="Group" fill="#000000">
            <path d="M17.9696203,17.4666667 C18.9240506,17.3666667 19.6481013,16.5333333 19.6151899,15.5333333 C19.5822785,14.5333333 18.7594937,13.7333333 17.7721519,13.7333333 L17.7063291,13.7333333 C16.6860759,13.7666667 15.8962025,14.6333333 15.9291139,15.6666667 C15.9620253,16.1666667 16.1594937,16.6 16.4556962,16.9 C15.3367089,19.1333333 13.6253165,20.7666667 11.0582278,22.1333333 C9.31392405,23.0666667 7.50379747,23.4 5.69367089,23.1666667 C4.21265823,22.9666667 3.06075949,22.3 2.33670886,21.2 C1.2835443,19.5666667 1.18481013,17.8 2.07341772,16.0333333 C2.69873418,14.7666667 3.68607595,13.8333333 4.31139241,13.3666667 C4.17974684,12.9333333 3.98227848,12.2 3.8835443,11.6666667 C-0.888607595,15.1666667 -0.394936709,19.9 1.05316456,22.1333333 C2.13924051,23.8 4.3443038,24.8333333 6.77974684,24.8333333 C7.43797468,24.8333333 8.09620253,24.7666667 8.75443038,24.6 C12.9670886,23.7666667 16.1594937,21.2333333 17.9696203,17.4666667 L17.9696203,17.4666667 Z" id="Shape"></path>
            <path d="M23.7620253,13.3333333 C21.2607595,10.3666667 17.5746835,8.73333333 13.3620253,8.73333333 L12.835443,8.73333333 C12.5392405,8.13333333 11.9139241,7.73333333 11.2227848,7.73333333 L11.156962,7.73333333 C10.1367089,7.76666667 9.34683544,8.63333333 9.37974684,9.66666667 C9.41265823,10.6666667 10.235443,11.4666667 11.2227848,11.4666667 L11.2886076,11.4666667 C12.0126582,11.4333333 12.6379747,10.9666667 12.9012658,10.3333333 L13.4936709,10.3333333 C15.9949367,10.3333333 18.364557,11.0666667 20.5037975,12.5 C22.1493671,13.6 23.3341772,15.0333333 23.9924051,16.7666667 C24.5518987,18.1666667 24.5189873,19.5333333 23.9265823,20.7 C23.0050633,22.4666667 21.4582278,23.4333333 19.4177215,23.4333333 C18.1012658,23.4333333 16.8506329,23.0333333 16.1924051,22.7333333 C15.8303797,23.0666667 15.1721519,23.6 14.7113924,23.9333333 C16.1265823,24.6 17.5746835,24.9666667 18.956962,24.9666667 C22.1164557,24.9666667 24.4531646,23.2 25.3417722,21.4333333 C26.2962025,19.5 26.2303797,16.1666667 23.7620253,13.3333333 Z" id="Shape"></path>
            <path d="M7.04303797,18.0333333 C7.07594937,19.0333333 7.89873418,19.8333333 8.88607595,19.8333333 L8.95189873,19.8333333 C9.9721519,19.8 10.7620253,18.9333333 10.7291139,17.9 C10.6962025,16.9 9.87341772,16.1 8.88607595,16.1 L8.82025316,16.1 C8.75443038,16.1 8.6556962,16.1 8.58987342,16.1333333 C7.24050633,13.8666667 6.68101266,11.4 6.87848101,8.73333333 C7.01012658,6.73333333 7.66835443,5 8.82025316,3.56666667 C9.77468354,2.33333333 11.6177215,1.73333333 12.8683544,1.7 C16.356962,1.63333333 17.8379747,6.03333333 17.9367089,7.8 C18.364557,7.9 19.0886076,8.13333333 19.5822785,8.3 C19.1873418,2.9 15.8962025,0.1 12.7367089,0.1 C9.77468354,0.1 7.04303797,2.26666667 5.95696203,5.46666667 C4.44303797,9.73333333 5.43037975,13.8333333 7.27341772,17.0666667 C7.10886076,17.3 7.01012658,17.6666667 7.04303797,18.0333333 L7.04303797,18.0333333 Z" id="Shape"></path>
        </g>
    </g>
</svg>