<?xml version="1.0" ?><!DOCTYPE svg  PUBLIC '-//W3C//DTD SVG 1.1//EN'  'http://www.w3.org/Graphics/SVG/1.1/DTD/svg11.dtd'><svg enable-background="new 0 0 512 512" height="512px" id="Layer_1" version="1.1" viewBox="0 0 512 512" width="512px" xml:space="preserve" xmlns="http://www.w3.org/2000/svg" xmlns:xlink="http://www.w3.org/1999/xlink"><g id="wigwam"><path d="M274.035,78.75l30.078-52.086l0,0c0.906-1.57,1.422-3.391,1.422-5.328c0-5.891-4.766-10.672-10.656-10.672   c-3.938,0-7.375,2.156-9.234,5.344V16l-18.977,32.859V10.664C266.668,4.773,261.895,0,256.004,0S245.34,4.773,245.34,10.664v38.195   L226.363,16v0.008c-1.844-3.188-5.289-5.344-9.234-5.344c-5.891,0-10.664,4.781-10.664,10.672c0,1.938,0.523,3.758,1.438,5.328   h-0.008l30.07,52.086L21.34,512h170.664h128H490.66L274.035,78.75z M288.004,170.664c0-5.891-4.781-10.664-10.656-10.664   c-5.898,0-10.68,4.773-10.68,10.664H245.34c0-5.891-4.781-10.664-10.672-10.664s-10.664,4.773-10.664,10.664h-8.148l40.148-80.297   l40.156,80.297H288.004z M218.824,490.656l37.18-161.125l37.188,161.125H218.824z M315.082,490.656l-59.078-255.992   l-59.078,255.992H55.855L205.191,192h8.148c0,5.891,4.773,10.664,10.664,10.664s10.664-4.773,10.664-10.664h10.672   c0,5.891,4.773,10.664,10.664,10.664s10.664-4.773,10.664-10.664h10.68c0,5.891,4.766,10.664,10.656,10.664   S298.66,197.891,298.66,192h8.156L456.16,490.656H315.082z"/><path d="M188.879,451.125L188.879,451.125l-21.336-21.344l0,0c-1.93-1.922-4.594-3.125-7.539-3.125s-5.609,1.203-7.539,3.125l0,0   l-13.797,13.797l-13.789-13.797l0,0c-1.93-1.922-4.594-3.125-7.539-3.125s-5.617,1.203-7.547,3.125l0,0l-21.328,21.344l0,0   c-1.93,1.938-3.125,4.594-3.125,7.531c0,5.906,4.773,10.688,10.664,10.688c2.945,0,5.609-1.203,7.547-3.125l13.789-13.797   l13.789,13.797c1.93,1.922,4.594,3.125,7.539,3.125s5.617-1.203,7.547-3.125l13.789-13.797l13.789,13.797   c1.93,1.922,4.602,3.125,7.547,3.125c5.891,0,10.664-4.781,10.664-10.688C192.004,455.719,190.809,453.062,188.879,451.125z"/><path d="M423.535,451.125L423.535,451.125l-21.312-21.344l0,0c-1.938-1.922-4.609-3.125-7.562-3.125   c-2.938,0-5.594,1.203-7.531,3.125l0,0l-13.781,13.797l-13.812-13.797l0,0c-1.922-1.922-4.594-3.125-7.531-3.125   s-5.609,1.203-7.531,3.125l0,0l-21.344,21.344l0,0c-1.938,1.938-3.125,4.594-3.125,7.531c0,5.906,4.781,10.688,10.656,10.688   c2.953,0,5.625-1.203,7.562-3.125l13.781-13.797l13.781,13.797l0,0c1.938,1.922,4.609,3.125,7.562,3.125   c2.938,0,5.594-1.203,7.531-3.125l0,0l13.781-13.797l13.812,13.797l0,0c1.922,1.922,4.594,3.125,7.531,3.125   c5.891,0,10.656-4.781,10.656-10.688C426.66,455.719,425.473,453.062,423.535,451.125z"/><path d="M160.004,341.344c5.891,0,10.664-4.781,10.664-10.688c0-5.875-4.773-10.656-10.664-10.656s-10.664,4.781-10.664,10.656   C149.34,336.562,154.113,341.344,160.004,341.344z"/><path d="M202.668,320c-5.891,0-10.664,4.781-10.664,10.656c0,5.906,4.773,10.688,10.664,10.688s10.672-4.781,10.672-10.688   C213.34,324.781,208.559,320,202.668,320z"/><path d="M309.348,320c-5.906,0-10.688,4.781-10.688,10.656c0,5.906,4.781,10.688,10.688,10.688c5.875,0,10.656-4.781,10.656-10.688   C320.004,324.781,315.223,320,309.348,320z"/><path d="M352.004,341.344c5.891,0,10.656-4.781,10.656-10.688c0-5.875-4.766-10.656-10.656-10.656s-10.656,4.781-10.656,10.656   C341.348,336.562,346.113,341.344,352.004,341.344z"/></g></svg>