<?xml version="1.0" ?><!DOCTYPE svg  PUBLIC '-//W3C//DTD SVG 1.1//EN'  'http://www.w3.org/Graphics/SVG/1.1/DTD/svg11.dtd'><svg enable-background="new 0 0 512 512" height="512px" id="Layer_1" version="1.1" viewBox="0 0 512 512" width="512px" xml:space="preserve" xmlns="http://www.w3.org/2000/svg" xmlns:xlink="http://www.w3.org/1999/xlink"><path d="M490.657,149.329v-41.951c13.45-0.437,21.343-0.716,21.343-0.716l-21.343-64c0,0-127.794,5.333-234.657,5.333  c-106.858,0-234.667-5.333-234.667-5.333L0,106.662c0,0,7.892,0.279,21.333,0.716v41.951h87.652l-3,21.333H53.333l-10.666,85.333  h51.318L64,469.338h106.667l12.794-213.343h144.912l12.813,213.343h106.657l-29.98-213.343h51.48l-10.687-85.333h-52.794  l-2.99-21.333H490.657z M36.51,64.598c37.818,1.412,135.578,4.73,219.49,4.73c83.902,0,181.677-3.319,219.5-4.73l7.216,21.686  c-48.529,1.53-149.432,4.377-226.716,4.377c-77.279,0-178.182-2.848-226.721-4.377L36.51,64.598z M42.667,108.044  c52.146,1.583,142.225,3.951,213.333,3.951c71.107,0,161.187-2.368,213.344-3.951v19.951H42.667V108.044z M213.333,149.329v21.333  h-24.755l1.275-21.333H213.333z M234.667,149.329h42.676v21.333h-42.676V149.329z M298.657,149.329H322l1.284,21.333h-24.627  V149.329z M130.524,149.329h37.961l-1.284,21.333h-39.677L130.524,149.329z M150.568,447.996H88.539l26.99-192.001h46.559  L150.568,447.996z M423.313,447.996h-62.029l-11.539-192.001h46.568L423.313,447.996z M445.157,234.662H66.833l5.334-42.667h367.677  L445.157,234.662z M384.313,170.662h-39.677l-1.273-21.333h37.95L384.313,170.662z" id="gate"/></svg>